%TF.GenerationSoftware,KiCad,Pcbnew,8.0.5-8.0.5-0~ubuntu22.04.1*%
%TF.CreationDate,2024-10-05T08:55:46-07:00*%
%TF.ProjectId,pmod_ethernet_la,706d6f64-5f65-4746-9865-726e65745f6c,rev?*%
%TF.SameCoordinates,Original*%
%TF.FileFunction,Soldermask,Bot*%
%TF.FilePolarity,Negative*%
%FSLAX46Y46*%
G04 Gerber Fmt 4.6, Leading zero omitted, Abs format (unit mm)*
G04 Created by KiCad (PCBNEW 8.0.5-8.0.5-0~ubuntu22.04.1) date 2024-10-05 08:55:46*
%MOMM*%
%LPD*%
G01*
G04 APERTURE LIST*
%ADD10R,1.700000X1.700000*%
%ADD11O,1.700000X1.700000*%
%ADD12C,3.250000*%
%ADD13R,1.500000X1.500000*%
%ADD14C,1.500000*%
%ADD15C,2.300000*%
G04 APERTURE END LIST*
D10*
%TO.C,J102*%
X85725000Y-99160000D03*
D11*
X88265000Y-99160000D03*
X85725000Y-101700000D03*
X88265000Y-101700000D03*
X85725000Y-104240000D03*
X88265000Y-104240000D03*
X85725000Y-106780000D03*
X88265000Y-106780000D03*
X85725000Y-109320000D03*
X88265000Y-109320000D03*
X85725000Y-111860000D03*
X88265000Y-111860000D03*
X85725000Y-114400000D03*
X88265000Y-114400000D03*
X85725000Y-116940000D03*
X88265000Y-116940000D03*
X85725000Y-119480000D03*
X88265000Y-119480000D03*
X85725000Y-122020000D03*
X88265000Y-122020000D03*
X85725000Y-124560000D03*
X88265000Y-124560000D03*
X85725000Y-127100000D03*
X88265000Y-127100000D03*
X85725000Y-129640000D03*
X88265000Y-129640000D03*
X85725000Y-132180000D03*
X88265000Y-132180000D03*
X85725000Y-134720000D03*
X88265000Y-134720000D03*
%TD*%
D12*
%TO.C,J501*%
X125955000Y-99500001D03*
X125955000Y-112200001D03*
D13*
X123415000Y-102290001D03*
D14*
X121635000Y-103306001D03*
X123415000Y-104322001D03*
X121635000Y-105338001D03*
X123415000Y-106354001D03*
X121635000Y-107370001D03*
X123415000Y-108386001D03*
X121635000Y-109402001D03*
D15*
X122525000Y-97720001D03*
X122525000Y-113980001D03*
%TD*%
D12*
%TO.C,J401*%
X125955000Y-119433334D03*
X125955000Y-132133334D03*
D13*
X123415000Y-122223334D03*
D14*
X121635000Y-123239334D03*
X123415000Y-124255334D03*
X121635000Y-125271334D03*
X123415000Y-126287334D03*
X121635000Y-127303334D03*
X123415000Y-128319334D03*
X121635000Y-129335334D03*
D15*
X122525000Y-117653334D03*
X122525000Y-133913334D03*
%TD*%
D12*
%TO.C,J301*%
X125955000Y-139366667D03*
X125955000Y-152066667D03*
D13*
X123415000Y-142156667D03*
D14*
X121635000Y-143172667D03*
X123415000Y-144188667D03*
X121635000Y-145204667D03*
X123415000Y-146220667D03*
X121635000Y-147236667D03*
X123415000Y-148252667D03*
X121635000Y-149268667D03*
D15*
X122525000Y-137586667D03*
X122525000Y-153846667D03*
%TD*%
D12*
%TO.C,J201*%
X125885000Y-79646667D03*
X125885000Y-92346667D03*
D13*
X123345000Y-82436667D03*
D14*
X121565000Y-83452667D03*
X123345000Y-84468667D03*
X121565000Y-85484667D03*
X123345000Y-86500667D03*
X121565000Y-87516667D03*
X123345000Y-88532667D03*
X121565000Y-89548667D03*
D15*
X122455000Y-77866667D03*
X122455000Y-94126667D03*
%TD*%
M02*
