M48
; DRILL file {KiCad 8.0.5-8.0.5-0~ubuntu22.04.1} date 2024-10-05T08:55:46-0700
; FORMAT={-:-/ absolute / inch / decimal}
; #@! TF.CreationDate,2024-10-05T08:55:46-07:00
; #@! TF.GenerationSoftware,Kicad,Pcbnew,8.0.5-8.0.5-0~ubuntu22.04.1
; #@! TF.FileFunction,Plated,1,4,PTH
FMAT,2
INCH
; #@! TA.AperFunction,Plated,PTH,ViaDrill
T1C0.0118
; #@! TA.AperFunction,Plated,PTH,ComponentDrill
T2C0.0350
; #@! TA.AperFunction,Plated,PTH,ComponentDrill
T3C0.0394
; #@! TA.AperFunction,Plated,PTH,ComponentDrill
T4C0.0618
%
G90
G05
T1
X3.5551Y-5.0276
X3.5591Y-4.9803
X3.5591Y-5.0787
X3.5591Y-5.126
X3.5591Y-5.1772
X3.563Y-4.4685
X3.563Y-4.5276
X3.563Y-4.5827
X3.563Y-4.7047
X3.563Y-4.9173
X3.5669Y-3.8819
X3.5669Y-3.9252
X3.5709Y-3.9803
X3.5709Y-4.0787
X3.5709Y-4.1339
X3.5709Y-4.1811
X3.5709Y-4.2362
X3.5709Y-4.7795
X3.5709Y-4.8307
X4.0217Y-4.3051
X4.0217Y-4.4213
X4.0217Y-4.5059
X4.0217Y-4.5059
X4.0217Y-4.622
X4.0217Y-4.622
X4.0226Y-4.7106
X4.0226Y-4.7106
X4.0226Y-4.8268
X4.0226Y-4.8268
X4.0236Y-4.9144
X4.0236Y-5.0305
X4.0236Y-5.0305
X4.1339Y-3.248
X4.1339Y-3.3661
X4.1339Y-3.4843
X4.1535Y-3.6024
X4.1693Y-4.8039
X4.1713Y-5.1437
X4.1732Y-4.9055
X4.1752Y-5.0098
X4.1772Y-3.2008
X4.1772Y-5.2047
X4.1811Y-3.4173
X4.1811Y-3.5394
X4.185Y-3.3071
X4.185Y-5.0827
X4.189Y-3.6575
X4.189Y-4.378
X4.189Y-4.748
X4.189Y-4.8543
X4.189Y-4.9606
X4.1969Y-4.1378
X4.2008Y-3.9449
X4.2008Y-4.2598
T2
X4.786Y-3.2855
X4.786Y-3.3655
X4.786Y-3.4455
X4.786Y-3.5255
X4.7888Y-4.0672
X4.7888Y-4.1472
X4.7888Y-4.2272
X4.7888Y-4.3072
X4.7888Y-4.8519
X4.7888Y-4.9319
X4.7888Y-5.0119
X4.7888Y-5.0919
X4.7888Y-5.6367
X4.7888Y-5.7167
X4.7888Y-5.7967
X4.7888Y-5.8767
X4.8561Y-3.2455
X4.8561Y-3.3255
X4.8561Y-3.4055
X4.8561Y-3.4855
X4.8589Y-4.0272
X4.8589Y-4.1072
X4.8589Y-4.1872
X4.8589Y-4.2672
X4.8589Y-4.8119
X4.8589Y-4.8919
X4.8589Y-4.9719
X4.8589Y-5.0519
X4.8589Y-5.5967
X4.8589Y-5.6767
X4.8589Y-5.7567
X4.8589Y-5.8367
T3
X3.375Y-3.9039
X3.375Y-4.0039
X3.375Y-4.1039
X3.375Y-4.2039
X3.375Y-4.3039
X3.375Y-4.4039
X3.375Y-4.5039
X3.375Y-4.6039
X3.375Y-4.7039
X3.375Y-4.8039
X3.375Y-4.9039
X3.375Y-5.0039
X3.375Y-5.1039
X3.375Y-5.2039
X3.375Y-5.3039
X3.475Y-3.9039
X3.475Y-4.0039
X3.475Y-4.1039
X3.475Y-4.2039
X3.475Y-4.3039
X3.475Y-4.4039
X3.475Y-4.5039
X3.475Y-4.6039
X3.475Y-4.7039
X3.475Y-4.8039
X3.475Y-4.9039
X3.475Y-5.0039
X3.475Y-5.1039
X3.475Y-5.2039
X3.475Y-5.3039
T4
X4.8211Y-3.0656
X4.8211Y-3.7058
X4.8238Y-3.8472
X4.8238Y-4.4874
X4.8238Y-4.632
X4.8238Y-5.2722
X4.8238Y-5.4168
X4.8238Y-6.057
M30
