%TF.GenerationSoftware,KiCad,Pcbnew,8.0.5-8.0.5-0~ubuntu22.04.1*%
%TF.CreationDate,2024-10-05T08:55:46-07:00*%
%TF.ProjectId,pmod_ethernet_la,706d6f64-5f65-4746-9865-726e65745f6c,rev?*%
%TF.SameCoordinates,Original*%
%TF.FileFunction,Legend,Top*%
%TF.FilePolarity,Positive*%
%FSLAX46Y46*%
G04 Gerber Fmt 4.6, Leading zero omitted, Abs format (unit mm)*
G04 Created by KiCad (PCBNEW 8.0.5-8.0.5-0~ubuntu22.04.1) date 2024-10-05 08:55:46*
%MOMM*%
%LPD*%
G01*
G04 APERTURE LIST*
G04 Aperture macros list*
%AMRoundRect*
0 Rectangle with rounded corners*
0 $1 Rounding radius*
0 $2 $3 $4 $5 $6 $7 $8 $9 X,Y pos of 4 corners*
0 Add a 4 corners polygon primitive as box body*
4,1,4,$2,$3,$4,$5,$6,$7,$8,$9,$2,$3,0*
0 Add four circle primitives for the rounded corners*
1,1,$1+$1,$2,$3*
1,1,$1+$1,$4,$5*
1,1,$1+$1,$6,$7*
1,1,$1+$1,$8,$9*
0 Add four rect primitives between the rounded corners*
20,1,$1+$1,$2,$3,$4,$5,0*
20,1,$1+$1,$4,$5,$6,$7,0*
20,1,$1+$1,$6,$7,$8,$9,0*
20,1,$1+$1,$8,$9,$2,$3,0*%
G04 Aperture macros list end*
%ADD10C,0.150000*%
%ADD11C,0.120000*%
%ADD12RoundRect,0.200000X-0.200000X-0.275000X0.200000X-0.275000X0.200000X0.275000X-0.200000X0.275000X0*%
%ADD13RoundRect,0.200000X0.275000X-0.200000X0.275000X0.200000X-0.275000X0.200000X-0.275000X-0.200000X0*%
%ADD14RoundRect,0.200000X-0.275000X0.200000X-0.275000X-0.200000X0.275000X-0.200000X0.275000X0.200000X0*%
%ADD15R,1.000000X1.000000*%
%ADD16R,2.200000X1.050000*%
%ADD17R,1.700000X1.700000*%
%ADD18O,1.700000X1.700000*%
%ADD19RoundRect,0.200000X0.200000X0.275000X-0.200000X0.275000X-0.200000X-0.275000X0.200000X-0.275000X0*%
%ADD20C,3.250000*%
%ADD21R,1.500000X1.500000*%
%ADD22C,1.500000*%
%ADD23C,2.300000*%
G04 APERTURE END LIST*
D10*
X85709285Y-96284819D02*
X85709285Y-96999104D01*
X85709285Y-96999104D02*
X85661666Y-97141961D01*
X85661666Y-97141961D02*
X85566428Y-97237200D01*
X85566428Y-97237200D02*
X85423571Y-97284819D01*
X85423571Y-97284819D02*
X85328333Y-97284819D01*
X86709285Y-97284819D02*
X86137857Y-97284819D01*
X86423571Y-97284819D02*
X86423571Y-96284819D01*
X86423571Y-96284819D02*
X86328333Y-96427676D01*
X86328333Y-96427676D02*
X86233095Y-96522914D01*
X86233095Y-96522914D02*
X86137857Y-96570533D01*
X87328333Y-96284819D02*
X87423571Y-96284819D01*
X87423571Y-96284819D02*
X87518809Y-96332438D01*
X87518809Y-96332438D02*
X87566428Y-96380057D01*
X87566428Y-96380057D02*
X87614047Y-96475295D01*
X87614047Y-96475295D02*
X87661666Y-96665771D01*
X87661666Y-96665771D02*
X87661666Y-96903866D01*
X87661666Y-96903866D02*
X87614047Y-97094342D01*
X87614047Y-97094342D02*
X87566428Y-97189580D01*
X87566428Y-97189580D02*
X87518809Y-97237200D01*
X87518809Y-97237200D02*
X87423571Y-97284819D01*
X87423571Y-97284819D02*
X87328333Y-97284819D01*
X87328333Y-97284819D02*
X87233095Y-97237200D01*
X87233095Y-97237200D02*
X87185476Y-97189580D01*
X87185476Y-97189580D02*
X87137857Y-97094342D01*
X87137857Y-97094342D02*
X87090238Y-96903866D01*
X87090238Y-96903866D02*
X87090238Y-96665771D01*
X87090238Y-96665771D02*
X87137857Y-96475295D01*
X87137857Y-96475295D02*
X87185476Y-96380057D01*
X87185476Y-96380057D02*
X87233095Y-96332438D01*
X87233095Y-96332438D02*
X87328333Y-96284819D01*
X88042619Y-96380057D02*
X88090238Y-96332438D01*
X88090238Y-96332438D02*
X88185476Y-96284819D01*
X88185476Y-96284819D02*
X88423571Y-96284819D01*
X88423571Y-96284819D02*
X88518809Y-96332438D01*
X88518809Y-96332438D02*
X88566428Y-96380057D01*
X88566428Y-96380057D02*
X88614047Y-96475295D01*
X88614047Y-96475295D02*
X88614047Y-96570533D01*
X88614047Y-96570533D02*
X88566428Y-96713390D01*
X88566428Y-96713390D02*
X87995000Y-97284819D01*
X87995000Y-97284819D02*
X88614047Y-97284819D01*
D11*
%TO.C,R902*%
X97337742Y-114477501D02*
X97812258Y-114477501D01*
X97337742Y-115522501D02*
X97812258Y-115522501D01*
%TO.C,R901*%
X94727500Y-116037259D02*
X94727500Y-115562743D01*
X95772500Y-116037259D02*
X95772500Y-115562743D01*
%TO.C,R802*%
X97337742Y-109377500D02*
X97812258Y-109377500D01*
X97337742Y-110422500D02*
X97812258Y-110422500D01*
%TO.C,R801*%
X94727500Y-110937258D02*
X94727500Y-110462742D01*
X95772500Y-110937258D02*
X95772500Y-110462742D01*
%TO.C,R702*%
X97387742Y-124852500D02*
X97862258Y-124852500D01*
X97387742Y-125897500D02*
X97862258Y-125897500D01*
%TO.C,R701*%
X95822500Y-125937742D02*
X95822500Y-126412258D01*
X94777500Y-125937742D02*
X94777500Y-126412258D01*
%TO.C,R602*%
X97362742Y-119677500D02*
X97837258Y-119677500D01*
X97362742Y-120722500D02*
X97837258Y-120722500D01*
%TO.C,R601*%
X94752500Y-121237258D02*
X94752500Y-120762742D01*
X95797500Y-121237258D02*
X95797500Y-120762742D01*
%TO.C,J901*%
X103650000Y-114425001D02*
X103650000Y-115225001D01*
X103450000Y-114425001D02*
X103650000Y-114425001D01*
X100650000Y-114625001D02*
X100850000Y-114425001D01*
X100650000Y-115225001D02*
X100650000Y-114625001D01*
X100650000Y-115225001D02*
X100150000Y-115225001D01*
X103650000Y-116625001D02*
X103650000Y-117425001D01*
X100650000Y-116625001D02*
X100150000Y-116625001D01*
X103650000Y-117425001D02*
X103450000Y-117425001D01*
X100850000Y-117425001D02*
X100650000Y-117425001D01*
X100650000Y-117425001D02*
X100650000Y-116625001D01*
%TO.C,J801*%
X103650000Y-109325000D02*
X103650000Y-110125000D01*
X103450000Y-109325000D02*
X103650000Y-109325000D01*
X100650000Y-109525000D02*
X100850000Y-109325000D01*
X100650000Y-110125000D02*
X100650000Y-109525000D01*
X100650000Y-110125000D02*
X100150000Y-110125000D01*
X103650000Y-111525000D02*
X103650000Y-112325000D01*
X100650000Y-111525000D02*
X100150000Y-111525000D01*
X103650000Y-112325000D02*
X103450000Y-112325000D01*
X100850000Y-112325000D02*
X100650000Y-112325000D01*
X100650000Y-112325000D02*
X100650000Y-111525000D01*
%TO.C,J701*%
X103700000Y-124800000D02*
X103700000Y-125600000D01*
X103500000Y-124800000D02*
X103700000Y-124800000D01*
X100700000Y-125000000D02*
X100900000Y-124800000D01*
X100700000Y-125600000D02*
X100700000Y-125000000D01*
X100700000Y-125600000D02*
X100200000Y-125600000D01*
X103700000Y-127000000D02*
X103700000Y-127800000D01*
X100700000Y-127000000D02*
X100200000Y-127000000D01*
X103700000Y-127800000D02*
X103500000Y-127800000D01*
X100900000Y-127800000D02*
X100700000Y-127800000D01*
X100700000Y-127800000D02*
X100700000Y-127000000D01*
%TO.C,J601*%
X100675000Y-122625000D02*
X100675000Y-121825000D01*
X100875000Y-122625000D02*
X100675000Y-122625000D01*
X103675000Y-122625000D02*
X103475000Y-122625000D01*
X100675000Y-121825000D02*
X100175000Y-121825000D01*
X103675000Y-121825000D02*
X103675000Y-122625000D01*
X100675000Y-120425000D02*
X100175000Y-120425000D01*
X100675000Y-120425000D02*
X100675000Y-119825000D01*
X100675000Y-119825000D02*
X100875000Y-119625000D01*
X103475000Y-119625000D02*
X103675000Y-119625000D01*
X103675000Y-119625000D02*
X103675000Y-120425000D01*
%TO.C,C901*%
X97337742Y-116077501D02*
X97812258Y-116077501D01*
X97337742Y-117122501D02*
X97812258Y-117122501D01*
%TO.C,C801*%
X97337742Y-110977500D02*
X97812258Y-110977500D01*
X97337742Y-112022500D02*
X97812258Y-112022500D01*
%TO.C,C701*%
X97387742Y-126452500D02*
X97862258Y-126452500D01*
X97387742Y-127497500D02*
X97862258Y-127497500D01*
%TO.C,C601*%
X97362742Y-121277500D02*
X97837258Y-121277500D01*
X97362742Y-122322500D02*
X97837258Y-122322500D01*
%TO.C,J102*%
X84395000Y-97830000D02*
X85725000Y-97830000D01*
X84395000Y-99160000D02*
X84395000Y-97830000D01*
X84395000Y-100430000D02*
X84395000Y-136050000D01*
X84395000Y-100430000D02*
X86995000Y-100430000D01*
X84395000Y-136050000D02*
X89595000Y-136050000D01*
X86995000Y-97830000D02*
X89595000Y-97830000D01*
X86995000Y-100430000D02*
X86995000Y-97830000D01*
X89595000Y-97830000D02*
X89595000Y-136050000D01*
%TO.C,R508*%
X108787258Y-103422501D02*
X108312742Y-103422501D01*
X108787258Y-102377501D02*
X108312742Y-102377501D01*
%TO.C,R507*%
X108762258Y-105062501D02*
X108287742Y-105062501D01*
X108762258Y-104017501D02*
X108287742Y-104017501D01*
%TO.C,R506*%
X108762258Y-109722501D02*
X108287742Y-109722501D01*
X108762258Y-108677501D02*
X108287742Y-108677501D01*
%TO.C,R505*%
X108787258Y-111222501D02*
X108312742Y-111222501D01*
X108787258Y-110177501D02*
X108312742Y-110177501D01*
%TO.C,R504*%
X111887258Y-103422501D02*
X111412742Y-103422501D01*
X111887258Y-102377501D02*
X111412742Y-102377501D01*
%TO.C,R503*%
X111837258Y-106522501D02*
X111362742Y-106522501D01*
X111837258Y-105477501D02*
X111362742Y-105477501D01*
%TO.C,R502*%
X111837258Y-109722501D02*
X111362742Y-109722501D01*
X111837258Y-108677501D02*
X111362742Y-108677501D01*
%TO.C,R501*%
X111812258Y-112722501D02*
X111337742Y-112722501D01*
X111812258Y-111677501D02*
X111337742Y-111677501D01*
%TO.C,R408*%
X108787258Y-123355834D02*
X108312742Y-123355834D01*
X108787258Y-122310834D02*
X108312742Y-122310834D01*
%TO.C,R407*%
X108762258Y-124995834D02*
X108287742Y-124995834D01*
X108762258Y-123950834D02*
X108287742Y-123950834D01*
%TO.C,R406*%
X108762258Y-129655834D02*
X108287742Y-129655834D01*
X108762258Y-128610834D02*
X108287742Y-128610834D01*
%TO.C,R405*%
X108787258Y-131155834D02*
X108312742Y-131155834D01*
X108787258Y-130110834D02*
X108312742Y-130110834D01*
%TO.C,R404*%
X111887258Y-123355834D02*
X111412742Y-123355834D01*
X111887258Y-122310834D02*
X111412742Y-122310834D01*
%TO.C,R403*%
X111837258Y-126455834D02*
X111362742Y-126455834D01*
X111837258Y-125410834D02*
X111362742Y-125410834D01*
%TO.C,R402*%
X111837258Y-129655834D02*
X111362742Y-129655834D01*
X111837258Y-128610834D02*
X111362742Y-128610834D01*
%TO.C,R401*%
X111812258Y-132655834D02*
X111337742Y-132655834D01*
X111812258Y-131610834D02*
X111337742Y-131610834D01*
%TO.C,R308*%
X108787258Y-143289167D02*
X108312742Y-143289167D01*
X108787258Y-142244167D02*
X108312742Y-142244167D01*
%TO.C,R307*%
X108762258Y-144929167D02*
X108287742Y-144929167D01*
X108762258Y-143884167D02*
X108287742Y-143884167D01*
%TO.C,R306*%
X108762258Y-149589167D02*
X108287742Y-149589167D01*
X108762258Y-148544167D02*
X108287742Y-148544167D01*
%TO.C,R305*%
X108787258Y-151089167D02*
X108312742Y-151089167D01*
X108787258Y-150044167D02*
X108312742Y-150044167D01*
%TO.C,R304*%
X111887258Y-143289167D02*
X111412742Y-143289167D01*
X111887258Y-142244167D02*
X111412742Y-142244167D01*
%TO.C,R303*%
X111837258Y-146389167D02*
X111362742Y-146389167D01*
X111837258Y-145344167D02*
X111362742Y-145344167D01*
%TO.C,R302*%
X111837258Y-149589167D02*
X111362742Y-149589167D01*
X111837258Y-148544167D02*
X111362742Y-148544167D01*
%TO.C,R301*%
X111812258Y-152589167D02*
X111337742Y-152589167D01*
X111812258Y-151544167D02*
X111337742Y-151544167D01*
%TO.C,J501*%
X124615000Y-96790001D02*
X124115000Y-97290001D01*
X123615000Y-96790001D02*
X124615000Y-96790001D01*
X124115000Y-97290001D02*
X123615000Y-96790001D01*
X131525000Y-97485001D02*
X123915000Y-97485001D01*
X115555000Y-97485001D02*
X121115000Y-97485001D01*
X131525000Y-97530001D02*
X131525000Y-114170001D01*
X115555000Y-97530001D02*
X115555000Y-114215001D01*
X131525000Y-114215001D02*
X123915000Y-114215001D01*
X115555000Y-114215001D02*
X121115000Y-114215001D01*
%TO.C,J401*%
X124615000Y-116723334D02*
X124115000Y-117223334D01*
X123615000Y-116723334D02*
X124615000Y-116723334D01*
X124115000Y-117223334D02*
X123615000Y-116723334D01*
X131525000Y-117418334D02*
X123915000Y-117418334D01*
X115555000Y-117418334D02*
X121115000Y-117418334D01*
X131525000Y-117463334D02*
X131525000Y-134103334D01*
X115555000Y-117463334D02*
X115555000Y-134148334D01*
X131525000Y-134148334D02*
X123915000Y-134148334D01*
X115555000Y-134148334D02*
X121115000Y-134148334D01*
%TO.C,J301*%
X124615000Y-136656667D02*
X124115000Y-137156667D01*
X123615000Y-136656667D02*
X124615000Y-136656667D01*
X124115000Y-137156667D02*
X123615000Y-136656667D01*
X131525000Y-137351667D02*
X123915000Y-137351667D01*
X115555000Y-137351667D02*
X121115000Y-137351667D01*
X131525000Y-137396667D02*
X131525000Y-154036667D01*
X115555000Y-137396667D02*
X115555000Y-154081667D01*
X131525000Y-154081667D02*
X123915000Y-154081667D01*
X115555000Y-154081667D02*
X121115000Y-154081667D01*
%TO.C,C504*%
X108812258Y-101822501D02*
X108337742Y-101822501D01*
X108812258Y-100777501D02*
X108337742Y-100777501D01*
%TO.C,C503*%
X108737258Y-106562501D02*
X108262742Y-106562501D01*
X108737258Y-105517501D02*
X108262742Y-105517501D01*
%TO.C,C502*%
X108787258Y-108122501D02*
X108312742Y-108122501D01*
X108787258Y-107077501D02*
X108312742Y-107077501D01*
%TO.C,C501*%
X108787258Y-112722501D02*
X108312742Y-112722501D01*
X108787258Y-111677501D02*
X108312742Y-111677501D01*
%TO.C,C404*%
X108812258Y-121755834D02*
X108337742Y-121755834D01*
X108812258Y-120710834D02*
X108337742Y-120710834D01*
%TO.C,C403*%
X108737258Y-126495834D02*
X108262742Y-126495834D01*
X108737258Y-125450834D02*
X108262742Y-125450834D01*
%TO.C,C402*%
X108787258Y-128055834D02*
X108312742Y-128055834D01*
X108787258Y-127010834D02*
X108312742Y-127010834D01*
%TO.C,C401*%
X108787258Y-132655834D02*
X108312742Y-132655834D01*
X108787258Y-131610834D02*
X108312742Y-131610834D01*
%TO.C,C304*%
X108812258Y-141689167D02*
X108337742Y-141689167D01*
X108812258Y-140644167D02*
X108337742Y-140644167D01*
%TO.C,C303*%
X108737258Y-146429167D02*
X108262742Y-146429167D01*
X108737258Y-145384167D02*
X108262742Y-145384167D01*
%TO.C,C302*%
X108787258Y-147989167D02*
X108312742Y-147989167D01*
X108787258Y-146944167D02*
X108312742Y-146944167D01*
%TO.C,C301*%
X108787258Y-152589167D02*
X108312742Y-152589167D01*
X108787258Y-151544167D02*
X108312742Y-151544167D01*
%TO.C,R208*%
X108717258Y-83569167D02*
X108242742Y-83569167D01*
X108717258Y-82524167D02*
X108242742Y-82524167D01*
%TO.C,R204*%
X111817258Y-83569167D02*
X111342742Y-83569167D01*
X111817258Y-82524167D02*
X111342742Y-82524167D01*
%TO.C,R207*%
X108692258Y-85209167D02*
X108217742Y-85209167D01*
X108692258Y-84164167D02*
X108217742Y-84164167D01*
%TO.C,R203*%
X111767258Y-86669167D02*
X111292742Y-86669167D01*
X111767258Y-85624167D02*
X111292742Y-85624167D01*
%TO.C,R206*%
X108692258Y-89869167D02*
X108217742Y-89869167D01*
X108692258Y-88824167D02*
X108217742Y-88824167D01*
%TO.C,R202*%
X111767258Y-89869167D02*
X111292742Y-89869167D01*
X111767258Y-88824167D02*
X111292742Y-88824167D01*
%TO.C,J201*%
X124545000Y-76936667D02*
X124045000Y-77436667D01*
X123545000Y-76936667D02*
X124545000Y-76936667D01*
X124045000Y-77436667D02*
X123545000Y-76936667D01*
X131455000Y-77631667D02*
X123845000Y-77631667D01*
X115485000Y-77631667D02*
X121045000Y-77631667D01*
X131455000Y-77676667D02*
X131455000Y-94316667D01*
X115485000Y-77676667D02*
X115485000Y-94361667D01*
X131455000Y-94361667D02*
X123845000Y-94361667D01*
X115485000Y-94361667D02*
X121045000Y-94361667D01*
%TO.C,C204*%
X108742258Y-81969167D02*
X108267742Y-81969167D01*
X108742258Y-80924167D02*
X108267742Y-80924167D01*
%TO.C,C203*%
X108667258Y-86709167D02*
X108192742Y-86709167D01*
X108667258Y-85664167D02*
X108192742Y-85664167D01*
%TO.C,C202*%
X108717258Y-88269167D02*
X108242742Y-88269167D01*
X108717258Y-87224167D02*
X108242742Y-87224167D01*
%TO.C,R205*%
X108717258Y-91369167D02*
X108242742Y-91369167D01*
X108717258Y-90324167D02*
X108242742Y-90324167D01*
%TO.C,R201*%
X111742258Y-92869167D02*
X111267742Y-92869167D01*
X111742258Y-91824167D02*
X111267742Y-91824167D01*
%TO.C,C201*%
X108717258Y-92869167D02*
X108242742Y-92869167D01*
X108717258Y-91824167D02*
X108242742Y-91824167D01*
%TD*%
%LPC*%
D12*
%TO.C,R902*%
X96750000Y-115000001D03*
X98400000Y-115000001D03*
%TD*%
D13*
%TO.C,R901*%
X95250000Y-116625001D03*
X95250000Y-114975001D03*
%TD*%
D12*
%TO.C,R802*%
X96750000Y-109900000D03*
X98400000Y-109900000D03*
%TD*%
D13*
%TO.C,R801*%
X95250000Y-111525000D03*
X95250000Y-109875000D03*
%TD*%
D12*
%TO.C,R702*%
X96800000Y-125375000D03*
X98450000Y-125375000D03*
%TD*%
D14*
%TO.C,R701*%
X95300000Y-125350000D03*
X95300000Y-127000000D03*
%TD*%
D12*
%TO.C,R602*%
X96775000Y-120200000D03*
X98425000Y-120200000D03*
%TD*%
D13*
%TO.C,R601*%
X95275000Y-121825000D03*
X95275000Y-120175000D03*
%TD*%
D15*
%TO.C,J901*%
X100650000Y-115925001D03*
D16*
X102150000Y-114450001D03*
D15*
X103650000Y-115925001D03*
D16*
X102150000Y-117400001D03*
%TD*%
D15*
%TO.C,J801*%
X100650000Y-110825000D03*
D16*
X102150000Y-109350000D03*
D15*
X103650000Y-110825000D03*
D16*
X102150000Y-112300000D03*
%TD*%
D15*
%TO.C,J701*%
X100700000Y-126300000D03*
D16*
X102200000Y-124825000D03*
D15*
X103700000Y-126300000D03*
D16*
X102200000Y-127775000D03*
%TD*%
%TO.C,J601*%
X102175000Y-122600000D03*
D15*
X103675000Y-121125000D03*
D16*
X102175000Y-119650000D03*
D15*
X100675000Y-121125000D03*
%TD*%
D12*
%TO.C,C901*%
X96750000Y-116600001D03*
X98400000Y-116600001D03*
%TD*%
%TO.C,C801*%
X96750000Y-111500000D03*
X98400000Y-111500000D03*
%TD*%
%TO.C,C701*%
X96800000Y-126975000D03*
X98450000Y-126975000D03*
%TD*%
%TO.C,C601*%
X96775000Y-121800000D03*
X98425000Y-121800000D03*
%TD*%
D17*
%TO.C,J102*%
X85725000Y-99160000D03*
D18*
X88265000Y-99160000D03*
X85725000Y-101700000D03*
X88265000Y-101700000D03*
X85725000Y-104240000D03*
X88265000Y-104240000D03*
X85725000Y-106780000D03*
X88265000Y-106780000D03*
X85725000Y-109320000D03*
X88265000Y-109320000D03*
X85725000Y-111860000D03*
X88265000Y-111860000D03*
X85725000Y-114400000D03*
X88265000Y-114400000D03*
X85725000Y-116940000D03*
X88265000Y-116940000D03*
X85725000Y-119480000D03*
X88265000Y-119480000D03*
X85725000Y-122020000D03*
X88265000Y-122020000D03*
X85725000Y-124560000D03*
X88265000Y-124560000D03*
X85725000Y-127100000D03*
X88265000Y-127100000D03*
X85725000Y-129640000D03*
X88265000Y-129640000D03*
X85725000Y-132180000D03*
X88265000Y-132180000D03*
X85725000Y-134720000D03*
X88265000Y-134720000D03*
%TD*%
D19*
%TO.C,R508*%
X109375000Y-102900001D03*
X107725000Y-102900001D03*
%TD*%
%TO.C,R507*%
X109350000Y-104540001D03*
X107700000Y-104540001D03*
%TD*%
%TO.C,R506*%
X109350000Y-109200001D03*
X107700000Y-109200001D03*
%TD*%
%TO.C,R505*%
X109375000Y-110700001D03*
X107725000Y-110700001D03*
%TD*%
%TO.C,R504*%
X112475000Y-102900001D03*
X110825000Y-102900001D03*
%TD*%
%TO.C,R503*%
X112425000Y-106000001D03*
X110775000Y-106000001D03*
%TD*%
%TO.C,R502*%
X112425000Y-109200001D03*
X110775000Y-109200001D03*
%TD*%
%TO.C,R501*%
X112400000Y-112200001D03*
X110750000Y-112200001D03*
%TD*%
%TO.C,R408*%
X109375000Y-122833334D03*
X107725000Y-122833334D03*
%TD*%
%TO.C,R407*%
X109350000Y-124473334D03*
X107700000Y-124473334D03*
%TD*%
%TO.C,R406*%
X109350000Y-129133334D03*
X107700000Y-129133334D03*
%TD*%
%TO.C,R405*%
X109375000Y-130633334D03*
X107725000Y-130633334D03*
%TD*%
%TO.C,R404*%
X112475000Y-122833334D03*
X110825000Y-122833334D03*
%TD*%
%TO.C,R403*%
X112425000Y-125933334D03*
X110775000Y-125933334D03*
%TD*%
%TO.C,R402*%
X112425000Y-129133334D03*
X110775000Y-129133334D03*
%TD*%
%TO.C,R401*%
X112400000Y-132133334D03*
X110750000Y-132133334D03*
%TD*%
%TO.C,R308*%
X109375000Y-142766667D03*
X107725000Y-142766667D03*
%TD*%
%TO.C,R307*%
X109350000Y-144406667D03*
X107700000Y-144406667D03*
%TD*%
%TO.C,R306*%
X109350000Y-149066667D03*
X107700000Y-149066667D03*
%TD*%
%TO.C,R305*%
X109375000Y-150566667D03*
X107725000Y-150566667D03*
%TD*%
%TO.C,R304*%
X112475000Y-142766667D03*
X110825000Y-142766667D03*
%TD*%
%TO.C,R303*%
X112425000Y-145866667D03*
X110775000Y-145866667D03*
%TD*%
%TO.C,R302*%
X112425000Y-149066667D03*
X110775000Y-149066667D03*
%TD*%
%TO.C,R301*%
X112400000Y-152066667D03*
X110750000Y-152066667D03*
%TD*%
D20*
%TO.C,J501*%
X125955000Y-99500001D03*
X125955000Y-112200001D03*
D21*
X123415000Y-102290001D03*
D22*
X121635000Y-103306001D03*
X123415000Y-104322001D03*
X121635000Y-105338001D03*
X123415000Y-106354001D03*
X121635000Y-107370001D03*
X123415000Y-108386001D03*
X121635000Y-109402001D03*
D23*
X122525000Y-97720001D03*
X122525000Y-113980001D03*
%TD*%
D20*
%TO.C,J401*%
X125955000Y-119433334D03*
X125955000Y-132133334D03*
D21*
X123415000Y-122223334D03*
D22*
X121635000Y-123239334D03*
X123415000Y-124255334D03*
X121635000Y-125271334D03*
X123415000Y-126287334D03*
X121635000Y-127303334D03*
X123415000Y-128319334D03*
X121635000Y-129335334D03*
D23*
X122525000Y-117653334D03*
X122525000Y-133913334D03*
%TD*%
D20*
%TO.C,J301*%
X125955000Y-139366667D03*
X125955000Y-152066667D03*
D21*
X123415000Y-142156667D03*
D22*
X121635000Y-143172667D03*
X123415000Y-144188667D03*
X121635000Y-145204667D03*
X123415000Y-146220667D03*
X121635000Y-147236667D03*
X123415000Y-148252667D03*
X121635000Y-149268667D03*
D23*
X122525000Y-137586667D03*
X122525000Y-153846667D03*
%TD*%
D19*
%TO.C,C504*%
X109400000Y-101300001D03*
X107750000Y-101300001D03*
%TD*%
%TO.C,C503*%
X109325000Y-106040001D03*
X107675000Y-106040001D03*
%TD*%
%TO.C,C502*%
X109375000Y-107600001D03*
X107725000Y-107600001D03*
%TD*%
%TO.C,C501*%
X109375000Y-112200001D03*
X107725000Y-112200001D03*
%TD*%
%TO.C,C404*%
X109400000Y-121233334D03*
X107750000Y-121233334D03*
%TD*%
%TO.C,C403*%
X109325000Y-125973334D03*
X107675000Y-125973334D03*
%TD*%
%TO.C,C402*%
X109375000Y-127533334D03*
X107725000Y-127533334D03*
%TD*%
%TO.C,C401*%
X109375000Y-132133334D03*
X107725000Y-132133334D03*
%TD*%
%TO.C,C304*%
X109400000Y-141166667D03*
X107750000Y-141166667D03*
%TD*%
%TO.C,C303*%
X109325000Y-145906667D03*
X107675000Y-145906667D03*
%TD*%
%TO.C,C302*%
X109375000Y-147466667D03*
X107725000Y-147466667D03*
%TD*%
%TO.C,C301*%
X109375000Y-152066667D03*
X107725000Y-152066667D03*
%TD*%
%TO.C,R208*%
X109305000Y-83046667D03*
X107655000Y-83046667D03*
%TD*%
%TO.C,R204*%
X112405000Y-83046667D03*
X110755000Y-83046667D03*
%TD*%
%TO.C,R207*%
X109280000Y-84686667D03*
X107630000Y-84686667D03*
%TD*%
%TO.C,R203*%
X112355000Y-86146667D03*
X110705000Y-86146667D03*
%TD*%
%TO.C,R206*%
X109280000Y-89346667D03*
X107630000Y-89346667D03*
%TD*%
%TO.C,R202*%
X112355000Y-89346667D03*
X110705000Y-89346667D03*
%TD*%
D20*
%TO.C,J201*%
X125885000Y-79646667D03*
X125885000Y-92346667D03*
D21*
X123345000Y-82436667D03*
D22*
X121565000Y-83452667D03*
X123345000Y-84468667D03*
X121565000Y-85484667D03*
X123345000Y-86500667D03*
X121565000Y-87516667D03*
X123345000Y-88532667D03*
X121565000Y-89548667D03*
D23*
X122455000Y-77866667D03*
X122455000Y-94126667D03*
%TD*%
D19*
%TO.C,C204*%
X109330000Y-81446667D03*
X107680000Y-81446667D03*
%TD*%
%TO.C,C203*%
X109255000Y-86186667D03*
X107605000Y-86186667D03*
%TD*%
%TO.C,C202*%
X109305000Y-87746667D03*
X107655000Y-87746667D03*
%TD*%
%TO.C,R205*%
X109305000Y-90846667D03*
X107655000Y-90846667D03*
%TD*%
%TO.C,R201*%
X112330000Y-92346667D03*
X110680000Y-92346667D03*
%TD*%
%TO.C,C201*%
X109305000Y-92346667D03*
X107655000Y-92346667D03*
%TD*%
%LPD*%
M02*
