%TF.GenerationSoftware,KiCad,Pcbnew,8.0.5-8.0.5-0~ubuntu22.04.1*%
%TF.CreationDate,2024-10-05T08:55:46-07:00*%
%TF.ProjectId,pmod_ethernet_la,706d6f64-5f65-4746-9865-726e65745f6c,rev?*%
%TF.SameCoordinates,Original*%
%TF.FileFunction,Soldermask,Top*%
%TF.FilePolarity,Negative*%
%FSLAX46Y46*%
G04 Gerber Fmt 4.6, Leading zero omitted, Abs format (unit mm)*
G04 Created by KiCad (PCBNEW 8.0.5-8.0.5-0~ubuntu22.04.1) date 2024-10-05 08:55:46*
%MOMM*%
%LPD*%
G01*
G04 APERTURE LIST*
G04 Aperture macros list*
%AMRoundRect*
0 Rectangle with rounded corners*
0 $1 Rounding radius*
0 $2 $3 $4 $5 $6 $7 $8 $9 X,Y pos of 4 corners*
0 Add a 4 corners polygon primitive as box body*
4,1,4,$2,$3,$4,$5,$6,$7,$8,$9,$2,$3,0*
0 Add four circle primitives for the rounded corners*
1,1,$1+$1,$2,$3*
1,1,$1+$1,$4,$5*
1,1,$1+$1,$6,$7*
1,1,$1+$1,$8,$9*
0 Add four rect primitives between the rounded corners*
20,1,$1+$1,$2,$3,$4,$5,0*
20,1,$1+$1,$4,$5,$6,$7,0*
20,1,$1+$1,$6,$7,$8,$9,0*
20,1,$1+$1,$8,$9,$2,$3,0*%
G04 Aperture macros list end*
%ADD10RoundRect,0.200000X-0.200000X-0.275000X0.200000X-0.275000X0.200000X0.275000X-0.200000X0.275000X0*%
%ADD11RoundRect,0.200000X0.275000X-0.200000X0.275000X0.200000X-0.275000X0.200000X-0.275000X-0.200000X0*%
%ADD12RoundRect,0.200000X-0.275000X0.200000X-0.275000X-0.200000X0.275000X-0.200000X0.275000X0.200000X0*%
%ADD13R,1.000000X1.000000*%
%ADD14R,2.200000X1.050000*%
%ADD15R,1.700000X1.700000*%
%ADD16O,1.700000X1.700000*%
%ADD17RoundRect,0.200000X0.200000X0.275000X-0.200000X0.275000X-0.200000X-0.275000X0.200000X-0.275000X0*%
%ADD18C,3.250000*%
%ADD19R,1.500000X1.500000*%
%ADD20C,1.500000*%
%ADD21C,2.300000*%
G04 APERTURE END LIST*
D10*
%TO.C,R902*%
X96750000Y-115000001D03*
X98400000Y-115000001D03*
%TD*%
D11*
%TO.C,R901*%
X95250000Y-116625001D03*
X95250000Y-114975001D03*
%TD*%
D10*
%TO.C,R802*%
X96750000Y-109900000D03*
X98400000Y-109900000D03*
%TD*%
D11*
%TO.C,R801*%
X95250000Y-111525000D03*
X95250000Y-109875000D03*
%TD*%
D10*
%TO.C,R702*%
X96800000Y-125375000D03*
X98450000Y-125375000D03*
%TD*%
D12*
%TO.C,R701*%
X95300000Y-125350000D03*
X95300000Y-127000000D03*
%TD*%
D10*
%TO.C,R602*%
X96775000Y-120200000D03*
X98425000Y-120200000D03*
%TD*%
D11*
%TO.C,R601*%
X95275000Y-121825000D03*
X95275000Y-120175000D03*
%TD*%
D13*
%TO.C,J901*%
X100650000Y-115925001D03*
D14*
X102150000Y-114450001D03*
D13*
X103650000Y-115925001D03*
D14*
X102150000Y-117400001D03*
%TD*%
D13*
%TO.C,J801*%
X100650000Y-110825000D03*
D14*
X102150000Y-109350000D03*
D13*
X103650000Y-110825000D03*
D14*
X102150000Y-112300000D03*
%TD*%
D13*
%TO.C,J701*%
X100700000Y-126300000D03*
D14*
X102200000Y-124825000D03*
D13*
X103700000Y-126300000D03*
D14*
X102200000Y-127775000D03*
%TD*%
%TO.C,J601*%
X102175000Y-122600000D03*
D13*
X103675000Y-121125000D03*
D14*
X102175000Y-119650000D03*
D13*
X100675000Y-121125000D03*
%TD*%
D10*
%TO.C,C901*%
X96750000Y-116600001D03*
X98400000Y-116600001D03*
%TD*%
%TO.C,C801*%
X96750000Y-111500000D03*
X98400000Y-111500000D03*
%TD*%
%TO.C,C701*%
X96800000Y-126975000D03*
X98450000Y-126975000D03*
%TD*%
%TO.C,C601*%
X96775000Y-121800000D03*
X98425000Y-121800000D03*
%TD*%
D15*
%TO.C,J102*%
X85725000Y-99160000D03*
D16*
X88265000Y-99160000D03*
X85725000Y-101700000D03*
X88265000Y-101700000D03*
X85725000Y-104240000D03*
X88265000Y-104240000D03*
X85725000Y-106780000D03*
X88265000Y-106780000D03*
X85725000Y-109320000D03*
X88265000Y-109320000D03*
X85725000Y-111860000D03*
X88265000Y-111860000D03*
X85725000Y-114400000D03*
X88265000Y-114400000D03*
X85725000Y-116940000D03*
X88265000Y-116940000D03*
X85725000Y-119480000D03*
X88265000Y-119480000D03*
X85725000Y-122020000D03*
X88265000Y-122020000D03*
X85725000Y-124560000D03*
X88265000Y-124560000D03*
X85725000Y-127100000D03*
X88265000Y-127100000D03*
X85725000Y-129640000D03*
X88265000Y-129640000D03*
X85725000Y-132180000D03*
X88265000Y-132180000D03*
X85725000Y-134720000D03*
X88265000Y-134720000D03*
%TD*%
D17*
%TO.C,R508*%
X109375000Y-102900001D03*
X107725000Y-102900001D03*
%TD*%
%TO.C,R507*%
X109350000Y-104540001D03*
X107700000Y-104540001D03*
%TD*%
%TO.C,R506*%
X109350000Y-109200001D03*
X107700000Y-109200001D03*
%TD*%
%TO.C,R505*%
X109375000Y-110700001D03*
X107725000Y-110700001D03*
%TD*%
%TO.C,R504*%
X112475000Y-102900001D03*
X110825000Y-102900001D03*
%TD*%
%TO.C,R503*%
X112425000Y-106000001D03*
X110775000Y-106000001D03*
%TD*%
%TO.C,R502*%
X112425000Y-109200001D03*
X110775000Y-109200001D03*
%TD*%
%TO.C,R501*%
X112400000Y-112200001D03*
X110750000Y-112200001D03*
%TD*%
%TO.C,R408*%
X109375000Y-122833334D03*
X107725000Y-122833334D03*
%TD*%
%TO.C,R407*%
X109350000Y-124473334D03*
X107700000Y-124473334D03*
%TD*%
%TO.C,R406*%
X109350000Y-129133334D03*
X107700000Y-129133334D03*
%TD*%
%TO.C,R405*%
X109375000Y-130633334D03*
X107725000Y-130633334D03*
%TD*%
%TO.C,R404*%
X112475000Y-122833334D03*
X110825000Y-122833334D03*
%TD*%
%TO.C,R403*%
X112425000Y-125933334D03*
X110775000Y-125933334D03*
%TD*%
%TO.C,R402*%
X112425000Y-129133334D03*
X110775000Y-129133334D03*
%TD*%
%TO.C,R401*%
X112400000Y-132133334D03*
X110750000Y-132133334D03*
%TD*%
%TO.C,R308*%
X109375000Y-142766667D03*
X107725000Y-142766667D03*
%TD*%
%TO.C,R307*%
X109350000Y-144406667D03*
X107700000Y-144406667D03*
%TD*%
%TO.C,R306*%
X109350000Y-149066667D03*
X107700000Y-149066667D03*
%TD*%
%TO.C,R305*%
X109375000Y-150566667D03*
X107725000Y-150566667D03*
%TD*%
%TO.C,R304*%
X112475000Y-142766667D03*
X110825000Y-142766667D03*
%TD*%
%TO.C,R303*%
X112425000Y-145866667D03*
X110775000Y-145866667D03*
%TD*%
%TO.C,R302*%
X112425000Y-149066667D03*
X110775000Y-149066667D03*
%TD*%
%TO.C,R301*%
X112400000Y-152066667D03*
X110750000Y-152066667D03*
%TD*%
D18*
%TO.C,J501*%
X125955000Y-99500001D03*
X125955000Y-112200001D03*
D19*
X123415000Y-102290001D03*
D20*
X121635000Y-103306001D03*
X123415000Y-104322001D03*
X121635000Y-105338001D03*
X123415000Y-106354001D03*
X121635000Y-107370001D03*
X123415000Y-108386001D03*
X121635000Y-109402001D03*
D21*
X122525000Y-97720001D03*
X122525000Y-113980001D03*
%TD*%
D18*
%TO.C,J401*%
X125955000Y-119433334D03*
X125955000Y-132133334D03*
D19*
X123415000Y-122223334D03*
D20*
X121635000Y-123239334D03*
X123415000Y-124255334D03*
X121635000Y-125271334D03*
X123415000Y-126287334D03*
X121635000Y-127303334D03*
X123415000Y-128319334D03*
X121635000Y-129335334D03*
D21*
X122525000Y-117653334D03*
X122525000Y-133913334D03*
%TD*%
D18*
%TO.C,J301*%
X125955000Y-139366667D03*
X125955000Y-152066667D03*
D19*
X123415000Y-142156667D03*
D20*
X121635000Y-143172667D03*
X123415000Y-144188667D03*
X121635000Y-145204667D03*
X123415000Y-146220667D03*
X121635000Y-147236667D03*
X123415000Y-148252667D03*
X121635000Y-149268667D03*
D21*
X122525000Y-137586667D03*
X122525000Y-153846667D03*
%TD*%
D17*
%TO.C,C504*%
X109400000Y-101300001D03*
X107750000Y-101300001D03*
%TD*%
%TO.C,C503*%
X109325000Y-106040001D03*
X107675000Y-106040001D03*
%TD*%
%TO.C,C502*%
X109375000Y-107600001D03*
X107725000Y-107600001D03*
%TD*%
%TO.C,C501*%
X109375000Y-112200001D03*
X107725000Y-112200001D03*
%TD*%
%TO.C,C404*%
X109400000Y-121233334D03*
X107750000Y-121233334D03*
%TD*%
%TO.C,C403*%
X109325000Y-125973334D03*
X107675000Y-125973334D03*
%TD*%
%TO.C,C402*%
X109375000Y-127533334D03*
X107725000Y-127533334D03*
%TD*%
%TO.C,C401*%
X109375000Y-132133334D03*
X107725000Y-132133334D03*
%TD*%
%TO.C,C304*%
X109400000Y-141166667D03*
X107750000Y-141166667D03*
%TD*%
%TO.C,C303*%
X109325000Y-145906667D03*
X107675000Y-145906667D03*
%TD*%
%TO.C,C302*%
X109375000Y-147466667D03*
X107725000Y-147466667D03*
%TD*%
%TO.C,C301*%
X109375000Y-152066667D03*
X107725000Y-152066667D03*
%TD*%
%TO.C,R208*%
X109305000Y-83046667D03*
X107655000Y-83046667D03*
%TD*%
%TO.C,R204*%
X112405000Y-83046667D03*
X110755000Y-83046667D03*
%TD*%
%TO.C,R207*%
X109280000Y-84686667D03*
X107630000Y-84686667D03*
%TD*%
%TO.C,R203*%
X112355000Y-86146667D03*
X110705000Y-86146667D03*
%TD*%
%TO.C,R206*%
X109280000Y-89346667D03*
X107630000Y-89346667D03*
%TD*%
%TO.C,R202*%
X112355000Y-89346667D03*
X110705000Y-89346667D03*
%TD*%
D18*
%TO.C,J201*%
X125885000Y-79646667D03*
X125885000Y-92346667D03*
D19*
X123345000Y-82436667D03*
D20*
X121565000Y-83452667D03*
X123345000Y-84468667D03*
X121565000Y-85484667D03*
X123345000Y-86500667D03*
X121565000Y-87516667D03*
X123345000Y-88532667D03*
X121565000Y-89548667D03*
D21*
X122455000Y-77866667D03*
X122455000Y-94126667D03*
%TD*%
D17*
%TO.C,C204*%
X109330000Y-81446667D03*
X107680000Y-81446667D03*
%TD*%
%TO.C,C203*%
X109255000Y-86186667D03*
X107605000Y-86186667D03*
%TD*%
%TO.C,C202*%
X109305000Y-87746667D03*
X107655000Y-87746667D03*
%TD*%
%TO.C,R205*%
X109305000Y-90846667D03*
X107655000Y-90846667D03*
%TD*%
%TO.C,R201*%
X112330000Y-92346667D03*
X110680000Y-92346667D03*
%TD*%
%TO.C,C201*%
X109305000Y-92346667D03*
X107655000Y-92346667D03*
%TD*%
M02*
