%TF.GenerationSoftware,KiCad,Pcbnew,8.0.5-8.0.5-0~ubuntu22.04.1*%
%TF.CreationDate,2024-10-05T09:37:12-07:00*%
%TF.ProjectId,siglent-la,7369676c-656e-4742-9d6c-612e6b696361,rev?*%
%TF.SameCoordinates,Original*%
%TF.FileFunction,Soldermask,Top*%
%TF.FilePolarity,Negative*%
%FSLAX46Y46*%
G04 Gerber Fmt 4.6, Leading zero omitted, Abs format (unit mm)*
G04 Created by KiCad (PCBNEW 8.0.5-8.0.5-0~ubuntu22.04.1) date 2024-10-05 09:37:12*
%MOMM*%
%LPD*%
G01*
G04 APERTURE LIST*
G04 Aperture macros list*
%AMRoundRect*
0 Rectangle with rounded corners*
0 $1 Rounding radius*
0 $2 $3 $4 $5 $6 $7 $8 $9 X,Y pos of 4 corners*
0 Add a 4 corners polygon primitive as box body*
4,1,4,$2,$3,$4,$5,$6,$7,$8,$9,$2,$3,0*
0 Add four circle primitives for the rounded corners*
1,1,$1+$1,$2,$3*
1,1,$1+$1,$4,$5*
1,1,$1+$1,$6,$7*
1,1,$1+$1,$8,$9*
0 Add four rect primitives between the rounded corners*
20,1,$1+$1,$2,$3,$4,$5,0*
20,1,$1+$1,$4,$5,$6,$7,0*
20,1,$1+$1,$6,$7,$8,$9,0*
20,1,$1+$1,$8,$9,$2,$3,0*%
G04 Aperture macros list end*
%ADD10RoundRect,0.200000X0.275000X-0.200000X0.275000X0.200000X-0.275000X0.200000X-0.275000X-0.200000X0*%
%ADD11RoundRect,0.200000X-0.200000X-0.275000X0.200000X-0.275000X0.200000X0.275000X-0.200000X0.275000X0*%
%ADD12RoundRect,0.200000X0.200000X0.275000X-0.200000X0.275000X-0.200000X-0.275000X0.200000X-0.275000X0*%
%ADD13C,3.650000*%
%ADD14R,1.500000X1.500000*%
%ADD15C,1.500000*%
%ADD16R,0.700000X4.300000*%
%ADD17R,0.700000X3.200000*%
G04 APERTURE END LIST*
D10*
%TO.C,R116*%
X101190000Y-74650000D03*
X101190000Y-76300000D03*
%TD*%
%TO.C,R115*%
X103700000Y-74650000D03*
X103700000Y-76300000D03*
%TD*%
%TO.C,R114*%
X106210000Y-74650000D03*
X106210000Y-76300000D03*
%TD*%
%TO.C,R113*%
X108720000Y-74650000D03*
X108720000Y-76300000D03*
%TD*%
%TO.C,R112*%
X112100000Y-74975000D03*
X112100000Y-76625000D03*
%TD*%
%TO.C,R111*%
X114610000Y-74975000D03*
X114610000Y-76625000D03*
%TD*%
%TO.C,R110*%
X117120000Y-74975000D03*
X117120000Y-76625000D03*
%TD*%
%TO.C,R109*%
X119630000Y-74975000D03*
X119630000Y-76625000D03*
%TD*%
D11*
%TO.C,R108*%
X106900000Y-120000000D03*
X108550000Y-120000000D03*
%TD*%
%TO.C,R107*%
X106900000Y-122510000D03*
X108550000Y-122510000D03*
%TD*%
%TO.C,R106*%
X106925000Y-124700000D03*
X108575000Y-124700000D03*
%TD*%
D12*
%TO.C,R105*%
X110780000Y-126477500D03*
X112430000Y-126477500D03*
%TD*%
%TO.C,R104*%
X112430000Y-123967500D03*
X110780000Y-123967500D03*
%TD*%
%TO.C,R103*%
X112430000Y-121457500D03*
X110780000Y-121457500D03*
%TD*%
%TO.C,R102*%
X112430000Y-118947500D03*
X110780000Y-118947500D03*
%TD*%
D11*
%TO.C,R101*%
X108550000Y-127400000D03*
X106900000Y-127400000D03*
%TD*%
D13*
%TO.C,J104*%
X95600000Y-100500000D03*
X95600000Y-111930000D03*
D14*
X101950000Y-101770000D03*
D15*
X104490000Y-103040000D03*
X101950000Y-104310000D03*
X104490000Y-105580000D03*
X101950000Y-106850000D03*
X104490000Y-108120000D03*
X101950000Y-109390000D03*
X104490000Y-110660000D03*
%TD*%
D13*
%TO.C,J103*%
X124170000Y-111997500D03*
X124170000Y-100567500D03*
D14*
X117820000Y-110727500D03*
D15*
X115280000Y-109457500D03*
X117820000Y-108187500D03*
X115280000Y-106917500D03*
X117820000Y-105647500D03*
X115280000Y-104377500D03*
X117820000Y-103107500D03*
X115280000Y-101837500D03*
%TD*%
D13*
%TO.C,J102*%
X95490000Y-117190000D03*
X95490000Y-128620000D03*
D14*
X101840000Y-118460000D03*
D15*
X104380000Y-119730000D03*
X101840000Y-121000000D03*
X104380000Y-122270000D03*
X101840000Y-123540000D03*
X104380000Y-124810000D03*
X101840000Y-126080000D03*
X104380000Y-127350000D03*
%TD*%
D13*
%TO.C,J101*%
X124170000Y-128697500D03*
X124170000Y-117267500D03*
D14*
X117820000Y-127427500D03*
D15*
X115280000Y-126157500D03*
X117820000Y-124887500D03*
X115280000Y-123617500D03*
X117820000Y-122347500D03*
X115280000Y-121077500D03*
X117820000Y-119807500D03*
X115280000Y-118537500D03*
%TD*%
D16*
%TO.C,J1*%
X101400000Y-67000000D03*
D17*
X102400000Y-67550000D03*
D16*
X103400000Y-67000000D03*
X104400000Y-67000000D03*
X105400000Y-67000000D03*
X106400000Y-67000000D03*
X107400000Y-67000000D03*
X110400000Y-67000000D03*
X111400000Y-67000000D03*
X112400000Y-67000000D03*
X113400000Y-67000000D03*
X114400000Y-67000000D03*
X115400000Y-67000000D03*
X116400000Y-67000000D03*
X117400000Y-67000000D03*
X118400000Y-67000000D03*
X119400000Y-67000000D03*
X120400000Y-67000000D03*
%TD*%
M02*
