%TF.GenerationSoftware,KiCad,Pcbnew,8.0.5-8.0.5-0~ubuntu22.04.1*%
%TF.CreationDate,2024-10-05T09:37:12-07:00*%
%TF.ProjectId,siglent-la,7369676c-656e-4742-9d6c-612e6b696361,rev?*%
%TF.SameCoordinates,Original*%
%TF.FileFunction,Copper,L4,Bot*%
%TF.FilePolarity,Positive*%
%FSLAX46Y46*%
G04 Gerber Fmt 4.6, Leading zero omitted, Abs format (unit mm)*
G04 Created by KiCad (PCBNEW 8.0.5-8.0.5-0~ubuntu22.04.1) date 2024-10-05 09:37:12*
%MOMM*%
%LPD*%
G01*
G04 APERTURE LIST*
%TA.AperFunction,WasherPad*%
%ADD10C,3.650000*%
%TD*%
%TA.AperFunction,ComponentPad*%
%ADD11R,1.500000X1.500000*%
%TD*%
%TA.AperFunction,ComponentPad*%
%ADD12C,1.500000*%
%TD*%
%TA.AperFunction,ConnectorPad*%
%ADD13R,0.700000X4.300000*%
%TD*%
%TA.AperFunction,ConnectorPad*%
%ADD14R,0.700000X3.200000*%
%TD*%
%TA.AperFunction,ViaPad*%
%ADD15C,0.800000*%
%TD*%
%TA.AperFunction,Conductor*%
%ADD16C,0.500000*%
%TD*%
G04 APERTURE END LIST*
D10*
%TO.P,J104,*%
%TO.N,*%
X95600000Y-100500000D03*
X95600000Y-111930000D03*
D11*
%TO.P,J104,1*%
%TO.N,/d.DATA_3*%
X101950000Y-101770000D03*
D12*
%TO.P,J104,2*%
%TO.N,GND*%
X104490000Y-103040000D03*
%TO.P,J104,3*%
%TO.N,/d.DATA_2*%
X101950000Y-104310000D03*
%TO.P,J104,4*%
%TO.N,GND*%
X104490000Y-105580000D03*
%TO.P,J104,5*%
%TO.N,/d.DATA_1*%
X101950000Y-106850000D03*
%TO.P,J104,6*%
%TO.N,GND*%
X104490000Y-108120000D03*
%TO.P,J104,7*%
%TO.N,/d.DATA_0*%
X101950000Y-109390000D03*
%TO.P,J104,8*%
%TO.N,GND*%
X104490000Y-110660000D03*
%TD*%
D10*
%TO.P,J103,*%
%TO.N,*%
X124170000Y-111997500D03*
X124170000Y-100567500D03*
D11*
%TO.P,J103,1*%
%TO.N,/c.DATA_3*%
X117820000Y-110727500D03*
D12*
%TO.P,J103,2*%
%TO.N,GND*%
X115280000Y-109457500D03*
%TO.P,J103,3*%
%TO.N,/c.DATA_2*%
X117820000Y-108187500D03*
%TO.P,J103,4*%
%TO.N,GND*%
X115280000Y-106917500D03*
%TO.P,J103,5*%
%TO.N,/c.DATA_1*%
X117820000Y-105647500D03*
%TO.P,J103,6*%
%TO.N,GND*%
X115280000Y-104377500D03*
%TO.P,J103,7*%
%TO.N,/c.DATA_0*%
X117820000Y-103107500D03*
%TO.P,J103,8*%
%TO.N,GND*%
X115280000Y-101837500D03*
%TD*%
D10*
%TO.P,J102,*%
%TO.N,*%
X95490000Y-117190000D03*
X95490000Y-128620000D03*
D11*
%TO.P,J102,1*%
%TO.N,GND*%
X101840000Y-118460000D03*
D12*
%TO.P,J102,2*%
%TO.N,Net-(J102-Pad2)*%
X104380000Y-119730000D03*
%TO.P,J102,3*%
%TO.N,GND*%
X101840000Y-121000000D03*
%TO.P,J102,4*%
%TO.N,Net-(J102-Pad4)*%
X104380000Y-122270000D03*
%TO.P,J102,5*%
%TO.N,GND*%
X101840000Y-123540000D03*
%TO.P,J102,6*%
%TO.N,Net-(J102-Pad6)*%
X104380000Y-124810000D03*
%TO.P,J102,7*%
%TO.N,GND*%
X101840000Y-126080000D03*
%TO.P,J102,8*%
%TO.N,Net-(J102-Pad8)*%
X104380000Y-127350000D03*
%TD*%
D10*
%TO.P,J101,*%
%TO.N,*%
X124170000Y-128697500D03*
X124170000Y-117267500D03*
D11*
%TO.P,J101,1*%
%TO.N,GND*%
X117820000Y-127427500D03*
D12*
%TO.P,J101,2*%
%TO.N,Net-(J101-Pad2)*%
X115280000Y-126157500D03*
%TO.P,J101,3*%
%TO.N,GND*%
X117820000Y-124887500D03*
%TO.P,J101,4*%
%TO.N,Net-(J101-Pad4)*%
X115280000Y-123617500D03*
%TO.P,J101,5*%
%TO.N,GND*%
X117820000Y-122347500D03*
%TO.P,J101,6*%
%TO.N,Net-(J101-Pad6)*%
X115280000Y-121077500D03*
%TO.P,J101,7*%
%TO.N,GND*%
X117820000Y-119807500D03*
%TO.P,J101,8*%
%TO.N,Net-(J101-Pad8)*%
X115280000Y-118537500D03*
%TD*%
D13*
%TO.P,J1,A18,GND*%
%TO.N,/a.DATA_0*%
X101400000Y-67000000D03*
%TO.P,J1,A17,PERn0*%
%TO.N,GND*%
X102400000Y-67000000D03*
%TO.P,J1,A16,PERp0*%
%TO.N,/a.DATA_1*%
X103400000Y-67000000D03*
%TO.P,J1,A15,GND*%
%TO.N,GND*%
X104400000Y-67000000D03*
%TO.P,J1,A14,REFCLK-*%
%TO.N,/a.DATA_2*%
X105400000Y-67000000D03*
%TO.P,J1,A13,REFCLK+*%
%TO.N,GND*%
X106400000Y-67000000D03*
%TO.P,J1,A12,GND*%
%TO.N,/a.DATA_3*%
X107400000Y-67000000D03*
%TO.P,J1,A11,~{PERST}*%
%TO.N,GND*%
X110400000Y-67000000D03*
%TO.P,J1,A10,+3.3V*%
%TO.N,/b.DATA_0*%
X111400000Y-67000000D03*
%TO.P,J1,A9,+3.3V*%
%TO.N,GND*%
X112400000Y-67000000D03*
%TO.P,J1,A8,JTAG5*%
%TO.N,/b.DATA_1*%
X113400000Y-67000000D03*
%TO.P,J1,A7,JTAG4*%
%TO.N,GND*%
X114400000Y-67000000D03*
%TO.P,J1,A6,JTAG3*%
%TO.N,/b.DATA_2*%
X115400000Y-67000000D03*
%TO.P,J1,A5,JTAG2*%
%TO.N,GND*%
X116400000Y-67000000D03*
%TO.P,J1,A4,GND*%
%TO.N,/b.DATA_3*%
X117400000Y-67000000D03*
%TO.P,J1,A3,+12V*%
%TO.N,GND*%
X118400000Y-67000000D03*
%TO.P,J1,A2,+12V*%
%TO.N,unconnected-(J1-+12V-PadA2)*%
X119400000Y-67000000D03*
D14*
%TO.P,J1,A1,~{PRSNT1}*%
%TO.N,GND*%
X120400000Y-67550000D03*
%TD*%
D15*
%TO.N,/a.DATA_3*%
X108500000Y-118700000D03*
%TO.N,/a.DATA_2*%
X108600000Y-121300000D03*
%TO.N,/a.DATA_1*%
X108600000Y-123700000D03*
%TO.N,/a.DATA_0*%
X108700000Y-126100000D03*
%TO.N,GND*%
X102500000Y-70500000D03*
X110500000Y-70250000D03*
X106500000Y-70500000D03*
X116400000Y-70150000D03*
X112500000Y-70250000D03*
X118500000Y-70250000D03*
X104500000Y-70500000D03*
X114500000Y-70250000D03*
X120250000Y-70250000D03*
%TO.N,/b.DATA_0*%
X110780000Y-117800000D03*
%TO.N,/b.DATA_2*%
X110800000Y-122800000D03*
%TO.N,/b.DATA_1*%
X110800000Y-120500000D03*
%TO.N,/b.DATA_3*%
X110700000Y-125300000D03*
%TD*%
D16*
%TO.N,/a.DATA_0*%
X108700000Y-126100000D02*
X106200000Y-123600000D01*
X106200000Y-123600000D02*
X106200000Y-86379900D01*
X106200000Y-86379900D02*
X101400000Y-81579900D01*
X101400000Y-81579900D02*
X101400000Y-67000000D01*
%TO.N,/a.DATA_1*%
X108600000Y-123700000D02*
X106900000Y-122000000D01*
X106900000Y-122000000D02*
X106900000Y-86089950D01*
X106900000Y-86089950D02*
X103400000Y-82589950D01*
X103400000Y-82589950D02*
X103400000Y-67000000D01*
%TO.N,/a.DATA_2*%
X107650000Y-86150000D02*
X107800000Y-86000000D01*
X107650000Y-120350000D02*
X107650000Y-86150000D01*
X108600000Y-121300000D02*
X107650000Y-120350000D01*
X107800000Y-86000000D02*
X105400000Y-83600000D01*
X105400000Y-83600000D02*
X105400000Y-67000000D01*
%TO.N,/a.DATA_3*%
X108500000Y-118700000D02*
X108500000Y-83000000D01*
X108500000Y-83000000D02*
X107400000Y-81900000D01*
X107400000Y-81900000D02*
X107400000Y-67000000D01*
%TO.N,/b.DATA_3*%
X110700000Y-125300000D02*
X113800000Y-122200000D01*
X113800000Y-122200000D02*
X113800000Y-81900000D01*
X113800000Y-81900000D02*
X117400000Y-78300000D01*
X117400000Y-78300000D02*
X117400000Y-67000000D01*
%TO.N,/b.DATA_2*%
X110800000Y-122800000D02*
X113000000Y-120600000D01*
X113000000Y-79600000D02*
X115400000Y-77200000D01*
X113000000Y-120600000D02*
X113000000Y-79600000D01*
X115400000Y-77200000D02*
X115400000Y-67000000D01*
%TO.N,/b.DATA_1*%
X112300000Y-119000000D02*
X112300000Y-78200000D01*
X110800000Y-120500000D02*
X112300000Y-119000000D01*
X112300000Y-78200000D02*
X113400000Y-77100000D01*
X113400000Y-77100000D02*
X113400000Y-67000000D01*
%TO.N,/b.DATA_0*%
X110780000Y-117800000D02*
X111400000Y-117180000D01*
X111400000Y-117180000D02*
X111400000Y-67000000D01*
%TD*%
%TA.AperFunction,Conductor*%
%TO.N,GND*%
G36*
X120992121Y-64520002D02*
G01*
X121038614Y-64573658D01*
X121050000Y-64626000D01*
X121050000Y-65338235D01*
X121029998Y-65406356D01*
X120976342Y-65452849D01*
X120906068Y-65462953D01*
X120879968Y-65456291D01*
X120859094Y-65448505D01*
X120798597Y-65442000D01*
X120654000Y-65442000D01*
X120654000Y-69658000D01*
X120798585Y-69658000D01*
X120798597Y-69657999D01*
X120859094Y-69651494D01*
X120879964Y-69643710D01*
X120950780Y-69638643D01*
X121013093Y-69672666D01*
X121047120Y-69734977D01*
X121050000Y-69761764D01*
X121050000Y-71950000D01*
X121471519Y-72465190D01*
X121499175Y-72530578D01*
X121500000Y-72544977D01*
X121500000Y-97600000D01*
X131574000Y-97600000D01*
X131642121Y-97620002D01*
X131688614Y-97673658D01*
X131700000Y-97726000D01*
X131700000Y-131473709D01*
X131679998Y-131541830D01*
X131626342Y-131588323D01*
X131573710Y-131599709D01*
X88325710Y-131500288D01*
X88257636Y-131480129D01*
X88211266Y-131426367D01*
X88200000Y-131374288D01*
X88200000Y-128619996D01*
X93151493Y-128619996D01*
X93151493Y-128620003D01*
X93171498Y-128925231D01*
X93171500Y-128925245D01*
X93231176Y-129225248D01*
X93231178Y-129225258D01*
X93329498Y-129514900D01*
X93329504Y-129514914D01*
X93464792Y-129789251D01*
X93634731Y-130043584D01*
X93634734Y-130043588D01*
X93836425Y-130273574D01*
X93982063Y-130401294D01*
X94066407Y-130475262D01*
X94066409Y-130475263D01*
X94066411Y-130475265D01*
X94066415Y-130475268D01*
X94182394Y-130552762D01*
X94320746Y-130645206D01*
X94595092Y-130780499D01*
X94884750Y-130878824D01*
X95184764Y-130938501D01*
X95359184Y-130949933D01*
X95489997Y-130958507D01*
X95490000Y-130958507D01*
X95490003Y-130958507D01*
X95604463Y-130951004D01*
X95795236Y-130938501D01*
X96095250Y-130878824D01*
X96384908Y-130780499D01*
X96659254Y-130645206D01*
X96913593Y-130475262D01*
X97143574Y-130273574D01*
X97345262Y-130043593D01*
X97515206Y-129789254D01*
X97650499Y-129514908D01*
X97748824Y-129225250D01*
X97808501Y-128925236D01*
X97823427Y-128697503D01*
X97823427Y-128697496D01*
X121831493Y-128697496D01*
X121831493Y-128697503D01*
X121851498Y-129002731D01*
X121851500Y-129002745D01*
X121911176Y-129302748D01*
X121911178Y-129302758D01*
X122009498Y-129592400D01*
X122009504Y-129592414D01*
X122144792Y-129866751D01*
X122314731Y-130121084D01*
X122314734Y-130121088D01*
X122516425Y-130351074D01*
X122658035Y-130475262D01*
X122746407Y-130552762D01*
X122746409Y-130552763D01*
X122746411Y-130552765D01*
X122746415Y-130552768D01*
X122914417Y-130665023D01*
X123000746Y-130722706D01*
X123275092Y-130857999D01*
X123564750Y-130956324D01*
X123864764Y-131016001D01*
X124039184Y-131027433D01*
X124169997Y-131036007D01*
X124170000Y-131036007D01*
X124170003Y-131036007D01*
X124284463Y-131028504D01*
X124475236Y-131016001D01*
X124775250Y-130956324D01*
X125064908Y-130857999D01*
X125339254Y-130722706D01*
X125593593Y-130552762D01*
X125823574Y-130351074D01*
X126025262Y-130121093D01*
X126195206Y-129866754D01*
X126330499Y-129592408D01*
X126428824Y-129302750D01*
X126488501Y-129002736D01*
X126508507Y-128697500D01*
X126507720Y-128685500D01*
X126497995Y-128537118D01*
X126488501Y-128392264D01*
X126428824Y-128092250D01*
X126330499Y-127802592D01*
X126195206Y-127528247D01*
X126025262Y-127273907D01*
X125823574Y-127043926D01*
X125823571Y-127043924D01*
X125823570Y-127043922D01*
X125593588Y-126842234D01*
X125593584Y-126842231D01*
X125339251Y-126672292D01*
X125064914Y-126537004D01*
X125064908Y-126537001D01*
X125064903Y-126536999D01*
X125064900Y-126536998D01*
X124775258Y-126438678D01*
X124775252Y-126438676D01*
X124775250Y-126438676D01*
X124674789Y-126418693D01*
X124475245Y-126379000D01*
X124475231Y-126378998D01*
X124170003Y-126358993D01*
X124169997Y-126358993D01*
X123864768Y-126378998D01*
X123864754Y-126379000D01*
X123614980Y-126428684D01*
X123564750Y-126438676D01*
X123564748Y-126438676D01*
X123564741Y-126438678D01*
X123275099Y-126536998D01*
X123275091Y-126537001D01*
X123000741Y-126672297D01*
X122746409Y-126842236D01*
X122516426Y-127043926D01*
X122314736Y-127273909D01*
X122144797Y-127528241D01*
X122009501Y-127802591D01*
X122009498Y-127802599D01*
X121911178Y-128092241D01*
X121911176Y-128092251D01*
X121851500Y-128392254D01*
X121851498Y-128392268D01*
X121831493Y-128697496D01*
X97823427Y-128697496D01*
X97828507Y-128620003D01*
X97828507Y-128619996D01*
X97816975Y-128444056D01*
X97808501Y-128314764D01*
X97748824Y-128014750D01*
X97737589Y-127981654D01*
X97676809Y-127802599D01*
X97650499Y-127725092D01*
X97515206Y-127450747D01*
X97345262Y-127196407D01*
X97143574Y-126966426D01*
X97143571Y-126966424D01*
X97143570Y-126966422D01*
X96941434Y-126789154D01*
X96913593Y-126764738D01*
X96913591Y-126764736D01*
X96913588Y-126764734D01*
X96913584Y-126764731D01*
X96659251Y-126594792D01*
X96384914Y-126459504D01*
X96384908Y-126459501D01*
X96384903Y-126459499D01*
X96384900Y-126459498D01*
X96095258Y-126361178D01*
X96095252Y-126361176D01*
X96095250Y-126361176D01*
X95994789Y-126341193D01*
X95795245Y-126301500D01*
X95795231Y-126301498D01*
X95490003Y-126281493D01*
X95489997Y-126281493D01*
X95184768Y-126301498D01*
X95184754Y-126301500D01*
X94934980Y-126351184D01*
X94884750Y-126361176D01*
X94884748Y-126361176D01*
X94884741Y-126361178D01*
X94595099Y-126459498D01*
X94595091Y-126459501D01*
X94320741Y-126594797D01*
X94066409Y-126764736D01*
X93836426Y-126966426D01*
X93634736Y-127196409D01*
X93464797Y-127450741D01*
X93329501Y-127725091D01*
X93329498Y-127725099D01*
X93231178Y-128014741D01*
X93231176Y-128014751D01*
X93171500Y-128314754D01*
X93171498Y-128314768D01*
X93151493Y-128619996D01*
X88200000Y-128619996D01*
X88200000Y-117189996D01*
X93151493Y-117189996D01*
X93151493Y-117190003D01*
X93171498Y-117495231D01*
X93171500Y-117495245D01*
X93231176Y-117795248D01*
X93231178Y-117795258D01*
X93329498Y-118084900D01*
X93329504Y-118084914D01*
X93464792Y-118359251D01*
X93634731Y-118613584D01*
X93634734Y-118613588D01*
X93634736Y-118613591D01*
X93634738Y-118613593D01*
X93683147Y-118668793D01*
X93836425Y-118843574D01*
X93977323Y-118967137D01*
X94066407Y-119045262D01*
X94066409Y-119045263D01*
X94066411Y-119045265D01*
X94066415Y-119045268D01*
X94145854Y-119098347D01*
X94320746Y-119215206D01*
X94595092Y-119350499D01*
X94884750Y-119448824D01*
X95184764Y-119508501D01*
X95359184Y-119519933D01*
X95489997Y-119528507D01*
X95490000Y-119528507D01*
X95490003Y-119528507D01*
X95604463Y-119521004D01*
X95795236Y-119508501D01*
X96095250Y-119448824D01*
X96384908Y-119350499D01*
X96659254Y-119215206D01*
X96913593Y-119045262D01*
X97143574Y-118843574D01*
X97345262Y-118613593D01*
X97515206Y-118359254D01*
X97650499Y-118084908D01*
X97748824Y-117795250D01*
X97808501Y-117495236D01*
X97823427Y-117267503D01*
X97828507Y-117190003D01*
X97828507Y-117189996D01*
X97813581Y-116962268D01*
X97808501Y-116884764D01*
X97748824Y-116584750D01*
X97650499Y-116295092D01*
X97515206Y-116020747D01*
X97345262Y-115766407D01*
X97143574Y-115536426D01*
X97143571Y-115536424D01*
X97143570Y-115536422D01*
X96913588Y-115334734D01*
X96913584Y-115334731D01*
X96659251Y-115164792D01*
X96384914Y-115029504D01*
X96384908Y-115029501D01*
X96384903Y-115029499D01*
X96384900Y-115029498D01*
X96095258Y-114931178D01*
X96095252Y-114931176D01*
X96095250Y-114931176D01*
X95994789Y-114911193D01*
X95795245Y-114871500D01*
X95795231Y-114871498D01*
X95490003Y-114851493D01*
X95489997Y-114851493D01*
X95184768Y-114871498D01*
X95184754Y-114871500D01*
X94934980Y-114921184D01*
X94884750Y-114931176D01*
X94884748Y-114931176D01*
X94884741Y-114931178D01*
X94595099Y-115029498D01*
X94595091Y-115029501D01*
X94320741Y-115164797D01*
X94066409Y-115334736D01*
X93836426Y-115536426D01*
X93634736Y-115766409D01*
X93464797Y-116020741D01*
X93329501Y-116295091D01*
X93329498Y-116295099D01*
X93231178Y-116584741D01*
X93231176Y-116584751D01*
X93171500Y-116884754D01*
X93171498Y-116884768D01*
X93151493Y-117189996D01*
X88200000Y-117189996D01*
X88200000Y-111929996D01*
X93261493Y-111929996D01*
X93261493Y-111930003D01*
X93281498Y-112235231D01*
X93281500Y-112235245D01*
X93341176Y-112535248D01*
X93341178Y-112535258D01*
X93439498Y-112824900D01*
X93439504Y-112824914D01*
X93574792Y-113099251D01*
X93744731Y-113353584D01*
X93744734Y-113353588D01*
X93946425Y-113583574D01*
X94092063Y-113711294D01*
X94176407Y-113785262D01*
X94176409Y-113785263D01*
X94176411Y-113785265D01*
X94176415Y-113785268D01*
X94344417Y-113897523D01*
X94430746Y-113955206D01*
X94705092Y-114090499D01*
X94994750Y-114188824D01*
X95294764Y-114248501D01*
X95469184Y-114259933D01*
X95599997Y-114268507D01*
X95600000Y-114268507D01*
X95600003Y-114268507D01*
X95714463Y-114261004D01*
X95905236Y-114248501D01*
X96205250Y-114188824D01*
X96494908Y-114090499D01*
X96769254Y-113955206D01*
X97023593Y-113785262D01*
X97253574Y-113583574D01*
X97455262Y-113353593D01*
X97625206Y-113099254D01*
X97760499Y-112824908D01*
X97858824Y-112535250D01*
X97918501Y-112235236D01*
X97935263Y-111979489D01*
X97938507Y-111930003D01*
X97938507Y-111929996D01*
X97924986Y-111723702D01*
X97918501Y-111624764D01*
X97858824Y-111324750D01*
X97760499Y-111035092D01*
X97625206Y-110760747D01*
X97455262Y-110506407D01*
X97253574Y-110276426D01*
X97253571Y-110276424D01*
X97253570Y-110276422D01*
X97023588Y-110074734D01*
X97023584Y-110074731D01*
X96769251Y-109904792D01*
X96494914Y-109769504D01*
X96494908Y-109769501D01*
X96494903Y-109769499D01*
X96494900Y-109769498D01*
X96205258Y-109671178D01*
X96205252Y-109671176D01*
X96205250Y-109671176D01*
X96104789Y-109651193D01*
X95905245Y-109611500D01*
X95905231Y-109611498D01*
X95600003Y-109591493D01*
X95599997Y-109591493D01*
X95294768Y-109611498D01*
X95294754Y-109611500D01*
X95044980Y-109661184D01*
X94994750Y-109671176D01*
X94994748Y-109671176D01*
X94994741Y-109671178D01*
X94705099Y-109769498D01*
X94705091Y-109769501D01*
X94430741Y-109904797D01*
X94176409Y-110074736D01*
X93946426Y-110276426D01*
X93744736Y-110506409D01*
X93574797Y-110760741D01*
X93439501Y-111035091D01*
X93439498Y-111035099D01*
X93341178Y-111324741D01*
X93341176Y-111324751D01*
X93281500Y-111624754D01*
X93281498Y-111624768D01*
X93261493Y-111929996D01*
X88200000Y-111929996D01*
X88200000Y-100499996D01*
X93261493Y-100499996D01*
X93261493Y-100500003D01*
X93281498Y-100805231D01*
X93281500Y-100805245D01*
X93341176Y-101105248D01*
X93341178Y-101105258D01*
X93439498Y-101394900D01*
X93439504Y-101394914D01*
X93574792Y-101669251D01*
X93744731Y-101923584D01*
X93744734Y-101923588D01*
X93946425Y-102153574D01*
X94064170Y-102256833D01*
X94176407Y-102355262D01*
X94176409Y-102355263D01*
X94176411Y-102355265D01*
X94176415Y-102355268D01*
X94344417Y-102467523D01*
X94430746Y-102525206D01*
X94705092Y-102660499D01*
X94994750Y-102758824D01*
X95294764Y-102818501D01*
X95469184Y-102829933D01*
X95599997Y-102838507D01*
X95600000Y-102838507D01*
X95600003Y-102838507D01*
X95714463Y-102831004D01*
X95905236Y-102818501D01*
X96205250Y-102758824D01*
X96494908Y-102660499D01*
X96769254Y-102525206D01*
X97023593Y-102355262D01*
X97253574Y-102153574D01*
X97455262Y-101923593D01*
X97625206Y-101669254D01*
X97760499Y-101394908D01*
X97858824Y-101105250D01*
X97918501Y-100805236D01*
X97938507Y-100500000D01*
X97918501Y-100194764D01*
X97858824Y-99894750D01*
X97760499Y-99605092D01*
X97625206Y-99330747D01*
X97455262Y-99076407D01*
X97253574Y-98846426D01*
X97253571Y-98846424D01*
X97253570Y-98846422D01*
X97023588Y-98644734D01*
X97023584Y-98644731D01*
X96769251Y-98474792D01*
X96494914Y-98339504D01*
X96494908Y-98339501D01*
X96494903Y-98339499D01*
X96494900Y-98339498D01*
X96205258Y-98241178D01*
X96205252Y-98241176D01*
X96205250Y-98241176D01*
X96104789Y-98221193D01*
X95905245Y-98181500D01*
X95905231Y-98181498D01*
X95600003Y-98161493D01*
X95599997Y-98161493D01*
X95294768Y-98181498D01*
X95294754Y-98181500D01*
X95044980Y-98231184D01*
X94994750Y-98241176D01*
X94994748Y-98241176D01*
X94994741Y-98241178D01*
X94705099Y-98339498D01*
X94705091Y-98339501D01*
X94430741Y-98474797D01*
X94176409Y-98644736D01*
X93946426Y-98846426D01*
X93744736Y-99076409D01*
X93574797Y-99330741D01*
X93439501Y-99605091D01*
X93439498Y-99605099D01*
X93341178Y-99894741D01*
X93341176Y-99894751D01*
X93281500Y-100194754D01*
X93281498Y-100194768D01*
X93261493Y-100499996D01*
X88200000Y-100499996D01*
X88200000Y-97726000D01*
X88220002Y-97657879D01*
X88273658Y-97611386D01*
X88326000Y-97600000D01*
X100000000Y-97600000D01*
X100000000Y-72563849D01*
X100020002Y-72495728D01*
X100051488Y-72462242D01*
X100440990Y-72176607D01*
X100507749Y-72152454D01*
X100576972Y-72168228D01*
X100626677Y-72218922D01*
X100641500Y-72278215D01*
X100641500Y-81654611D01*
X100653645Y-81715664D01*
X100656074Y-81727876D01*
X100670649Y-81801147D01*
X100727826Y-81939184D01*
X100810834Y-82063415D01*
X100810838Y-82063419D01*
X105404595Y-86657176D01*
X105438621Y-86719488D01*
X105441500Y-86746271D01*
X105441500Y-101928469D01*
X105421498Y-101996590D01*
X105367842Y-102043083D01*
X105297568Y-102053187D01*
X105243230Y-102031683D01*
X105121398Y-101946376D01*
X104921907Y-101853352D01*
X104921903Y-101853350D01*
X104709287Y-101796380D01*
X104490000Y-101777195D01*
X104270712Y-101796380D01*
X104058096Y-101853350D01*
X104058092Y-101853352D01*
X103858598Y-101946378D01*
X103798011Y-101988801D01*
X104405877Y-102596666D01*
X104316306Y-102620667D01*
X104213694Y-102679910D01*
X104129910Y-102763694D01*
X104070667Y-102866306D01*
X104046666Y-102955875D01*
X103438801Y-102348010D01*
X103437714Y-102349564D01*
X103382257Y-102393893D01*
X103311638Y-102401203D01*
X103248277Y-102369172D01*
X103212292Y-102307971D01*
X103208500Y-102277294D01*
X103208500Y-100971367D01*
X103208499Y-100971350D01*
X103201990Y-100910803D01*
X103201988Y-100910795D01*
X103162619Y-100805245D01*
X103150889Y-100773796D01*
X103150888Y-100773794D01*
X103150887Y-100773792D01*
X103063261Y-100656738D01*
X102946207Y-100569112D01*
X102946202Y-100569110D01*
X102809204Y-100518011D01*
X102809196Y-100518009D01*
X102748649Y-100511500D01*
X102748638Y-100511500D01*
X101151362Y-100511500D01*
X101151350Y-100511500D01*
X101090803Y-100518009D01*
X101090795Y-100518011D01*
X100953797Y-100569110D01*
X100953792Y-100569112D01*
X100836738Y-100656738D01*
X100749112Y-100773792D01*
X100749110Y-100773797D01*
X100698011Y-100910795D01*
X100698009Y-100910803D01*
X100691500Y-100971350D01*
X100691500Y-102568649D01*
X100698009Y-102629196D01*
X100698011Y-102629204D01*
X100749110Y-102766202D01*
X100749112Y-102766207D01*
X100836738Y-102883261D01*
X100953792Y-102970887D01*
X100953794Y-102970888D01*
X100953796Y-102970889D01*
X101012875Y-102992924D01*
X101090795Y-103021988D01*
X101090803Y-103021990D01*
X101151350Y-103028499D01*
X101151355Y-103028499D01*
X101151362Y-103028500D01*
X101151368Y-103028500D01*
X101186423Y-103028500D01*
X101254544Y-103048502D01*
X101301037Y-103102158D01*
X101311141Y-103172432D01*
X101281647Y-103237012D01*
X101258694Y-103257713D01*
X101137965Y-103342248D01*
X101137959Y-103342253D01*
X100982253Y-103497959D01*
X100982248Y-103497965D01*
X100855944Y-103678346D01*
X100762881Y-103877920D01*
X100762879Y-103877926D01*
X100725504Y-104017410D01*
X100705885Y-104090629D01*
X100686693Y-104310000D01*
X100705885Y-104529371D01*
X100717223Y-104571683D01*
X100762879Y-104742073D01*
X100762881Y-104742079D01*
X100855942Y-104941650D01*
X100855944Y-104941654D01*
X100907895Y-105015847D01*
X100982251Y-105122038D01*
X100982254Y-105122042D01*
X101137957Y-105277745D01*
X101137961Y-105277748D01*
X101137962Y-105277749D01*
X101318346Y-105404056D01*
X101423219Y-105452958D01*
X101450768Y-105465805D01*
X101504053Y-105512722D01*
X101523514Y-105580999D01*
X101502972Y-105648959D01*
X101450768Y-105694195D01*
X101318346Y-105755944D01*
X101137965Y-105882248D01*
X101137959Y-105882253D01*
X100982253Y-106037959D01*
X100982248Y-106037965D01*
X100855944Y-106218346D01*
X100762881Y-106417920D01*
X100762879Y-106417926D01*
X100725504Y-106557410D01*
X100705885Y-106630629D01*
X100686693Y-106850000D01*
X100705885Y-107069371D01*
X100717223Y-107111683D01*
X100762879Y-107282073D01*
X100762881Y-107282079D01*
X100855942Y-107481650D01*
X100855944Y-107481654D01*
X100907895Y-107555847D01*
X100982251Y-107662038D01*
X100982254Y-107662042D01*
X101137957Y-107817745D01*
X101137961Y-107817748D01*
X101137962Y-107817749D01*
X101318346Y-107944056D01*
X101423219Y-107992958D01*
X101450768Y-108005805D01*
X101504053Y-108052722D01*
X101523514Y-108120999D01*
X101502972Y-108188959D01*
X101450768Y-108234195D01*
X101318346Y-108295944D01*
X101137965Y-108422248D01*
X101137959Y-108422253D01*
X100982253Y-108577959D01*
X100982248Y-108577965D01*
X100855944Y-108758346D01*
X100762881Y-108957920D01*
X100762879Y-108957926D01*
X100725504Y-109097410D01*
X100705885Y-109170629D01*
X100686693Y-109390000D01*
X100705885Y-109609371D01*
X100722985Y-109673187D01*
X100762879Y-109822073D01*
X100762881Y-109822079D01*
X100855942Y-110021650D01*
X100855944Y-110021654D01*
X100945454Y-110149487D01*
X100982251Y-110202038D01*
X100982254Y-110202042D01*
X101137957Y-110357745D01*
X101137961Y-110357748D01*
X101137962Y-110357749D01*
X101318346Y-110484056D01*
X101517924Y-110577120D01*
X101730629Y-110634115D01*
X101950000Y-110653307D01*
X102169371Y-110634115D01*
X102382076Y-110577120D01*
X102581654Y-110484056D01*
X102762038Y-110357749D01*
X102917749Y-110202038D01*
X103044056Y-110021654D01*
X103137120Y-109822076D01*
X103194115Y-109609371D01*
X103213307Y-109390000D01*
X103194115Y-109170629D01*
X103137120Y-108957924D01*
X103044056Y-108758347D01*
X102917749Y-108577962D01*
X102762038Y-108422251D01*
X102581654Y-108295944D01*
X102581648Y-108295941D01*
X102581648Y-108295940D01*
X102449232Y-108234195D01*
X102395946Y-108187278D01*
X102376485Y-108119001D01*
X102397026Y-108051041D01*
X102449232Y-108005805D01*
X102581648Y-107944059D01*
X102581648Y-107944058D01*
X102581654Y-107944056D01*
X102762038Y-107817749D01*
X102917749Y-107662038D01*
X103044056Y-107481654D01*
X103137120Y-107282076D01*
X103194115Y-107069371D01*
X103213307Y-106850000D01*
X103194115Y-106630629D01*
X103137120Y-106417924D01*
X103044056Y-106218347D01*
X102917749Y-106037962D01*
X102762038Y-105882251D01*
X102581654Y-105755944D01*
X102581648Y-105755941D01*
X102581648Y-105755940D01*
X102449232Y-105694195D01*
X102395946Y-105647278D01*
X102376485Y-105579001D01*
X102397026Y-105511041D01*
X102449232Y-105465805D01*
X102581648Y-105404059D01*
X102581648Y-105404058D01*
X102581654Y-105404056D01*
X102762038Y-105277749D01*
X102917749Y-105122038D01*
X103044056Y-104941654D01*
X103137120Y-104742076D01*
X103194115Y-104529371D01*
X103213307Y-104310000D01*
X103194115Y-104090629D01*
X103137120Y-103877924D01*
X103044056Y-103678347D01*
X102917749Y-103497962D01*
X102762038Y-103342251D01*
X102762037Y-103342250D01*
X102762036Y-103342249D01*
X102762033Y-103342247D01*
X102641306Y-103257713D01*
X102596977Y-103202256D01*
X102589668Y-103131637D01*
X102621698Y-103068276D01*
X102682900Y-103032291D01*
X102713576Y-103028500D01*
X102748632Y-103028500D01*
X102748638Y-103028500D01*
X102748645Y-103028499D01*
X102748649Y-103028499D01*
X102809196Y-103021990D01*
X102809199Y-103021989D01*
X102809201Y-103021989D01*
X102946204Y-102970889D01*
X102973691Y-102950313D01*
X103027768Y-102909831D01*
X103094288Y-102885020D01*
X103163662Y-102900111D01*
X103213864Y-102950313D01*
X103228956Y-103019687D01*
X103228798Y-103021679D01*
X103227195Y-103039998D01*
X103246380Y-103259287D01*
X103303350Y-103471903D01*
X103303352Y-103471907D01*
X103396379Y-103671403D01*
X103438800Y-103731987D01*
X104046666Y-103124122D01*
X104070667Y-103213694D01*
X104129910Y-103316306D01*
X104213694Y-103400090D01*
X104316306Y-103459333D01*
X104405874Y-103483333D01*
X103798011Y-104091196D01*
X103798011Y-104091198D01*
X103858597Y-104133621D01*
X103991950Y-104195805D01*
X104045235Y-104242723D01*
X104064696Y-104311000D01*
X104044154Y-104378960D01*
X103991951Y-104424194D01*
X103858600Y-104486377D01*
X103798011Y-104528801D01*
X104405877Y-105136666D01*
X104316306Y-105160667D01*
X104213694Y-105219910D01*
X104129910Y-105303694D01*
X104070667Y-105406306D01*
X104046666Y-105495875D01*
X103438801Y-104888010D01*
X103396378Y-104948598D01*
X103303352Y-105148092D01*
X103303350Y-105148096D01*
X103246380Y-105360712D01*
X103227195Y-105580000D01*
X103246380Y-105799287D01*
X103303350Y-106011903D01*
X103303352Y-106011907D01*
X103396379Y-106211403D01*
X103438800Y-106271987D01*
X104046666Y-105664122D01*
X104070667Y-105753694D01*
X104129910Y-105856306D01*
X104213694Y-105940090D01*
X104316306Y-105999333D01*
X104405874Y-106023333D01*
X103798011Y-106631196D01*
X103798011Y-106631198D01*
X103858597Y-106673621D01*
X103991950Y-106735805D01*
X104045235Y-106782723D01*
X104064696Y-106851000D01*
X104044154Y-106918960D01*
X103991951Y-106964194D01*
X103858600Y-107026377D01*
X103798011Y-107068801D01*
X104405877Y-107676666D01*
X104316306Y-107700667D01*
X104213694Y-107759910D01*
X104129910Y-107843694D01*
X104070667Y-107946306D01*
X104046666Y-108035875D01*
X103438801Y-107428010D01*
X103396378Y-107488598D01*
X103303352Y-107688092D01*
X103303350Y-107688096D01*
X103246380Y-107900712D01*
X103227195Y-108120000D01*
X103246380Y-108339287D01*
X103303350Y-108551903D01*
X103303352Y-108551907D01*
X103396379Y-108751403D01*
X103438800Y-108811987D01*
X104046666Y-108204122D01*
X104070667Y-108293694D01*
X104129910Y-108396306D01*
X104213694Y-108480090D01*
X104316306Y-108539333D01*
X104405874Y-108563333D01*
X103798011Y-109171196D01*
X103798011Y-109171198D01*
X103858597Y-109213621D01*
X103991950Y-109275805D01*
X104045235Y-109322723D01*
X104064696Y-109391000D01*
X104044154Y-109458960D01*
X103991951Y-109504194D01*
X103858600Y-109566377D01*
X103798011Y-109608801D01*
X104405877Y-110216666D01*
X104316306Y-110240667D01*
X104213694Y-110299910D01*
X104129910Y-110383694D01*
X104070667Y-110486306D01*
X104046666Y-110575875D01*
X103438801Y-109968010D01*
X103396378Y-110028598D01*
X103303352Y-110228092D01*
X103303350Y-110228096D01*
X103246380Y-110440712D01*
X103227195Y-110660000D01*
X103246380Y-110879287D01*
X103303350Y-111091903D01*
X103303352Y-111091907D01*
X103396379Y-111291403D01*
X103438800Y-111351987D01*
X104046666Y-110744122D01*
X104070667Y-110833694D01*
X104129910Y-110936306D01*
X104213694Y-111020090D01*
X104316306Y-111079333D01*
X104405874Y-111103333D01*
X103798011Y-111711196D01*
X103798011Y-111711198D01*
X103858597Y-111753621D01*
X104058092Y-111846647D01*
X104058096Y-111846649D01*
X104270712Y-111903619D01*
X104490000Y-111922804D01*
X104709287Y-111903619D01*
X104921903Y-111846649D01*
X104921907Y-111846647D01*
X105121401Y-111753621D01*
X105121403Y-111753620D01*
X105243230Y-111668317D01*
X105310504Y-111645629D01*
X105379364Y-111662914D01*
X105427948Y-111714684D01*
X105441500Y-111771530D01*
X105441500Y-118707522D01*
X105421498Y-118775643D01*
X105367842Y-118822136D01*
X105297568Y-118832240D01*
X105232988Y-118802746D01*
X105226405Y-118796617D01*
X105192042Y-118762254D01*
X105192038Y-118762251D01*
X105154985Y-118736306D01*
X105011654Y-118635944D01*
X104979285Y-118620850D01*
X104812079Y-118542881D01*
X104812073Y-118542879D01*
X104708244Y-118515058D01*
X104599371Y-118485885D01*
X104380000Y-118466693D01*
X104160629Y-118485885D01*
X103947926Y-118542879D01*
X103947920Y-118542881D01*
X103748346Y-118635944D01*
X103567965Y-118762248D01*
X103567959Y-118762253D01*
X103412253Y-118917959D01*
X103412248Y-118917965D01*
X103327213Y-119039408D01*
X103271756Y-119083736D01*
X103201136Y-119091045D01*
X103137776Y-119059014D01*
X103101791Y-118997813D01*
X103098000Y-118967137D01*
X103098000Y-118714000D01*
X102212968Y-118714000D01*
X102259333Y-118633694D01*
X102290000Y-118519244D01*
X102290000Y-118400756D01*
X102259333Y-118286306D01*
X102212968Y-118206000D01*
X103098000Y-118206000D01*
X103098000Y-117661414D01*
X103097999Y-117661402D01*
X103091494Y-117600906D01*
X103040444Y-117464035D01*
X103040444Y-117464034D01*
X102952904Y-117347095D01*
X102835965Y-117259555D01*
X102699093Y-117208505D01*
X102638597Y-117202000D01*
X102094000Y-117202000D01*
X102094000Y-118087031D01*
X102013694Y-118040667D01*
X101899244Y-118010000D01*
X101780756Y-118010000D01*
X101666306Y-118040667D01*
X101586000Y-118087031D01*
X101586000Y-117202000D01*
X101041402Y-117202000D01*
X100980906Y-117208505D01*
X100844035Y-117259555D01*
X100844034Y-117259555D01*
X100727095Y-117347095D01*
X100639555Y-117464034D01*
X100639555Y-117464035D01*
X100588505Y-117600906D01*
X100582000Y-117661402D01*
X100582000Y-118206000D01*
X101467032Y-118206000D01*
X101420667Y-118286306D01*
X101390000Y-118400756D01*
X101390000Y-118519244D01*
X101420667Y-118633694D01*
X101467032Y-118714000D01*
X100582000Y-118714000D01*
X100582000Y-119258597D01*
X100588505Y-119319093D01*
X100639555Y-119455964D01*
X100639555Y-119455965D01*
X100727095Y-119572904D01*
X100844034Y-119660444D01*
X100980906Y-119711494D01*
X101041402Y-119717999D01*
X101041415Y-119718000D01*
X101078009Y-119718000D01*
X101146130Y-119738002D01*
X101192623Y-119791658D01*
X101202727Y-119861932D01*
X101173233Y-119926512D01*
X101150278Y-119947214D01*
X101148010Y-119948801D01*
X101755875Y-120556666D01*
X101666306Y-120580667D01*
X101563694Y-120639910D01*
X101479910Y-120723694D01*
X101420667Y-120826306D01*
X101396666Y-120915875D01*
X100788801Y-120308010D01*
X100746378Y-120368598D01*
X100653352Y-120568092D01*
X100653350Y-120568096D01*
X100596380Y-120780712D01*
X100577195Y-121000000D01*
X100596380Y-121219287D01*
X100653350Y-121431903D01*
X100653352Y-121431907D01*
X100746379Y-121631403D01*
X100788800Y-121691987D01*
X101396666Y-121084122D01*
X101420667Y-121173694D01*
X101479910Y-121276306D01*
X101563694Y-121360090D01*
X101666306Y-121419333D01*
X101755876Y-121443333D01*
X101148011Y-122051197D01*
X101148011Y-122051198D01*
X101208597Y-122093621D01*
X101341950Y-122155805D01*
X101395235Y-122202723D01*
X101414696Y-122271000D01*
X101394154Y-122338960D01*
X101341951Y-122384194D01*
X101208600Y-122446377D01*
X101148010Y-122488801D01*
X101755875Y-123096666D01*
X101666306Y-123120667D01*
X101563694Y-123179910D01*
X101479910Y-123263694D01*
X101420667Y-123366306D01*
X101396666Y-123455875D01*
X100788801Y-122848010D01*
X100746378Y-122908598D01*
X100653352Y-123108092D01*
X100653350Y-123108096D01*
X100596380Y-123320712D01*
X100577195Y-123540000D01*
X100596380Y-123759287D01*
X100653350Y-123971903D01*
X100653352Y-123971907D01*
X100746379Y-124171403D01*
X100788800Y-124231987D01*
X101396666Y-123624122D01*
X101420667Y-123713694D01*
X101479910Y-123816306D01*
X101563694Y-123900090D01*
X101666306Y-123959333D01*
X101755876Y-123983333D01*
X101148011Y-124591197D01*
X101148011Y-124591198D01*
X101208597Y-124633621D01*
X101341950Y-124695805D01*
X101395235Y-124742723D01*
X101414696Y-124811000D01*
X101394154Y-124878960D01*
X101341951Y-124924194D01*
X101208600Y-124986377D01*
X101148010Y-125028801D01*
X101755875Y-125636666D01*
X101666306Y-125660667D01*
X101563694Y-125719910D01*
X101479910Y-125803694D01*
X101420667Y-125906306D01*
X101396666Y-125995875D01*
X100788801Y-125388010D01*
X100746378Y-125448598D01*
X100653352Y-125648092D01*
X100653350Y-125648096D01*
X100596380Y-125860712D01*
X100577195Y-126080000D01*
X100596380Y-126299287D01*
X100653350Y-126511903D01*
X100653352Y-126511907D01*
X100746379Y-126711403D01*
X100788800Y-126771987D01*
X101396666Y-126164122D01*
X101420667Y-126253694D01*
X101479910Y-126356306D01*
X101563694Y-126440090D01*
X101666306Y-126499333D01*
X101755876Y-126523333D01*
X101148011Y-127131197D01*
X101148011Y-127131198D01*
X101208597Y-127173621D01*
X101408092Y-127266647D01*
X101408096Y-127266649D01*
X101620712Y-127323619D01*
X101840000Y-127342804D01*
X102059287Y-127323619D01*
X102271903Y-127266649D01*
X102271907Y-127266647D01*
X102471399Y-127173622D01*
X102531987Y-127131197D01*
X102531987Y-127131196D01*
X101924124Y-126523333D01*
X102013694Y-126499333D01*
X102116306Y-126440090D01*
X102200090Y-126356306D01*
X102259333Y-126253694D01*
X102283333Y-126164124D01*
X102891196Y-126771987D01*
X102891197Y-126771987D01*
X102933622Y-126711399D01*
X103026647Y-126511907D01*
X103026649Y-126511903D01*
X103083619Y-126299287D01*
X103102804Y-126080000D01*
X103083619Y-125860712D01*
X103026649Y-125648096D01*
X103026647Y-125648092D01*
X102933619Y-125448594D01*
X102891199Y-125388011D01*
X102891197Y-125388011D01*
X102283333Y-125995875D01*
X102259333Y-125906306D01*
X102200090Y-125803694D01*
X102116306Y-125719910D01*
X102013694Y-125660667D01*
X101924123Y-125636666D01*
X102531987Y-125028800D01*
X102471403Y-124986379D01*
X102338049Y-124924195D01*
X102284764Y-124877278D01*
X102265303Y-124809000D01*
X102285845Y-124741040D01*
X102338049Y-124695805D01*
X102471399Y-124633622D01*
X102531987Y-124591197D01*
X102531987Y-124591196D01*
X101924124Y-123983333D01*
X102013694Y-123959333D01*
X102116306Y-123900090D01*
X102200090Y-123816306D01*
X102259333Y-123713694D01*
X102283333Y-123624124D01*
X102891196Y-124231987D01*
X102891197Y-124231987D01*
X102933622Y-124171399D01*
X103026647Y-123971907D01*
X103026649Y-123971903D01*
X103083619Y-123759287D01*
X103102804Y-123540000D01*
X103083619Y-123320712D01*
X103026649Y-123108096D01*
X103026647Y-123108092D01*
X102933619Y-122908594D01*
X102891199Y-122848011D01*
X102891197Y-122848011D01*
X102283333Y-123455875D01*
X102259333Y-123366306D01*
X102200090Y-123263694D01*
X102116306Y-123179910D01*
X102013694Y-123120667D01*
X101924123Y-123096666D01*
X102531987Y-122488800D01*
X102471403Y-122446379D01*
X102338049Y-122384195D01*
X102284764Y-122337278D01*
X102265303Y-122269000D01*
X102285845Y-122201040D01*
X102338049Y-122155805D01*
X102471399Y-122093622D01*
X102531987Y-122051197D01*
X102531987Y-122051196D01*
X101924124Y-121443333D01*
X102013694Y-121419333D01*
X102116306Y-121360090D01*
X102200090Y-121276306D01*
X102259333Y-121173694D01*
X102283333Y-121084124D01*
X102891196Y-121691987D01*
X102891197Y-121691987D01*
X102933622Y-121631399D01*
X103026647Y-121431907D01*
X103026649Y-121431903D01*
X103083619Y-121219287D01*
X103102804Y-121000000D01*
X103083619Y-120780712D01*
X103026649Y-120568096D01*
X103026647Y-120568092D01*
X102933619Y-120368594D01*
X102891199Y-120308011D01*
X102891197Y-120308011D01*
X102283333Y-120915875D01*
X102259333Y-120826306D01*
X102200090Y-120723694D01*
X102116306Y-120639910D01*
X102013694Y-120580667D01*
X101924123Y-120556666D01*
X102531987Y-119948800D01*
X102529721Y-119947214D01*
X102485392Y-119891757D01*
X102478083Y-119821137D01*
X102510113Y-119757777D01*
X102571314Y-119721791D01*
X102601991Y-119718000D01*
X102638585Y-119718000D01*
X102638597Y-119717999D01*
X102699093Y-119711494D01*
X102835963Y-119660445D01*
X102917288Y-119599565D01*
X102983808Y-119574754D01*
X103053183Y-119589845D01*
X103103385Y-119640047D01*
X103118477Y-119709421D01*
X103118319Y-119711412D01*
X103116693Y-119729998D01*
X103116693Y-119730000D01*
X103135885Y-119949371D01*
X103144412Y-119981194D01*
X103192879Y-120162073D01*
X103192881Y-120162079D01*
X103260930Y-120308011D01*
X103285944Y-120361654D01*
X103389035Y-120508882D01*
X103412251Y-120542038D01*
X103412254Y-120542042D01*
X103567957Y-120697745D01*
X103567961Y-120697748D01*
X103567962Y-120697749D01*
X103748346Y-120824056D01*
X103822637Y-120858698D01*
X103880768Y-120885805D01*
X103934053Y-120932722D01*
X103953514Y-121000999D01*
X103932972Y-121068959D01*
X103880768Y-121114195D01*
X103748346Y-121175944D01*
X103567965Y-121302248D01*
X103567959Y-121302253D01*
X103412253Y-121457959D01*
X103412248Y-121457965D01*
X103285944Y-121638346D01*
X103192881Y-121837920D01*
X103192879Y-121837926D01*
X103135885Y-122050629D01*
X103116693Y-122270000D01*
X103135885Y-122489370D01*
X103192879Y-122702073D01*
X103192881Y-122702079D01*
X103260930Y-122848011D01*
X103285944Y-122901654D01*
X103369606Y-123021135D01*
X103412251Y-123082038D01*
X103412254Y-123082042D01*
X103567957Y-123237745D01*
X103567961Y-123237748D01*
X103567962Y-123237749D01*
X103748346Y-123364056D01*
X103822637Y-123398698D01*
X103880768Y-123425805D01*
X103934053Y-123472722D01*
X103953514Y-123540999D01*
X103932972Y-123608959D01*
X103880768Y-123654195D01*
X103748346Y-123715944D01*
X103567965Y-123842248D01*
X103567959Y-123842253D01*
X103412253Y-123997959D01*
X103412248Y-123997965D01*
X103285944Y-124178346D01*
X103192881Y-124377920D01*
X103192879Y-124377926D01*
X103135885Y-124590629D01*
X103116693Y-124810000D01*
X103135885Y-125029370D01*
X103192879Y-125242073D01*
X103192881Y-125242079D01*
X103260930Y-125388011D01*
X103285944Y-125441654D01*
X103344897Y-125525847D01*
X103412251Y-125622038D01*
X103412254Y-125622042D01*
X103567957Y-125777745D01*
X103567961Y-125777748D01*
X103567962Y-125777749D01*
X103748346Y-125904056D01*
X103853219Y-125952958D01*
X103880768Y-125965805D01*
X103934053Y-126012722D01*
X103953514Y-126080999D01*
X103932972Y-126148959D01*
X103880768Y-126194195D01*
X103748346Y-126255944D01*
X103567965Y-126382248D01*
X103567959Y-126382253D01*
X103412253Y-126537959D01*
X103412248Y-126537965D01*
X103285944Y-126718346D01*
X103192881Y-126917920D01*
X103192879Y-126917926D01*
X103176916Y-126977500D01*
X103135885Y-127130629D01*
X103116693Y-127350000D01*
X103125506Y-127450741D01*
X103135885Y-127569370D01*
X103192879Y-127782073D01*
X103192881Y-127782079D01*
X103285942Y-127981650D01*
X103285944Y-127981654D01*
X103412251Y-128162038D01*
X103412254Y-128162042D01*
X103567957Y-128317745D01*
X103567961Y-128317748D01*
X103567962Y-128317749D01*
X103748346Y-128444056D01*
X103947924Y-128537120D01*
X104160629Y-128594115D01*
X104380000Y-128613307D01*
X104599371Y-128594115D01*
X104812076Y-128537120D01*
X105011654Y-128444056D01*
X105192038Y-128317749D01*
X105347749Y-128162038D01*
X105474056Y-127981654D01*
X105567120Y-127782076D01*
X105624115Y-127569371D01*
X105643307Y-127350000D01*
X105624115Y-127130629D01*
X105567120Y-126917924D01*
X105474056Y-126718347D01*
X105347749Y-126537962D01*
X105192038Y-126382251D01*
X105187392Y-126378998D01*
X105154985Y-126356306D01*
X105011654Y-126255944D01*
X105011648Y-126255941D01*
X105011648Y-126255940D01*
X104879232Y-126194195D01*
X104825946Y-126147278D01*
X104806485Y-126079001D01*
X104827026Y-126011041D01*
X104879232Y-125965805D01*
X105011648Y-125904059D01*
X105011648Y-125904058D01*
X105011654Y-125904056D01*
X105192038Y-125777749D01*
X105347749Y-125622038D01*
X105474056Y-125441654D01*
X105567120Y-125242076D01*
X105624115Y-125029371D01*
X105643307Y-124810000D01*
X105624115Y-124590629D01*
X105567120Y-124377924D01*
X105567119Y-124377923D01*
X105565696Y-124372610D01*
X105567493Y-124372128D01*
X105563506Y-124309549D01*
X105598013Y-124247502D01*
X105660587Y-124213962D01*
X105731362Y-124219575D01*
X105775510Y-124248191D01*
X107779874Y-126252555D01*
X107810612Y-126302713D01*
X107865473Y-126471556D01*
X107865476Y-126471561D01*
X107960958Y-126636941D01*
X107960965Y-126636951D01*
X108088744Y-126778864D01*
X108102907Y-126789154D01*
X108243248Y-126891118D01*
X108417712Y-126968794D01*
X108604513Y-127008500D01*
X108795487Y-127008500D01*
X108982288Y-126968794D01*
X109156752Y-126891118D01*
X109311253Y-126778866D01*
X109323976Y-126764736D01*
X109439034Y-126636951D01*
X109439035Y-126636949D01*
X109439040Y-126636944D01*
X109534527Y-126471556D01*
X109593542Y-126289928D01*
X109613504Y-126100000D01*
X109593542Y-125910072D01*
X109534527Y-125728444D01*
X109439040Y-125563056D01*
X109439038Y-125563054D01*
X109439034Y-125563048D01*
X109311255Y-125421135D01*
X109156752Y-125308882D01*
X108982288Y-125231206D01*
X108919227Y-125217801D01*
X108856754Y-125184072D01*
X108856331Y-125183650D01*
X108496276Y-124823595D01*
X108462250Y-124761283D01*
X108467315Y-124690468D01*
X108509862Y-124633632D01*
X108576382Y-124608821D01*
X108585371Y-124608500D01*
X108695487Y-124608500D01*
X108882288Y-124568794D01*
X109056752Y-124491118D01*
X109211253Y-124378866D01*
X109211255Y-124378864D01*
X109339034Y-124236951D01*
X109339035Y-124236949D01*
X109339040Y-124236944D01*
X109434527Y-124071556D01*
X109493542Y-123889928D01*
X109513504Y-123700000D01*
X109493542Y-123510072D01*
X109434527Y-123328444D01*
X109339040Y-123163056D01*
X109339038Y-123163054D01*
X109339034Y-123163048D01*
X109211255Y-123021135D01*
X109056752Y-122908882D01*
X108882288Y-122831206D01*
X108819227Y-122817801D01*
X108756754Y-122784072D01*
X108756331Y-122783650D01*
X108394684Y-122422003D01*
X108360658Y-122359691D01*
X108365723Y-122288876D01*
X108408270Y-122232040D01*
X108474790Y-122207229D01*
X108497833Y-122208825D01*
X108497940Y-122207810D01*
X108504507Y-122208500D01*
X108504513Y-122208500D01*
X108695487Y-122208500D01*
X108882288Y-122168794D01*
X109056752Y-122091118D01*
X109211253Y-121978866D01*
X109268225Y-121915592D01*
X109339034Y-121836951D01*
X109339035Y-121836949D01*
X109339040Y-121836944D01*
X109434527Y-121671556D01*
X109493542Y-121489928D01*
X109513504Y-121300000D01*
X109493542Y-121110072D01*
X109434527Y-120928444D01*
X109339040Y-120763056D01*
X109339038Y-120763054D01*
X109339034Y-120763048D01*
X109211255Y-120621135D01*
X109056752Y-120508882D01*
X108882288Y-120431206D01*
X108819227Y-120417801D01*
X108756754Y-120384072D01*
X108756331Y-120383650D01*
X108445405Y-120072724D01*
X108411379Y-120010412D01*
X108408500Y-119983629D01*
X108408500Y-119734500D01*
X108428502Y-119666379D01*
X108482158Y-119619886D01*
X108534500Y-119608500D01*
X108595487Y-119608500D01*
X108782288Y-119568794D01*
X108956752Y-119491118D01*
X109111253Y-119378866D01*
X109111255Y-119378864D01*
X109239034Y-119236951D01*
X109239035Y-119236949D01*
X109239040Y-119236944D01*
X109334527Y-119071556D01*
X109393542Y-118889928D01*
X109413504Y-118700000D01*
X109393542Y-118510072D01*
X109334527Y-118328444D01*
X109275381Y-118225999D01*
X109258500Y-118162999D01*
X109258500Y-82925293D01*
X109258499Y-82925290D01*
X109241832Y-82841500D01*
X109229351Y-82778753D01*
X109172174Y-82640716D01*
X109089166Y-82516485D01*
X108195405Y-81622724D01*
X108161379Y-81560412D01*
X108158500Y-81533629D01*
X108158500Y-71884094D01*
X108178502Y-71815973D01*
X108232158Y-71769480D01*
X108302432Y-71759376D01*
X108347500Y-71774975D01*
X108512536Y-71870258D01*
X108701940Y-71931800D01*
X108900000Y-71952617D01*
X109098060Y-71931800D01*
X109287464Y-71870258D01*
X109459934Y-71770683D01*
X109607932Y-71637425D01*
X109724990Y-71476308D01*
X109805992Y-71294375D01*
X109847398Y-71099576D01*
X109850000Y-71000000D01*
X109850000Y-69781994D01*
X109870002Y-69713873D01*
X109923658Y-69667380D01*
X109989473Y-69656716D01*
X110001409Y-69657999D01*
X110001415Y-69658000D01*
X110146000Y-69658000D01*
X110146000Y-66872000D01*
X110166002Y-66803879D01*
X110219658Y-66757386D01*
X110272000Y-66746000D01*
X110415500Y-66746000D01*
X110483621Y-66766002D01*
X110530114Y-66819658D01*
X110541500Y-66872000D01*
X110541500Y-69198649D01*
X110548009Y-69259196D01*
X110548011Y-69259201D01*
X110599111Y-69396204D01*
X110616367Y-69419255D01*
X110641179Y-69485774D01*
X110641500Y-69494765D01*
X110641500Y-116798610D01*
X110621498Y-116866731D01*
X110567842Y-116913224D01*
X110541698Y-116921856D01*
X110497714Y-116931205D01*
X110323249Y-117008881D01*
X110323248Y-117008882D01*
X110168744Y-117121135D01*
X110040965Y-117263048D01*
X110040958Y-117263058D01*
X109945476Y-117428438D01*
X109945473Y-117428445D01*
X109886457Y-117610072D01*
X109866496Y-117800000D01*
X109886457Y-117989927D01*
X109902944Y-118040667D01*
X109945473Y-118171556D01*
X109945476Y-118171561D01*
X110040958Y-118336941D01*
X110040965Y-118336951D01*
X110168744Y-118478864D01*
X110168747Y-118478866D01*
X110323248Y-118591118D01*
X110497712Y-118668794D01*
X110684513Y-118708500D01*
X110875487Y-118708500D01*
X111062288Y-118668794D01*
X111236752Y-118591118D01*
X111341439Y-118515057D01*
X111408307Y-118491200D01*
X111477458Y-118507280D01*
X111526938Y-118558194D01*
X111541500Y-118616994D01*
X111541500Y-118633627D01*
X111521498Y-118701748D01*
X111504595Y-118722723D01*
X110643665Y-119583652D01*
X110581353Y-119617677D01*
X110580769Y-119617802D01*
X110517713Y-119631205D01*
X110343249Y-119708881D01*
X110343248Y-119708882D01*
X110188744Y-119821135D01*
X110060965Y-119963048D01*
X110060958Y-119963058D01*
X109965476Y-120128438D01*
X109965473Y-120128445D01*
X109906457Y-120310072D01*
X109886496Y-120500000D01*
X109906457Y-120689927D01*
X109935956Y-120780712D01*
X109965473Y-120871556D01*
X109965476Y-120871561D01*
X110060958Y-121036941D01*
X110060965Y-121036951D01*
X110188744Y-121178864D01*
X110249999Y-121223368D01*
X110343248Y-121291118D01*
X110517712Y-121368794D01*
X110704513Y-121408500D01*
X110814628Y-121408500D01*
X110882749Y-121428502D01*
X110929242Y-121482158D01*
X110939346Y-121552432D01*
X110909852Y-121617012D01*
X110903736Y-121623581D01*
X110690377Y-121836941D01*
X110643667Y-121883651D01*
X110581355Y-121917676D01*
X110580772Y-121917801D01*
X110517712Y-121931206D01*
X110343249Y-122008881D01*
X110343248Y-122008882D01*
X110188744Y-122121135D01*
X110060965Y-122263048D01*
X110060958Y-122263058D01*
X109965476Y-122428438D01*
X109965473Y-122428445D01*
X109906457Y-122610072D01*
X109886496Y-122800000D01*
X109906457Y-122989927D01*
X109922561Y-123039487D01*
X109965473Y-123171556D01*
X109965476Y-123171561D01*
X110060958Y-123336941D01*
X110060965Y-123336951D01*
X110188744Y-123478864D01*
X110188747Y-123478866D01*
X110343248Y-123591118D01*
X110517712Y-123668794D01*
X110704513Y-123708500D01*
X110895493Y-123708500D01*
X110902060Y-123707810D01*
X110902355Y-123710618D01*
X110960731Y-123715032D01*
X111017394Y-123757810D01*
X111041933Y-123824431D01*
X111026560Y-123893743D01*
X111005314Y-123922003D01*
X110543667Y-124383650D01*
X110481355Y-124417676D01*
X110480772Y-124417801D01*
X110417712Y-124431206D01*
X110243249Y-124508881D01*
X110243248Y-124508882D01*
X110088744Y-124621135D01*
X109960965Y-124763048D01*
X109960958Y-124763058D01*
X109867926Y-124924195D01*
X109865473Y-124928444D01*
X109856370Y-124956459D01*
X109806457Y-125110072D01*
X109786496Y-125300000D01*
X109806457Y-125489927D01*
X109835558Y-125579487D01*
X109865473Y-125671556D01*
X109865476Y-125671561D01*
X109960958Y-125836941D01*
X109960965Y-125836951D01*
X110088744Y-125978864D01*
X110088747Y-125978866D01*
X110243248Y-126091118D01*
X110417712Y-126168794D01*
X110604513Y-126208500D01*
X110795487Y-126208500D01*
X110982288Y-126168794D01*
X111156752Y-126091118D01*
X111311253Y-125978866D01*
X111323013Y-125965805D01*
X111439034Y-125836951D01*
X111439035Y-125836949D01*
X111439040Y-125836944D01*
X111534527Y-125671556D01*
X111589388Y-125502711D01*
X111620124Y-125452555D01*
X113835634Y-123237047D01*
X113897946Y-123203021D01*
X113968762Y-123208086D01*
X114025597Y-123250633D01*
X114050408Y-123317153D01*
X114046436Y-123358752D01*
X114035885Y-123398127D01*
X114026091Y-123510072D01*
X114016693Y-123617500D01*
X114035885Y-123836871D01*
X114037327Y-123842251D01*
X114092879Y-124049573D01*
X114092881Y-124049579D01*
X114160930Y-124195511D01*
X114185944Y-124249154D01*
X114276770Y-124378866D01*
X114312251Y-124429538D01*
X114312254Y-124429542D01*
X114467957Y-124585245D01*
X114467961Y-124585248D01*
X114467962Y-124585249D01*
X114648346Y-124711556D01*
X114753219Y-124760458D01*
X114780768Y-124773305D01*
X114834053Y-124820222D01*
X114853514Y-124888499D01*
X114832972Y-124956459D01*
X114780768Y-125001695D01*
X114648346Y-125063444D01*
X114467965Y-125189748D01*
X114467959Y-125189753D01*
X114312253Y-125345459D01*
X114312248Y-125345465D01*
X114185944Y-125525846D01*
X114092881Y-125725420D01*
X114092879Y-125725426D01*
X114062998Y-125836944D01*
X114035885Y-125938129D01*
X114016693Y-126157500D01*
X114035885Y-126376871D01*
X114068699Y-126499333D01*
X114092879Y-126589573D01*
X114092881Y-126589579D01*
X114149688Y-126711403D01*
X114185944Y-126789154D01*
X114310069Y-126966422D01*
X114312251Y-126969538D01*
X114312254Y-126969542D01*
X114467957Y-127125245D01*
X114467961Y-127125248D01*
X114467962Y-127125249D01*
X114648346Y-127251556D01*
X114847924Y-127344620D01*
X115060629Y-127401615D01*
X115280000Y-127420807D01*
X115499371Y-127401615D01*
X115712076Y-127344620D01*
X115911654Y-127251556D01*
X116092038Y-127125249D01*
X116247749Y-126969538D01*
X116332787Y-126848092D01*
X116388244Y-126803763D01*
X116458863Y-126796454D01*
X116522224Y-126828484D01*
X116558209Y-126889686D01*
X116562000Y-126920362D01*
X116562000Y-127173500D01*
X117447032Y-127173500D01*
X117400667Y-127253806D01*
X117370000Y-127368256D01*
X117370000Y-127486744D01*
X117400667Y-127601194D01*
X117447032Y-127681500D01*
X116562000Y-127681500D01*
X116562000Y-128226097D01*
X116568505Y-128286593D01*
X116619555Y-128423464D01*
X116619555Y-128423465D01*
X116707095Y-128540404D01*
X116824034Y-128627944D01*
X116960906Y-128678994D01*
X117021402Y-128685499D01*
X117021415Y-128685500D01*
X117566000Y-128685500D01*
X117566000Y-127800468D01*
X117646306Y-127846833D01*
X117760756Y-127877500D01*
X117879244Y-127877500D01*
X117993694Y-127846833D01*
X118074000Y-127800468D01*
X118074000Y-128685500D01*
X118618585Y-128685500D01*
X118618597Y-128685499D01*
X118679093Y-128678994D01*
X118815964Y-128627944D01*
X118815965Y-128627944D01*
X118932904Y-128540404D01*
X119020444Y-128423465D01*
X119020444Y-128423464D01*
X119071494Y-128286593D01*
X119077999Y-128226097D01*
X119078000Y-128226085D01*
X119078000Y-127681500D01*
X118192968Y-127681500D01*
X118239333Y-127601194D01*
X118270000Y-127486744D01*
X118270000Y-127368256D01*
X118239333Y-127253806D01*
X118192968Y-127173500D01*
X119078000Y-127173500D01*
X119078000Y-126628914D01*
X119077999Y-126628902D01*
X119071494Y-126568406D01*
X119020444Y-126431535D01*
X119020444Y-126431534D01*
X118932904Y-126314595D01*
X118815965Y-126227055D01*
X118679093Y-126176005D01*
X118618597Y-126169500D01*
X118581990Y-126169500D01*
X118513869Y-126149498D01*
X118467376Y-126095842D01*
X118457272Y-126025568D01*
X118486766Y-125960988D01*
X118509718Y-125940288D01*
X118511987Y-125938698D01*
X118511987Y-125938696D01*
X117904124Y-125330833D01*
X117993694Y-125306833D01*
X118096306Y-125247590D01*
X118180090Y-125163806D01*
X118239333Y-125061194D01*
X118263333Y-124971624D01*
X118871196Y-125579487D01*
X118871197Y-125579487D01*
X118913622Y-125518899D01*
X119006647Y-125319407D01*
X119006649Y-125319403D01*
X119063619Y-125106787D01*
X119082804Y-124887500D01*
X119063619Y-124668212D01*
X119006649Y-124455596D01*
X119006647Y-124455592D01*
X118913619Y-124256094D01*
X118871199Y-124195511D01*
X118871197Y-124195511D01*
X118263333Y-124803375D01*
X118239333Y-124713806D01*
X118180090Y-124611194D01*
X118096306Y-124527410D01*
X117993694Y-124468167D01*
X117904123Y-124444166D01*
X118511987Y-123836300D01*
X118451403Y-123793879D01*
X118318049Y-123731695D01*
X118264764Y-123684778D01*
X118245303Y-123616500D01*
X118265845Y-123548540D01*
X118318049Y-123503305D01*
X118451399Y-123441122D01*
X118511987Y-123398697D01*
X118511987Y-123398696D01*
X117904124Y-122790833D01*
X117993694Y-122766833D01*
X118096306Y-122707590D01*
X118180090Y-122623806D01*
X118239333Y-122521194D01*
X118263333Y-122431624D01*
X118871196Y-123039487D01*
X118871197Y-123039487D01*
X118913622Y-122978899D01*
X119006647Y-122779407D01*
X119006649Y-122779403D01*
X119063619Y-122566787D01*
X119082804Y-122347500D01*
X119063619Y-122128212D01*
X119006649Y-121915596D01*
X119006647Y-121915592D01*
X118913619Y-121716094D01*
X118871199Y-121655511D01*
X118871197Y-121655511D01*
X118263333Y-122263375D01*
X118239333Y-122173806D01*
X118180090Y-122071194D01*
X118096306Y-121987410D01*
X117993694Y-121928167D01*
X117904123Y-121904166D01*
X118511987Y-121296300D01*
X118451403Y-121253879D01*
X118318049Y-121191695D01*
X118264764Y-121144778D01*
X118245303Y-121076500D01*
X118265845Y-121008540D01*
X118318049Y-120963305D01*
X118451399Y-120901122D01*
X118511987Y-120858697D01*
X118511987Y-120858696D01*
X117904124Y-120250833D01*
X117993694Y-120226833D01*
X118096306Y-120167590D01*
X118180090Y-120083806D01*
X118239333Y-119981194D01*
X118263333Y-119891624D01*
X118871196Y-120499487D01*
X118871197Y-120499487D01*
X118913622Y-120438899D01*
X119006647Y-120239407D01*
X119006649Y-120239403D01*
X119063619Y-120026787D01*
X119082804Y-119807500D01*
X119063619Y-119588212D01*
X119006649Y-119375596D01*
X119006647Y-119375592D01*
X118913619Y-119176094D01*
X118871199Y-119115511D01*
X118871197Y-119115511D01*
X118263333Y-119723375D01*
X118239333Y-119633806D01*
X118180090Y-119531194D01*
X118096306Y-119447410D01*
X117993694Y-119388167D01*
X117904123Y-119364166D01*
X118511987Y-118756300D01*
X118451403Y-118713879D01*
X118251907Y-118620852D01*
X118251903Y-118620850D01*
X118039287Y-118563880D01*
X117820000Y-118544695D01*
X117600712Y-118563880D01*
X117388096Y-118620850D01*
X117388092Y-118620852D01*
X117188598Y-118713878D01*
X117128010Y-118756301D01*
X117735875Y-119364166D01*
X117646306Y-119388167D01*
X117543694Y-119447410D01*
X117459910Y-119531194D01*
X117400667Y-119633806D01*
X117376666Y-119723375D01*
X116768801Y-119115510D01*
X116726378Y-119176098D01*
X116633352Y-119375592D01*
X116633350Y-119375596D01*
X116576380Y-119588212D01*
X116557195Y-119807500D01*
X116576380Y-120026787D01*
X116633350Y-120239403D01*
X116633352Y-120239407D01*
X116726379Y-120438903D01*
X116768800Y-120499487D01*
X117376666Y-119891622D01*
X117400667Y-119981194D01*
X117459910Y-120083806D01*
X117543694Y-120167590D01*
X117646306Y-120226833D01*
X117735876Y-120250833D01*
X117128011Y-120858697D01*
X117128011Y-120858698D01*
X117188597Y-120901121D01*
X117321950Y-120963305D01*
X117375235Y-121010223D01*
X117394696Y-121078500D01*
X117374154Y-121146460D01*
X117321951Y-121191694D01*
X117188600Y-121253877D01*
X117128010Y-121296301D01*
X117735875Y-121904166D01*
X117646306Y-121928167D01*
X117543694Y-121987410D01*
X117459910Y-122071194D01*
X117400667Y-122173806D01*
X117376666Y-122263375D01*
X116768801Y-121655510D01*
X116726378Y-121716098D01*
X116633352Y-121915592D01*
X116633350Y-121915596D01*
X116576380Y-122128212D01*
X116557195Y-122347500D01*
X116576380Y-122566787D01*
X116633350Y-122779403D01*
X116633352Y-122779407D01*
X116726379Y-122978903D01*
X116768800Y-123039487D01*
X117376666Y-122431622D01*
X117400667Y-122521194D01*
X117459910Y-122623806D01*
X117543694Y-122707590D01*
X117646306Y-122766833D01*
X117735876Y-122790833D01*
X117128011Y-123398697D01*
X117128011Y-123398698D01*
X117188597Y-123441121D01*
X117321950Y-123503305D01*
X117375235Y-123550223D01*
X117394696Y-123618500D01*
X117374154Y-123686460D01*
X117321951Y-123731694D01*
X117188600Y-123793877D01*
X117128010Y-123836301D01*
X117735875Y-124444166D01*
X117646306Y-124468167D01*
X117543694Y-124527410D01*
X117459910Y-124611194D01*
X117400667Y-124713806D01*
X117376666Y-124803375D01*
X116768801Y-124195510D01*
X116726378Y-124256098D01*
X116633352Y-124455592D01*
X116633350Y-124455596D01*
X116576380Y-124668212D01*
X116557195Y-124887500D01*
X116576380Y-125106787D01*
X116633350Y-125319403D01*
X116633352Y-125319407D01*
X116726379Y-125518903D01*
X116768800Y-125579487D01*
X117376666Y-124971622D01*
X117400667Y-125061194D01*
X117459910Y-125163806D01*
X117543694Y-125247590D01*
X117646306Y-125306833D01*
X117735876Y-125330833D01*
X117128011Y-125938697D01*
X117128011Y-125938698D01*
X117130280Y-125940287D01*
X117174608Y-125995744D01*
X117181917Y-126066363D01*
X117149886Y-126129724D01*
X117088685Y-126165709D01*
X117058009Y-126169500D01*
X117021402Y-126169500D01*
X116960906Y-126176005D01*
X116824035Y-126227055D01*
X116742709Y-126287935D01*
X116676189Y-126312745D01*
X116606815Y-126297653D01*
X116556613Y-126247451D01*
X116541522Y-126178077D01*
X116541681Y-126176081D01*
X116542257Y-126169500D01*
X116543307Y-126157500D01*
X116524115Y-125938129D01*
X116467120Y-125725424D01*
X116374056Y-125525847D01*
X116247749Y-125345462D01*
X116092038Y-125189751D01*
X115911654Y-125063444D01*
X115911648Y-125063441D01*
X115911648Y-125063440D01*
X115779232Y-125001695D01*
X115725946Y-124954778D01*
X115706485Y-124886501D01*
X115727026Y-124818541D01*
X115779232Y-124773305D01*
X115911648Y-124711559D01*
X115911648Y-124711558D01*
X115911654Y-124711556D01*
X116092038Y-124585249D01*
X116247749Y-124429538D01*
X116374056Y-124249154D01*
X116467120Y-124049576D01*
X116524115Y-123836871D01*
X116543307Y-123617500D01*
X116524115Y-123398129D01*
X116467120Y-123185424D01*
X116374056Y-122985847D01*
X116247749Y-122805462D01*
X116092038Y-122649751D01*
X115911654Y-122523444D01*
X115911648Y-122523441D01*
X115911648Y-122523440D01*
X115779232Y-122461695D01*
X115725946Y-122414778D01*
X115706485Y-122346501D01*
X115727026Y-122278541D01*
X115779232Y-122233305D01*
X115911648Y-122171559D01*
X115911648Y-122171558D01*
X115911654Y-122171556D01*
X116092038Y-122045249D01*
X116247749Y-121889538D01*
X116374056Y-121709154D01*
X116467120Y-121509576D01*
X116524115Y-121296871D01*
X116543307Y-121077500D01*
X116524115Y-120858129D01*
X116467120Y-120645424D01*
X116374056Y-120445847D01*
X116247749Y-120265462D01*
X116092038Y-120109751D01*
X115911654Y-119983444D01*
X115911648Y-119983441D01*
X115911648Y-119983440D01*
X115779232Y-119921695D01*
X115725946Y-119874778D01*
X115706485Y-119806501D01*
X115727026Y-119738541D01*
X115779232Y-119693305D01*
X115911648Y-119631559D01*
X115911648Y-119631558D01*
X115911654Y-119631556D01*
X116092038Y-119505249D01*
X116247749Y-119349538D01*
X116374056Y-119169154D01*
X116467120Y-118969576D01*
X116524115Y-118756871D01*
X116543307Y-118537500D01*
X116524115Y-118318129D01*
X116467120Y-118105424D01*
X116374056Y-117905847D01*
X116247749Y-117725462D01*
X116092038Y-117569751D01*
X115911654Y-117443444D01*
X115911650Y-117443442D01*
X115712079Y-117350381D01*
X115712073Y-117350379D01*
X115613678Y-117324014D01*
X115499371Y-117293385D01*
X115280000Y-117274193D01*
X115060629Y-117293385D01*
X114847926Y-117350379D01*
X114847916Y-117350383D01*
X114737749Y-117401754D01*
X114667557Y-117412415D01*
X114602745Y-117383434D01*
X114563889Y-117324014D01*
X114558500Y-117287559D01*
X114558500Y-117267496D01*
X121831493Y-117267496D01*
X121831493Y-117267503D01*
X121851498Y-117572731D01*
X121851500Y-117572745D01*
X121911176Y-117872748D01*
X121911178Y-117872758D01*
X122009498Y-118162400D01*
X122009504Y-118162414D01*
X122144792Y-118436751D01*
X122314731Y-118691084D01*
X122314734Y-118691088D01*
X122314736Y-118691091D01*
X122314738Y-118691093D01*
X122329146Y-118707522D01*
X122516425Y-118921074D01*
X122571735Y-118969579D01*
X122746407Y-119122762D01*
X122746409Y-119122763D01*
X122746411Y-119122765D01*
X122746415Y-119122768D01*
X122914417Y-119235023D01*
X123000746Y-119292706D01*
X123275092Y-119427999D01*
X123564750Y-119526324D01*
X123864764Y-119586001D01*
X124039184Y-119597433D01*
X124169997Y-119606007D01*
X124170000Y-119606007D01*
X124170003Y-119606007D01*
X124284463Y-119598504D01*
X124475236Y-119586001D01*
X124775250Y-119526324D01*
X125064908Y-119427999D01*
X125339254Y-119292706D01*
X125593593Y-119122762D01*
X125823574Y-118921074D01*
X126025262Y-118691093D01*
X126195206Y-118436754D01*
X126330499Y-118162408D01*
X126428824Y-117872750D01*
X126488501Y-117572736D01*
X126504803Y-117324014D01*
X126508507Y-117267503D01*
X126508507Y-117267496D01*
X126488501Y-116962268D01*
X126488501Y-116962264D01*
X126428824Y-116662250D01*
X126330499Y-116372592D01*
X126195206Y-116098247D01*
X126025262Y-115843907D01*
X125823574Y-115613926D01*
X125823571Y-115613924D01*
X125823570Y-115613922D01*
X125593588Y-115412234D01*
X125593584Y-115412231D01*
X125339251Y-115242292D01*
X125064914Y-115107004D01*
X125064908Y-115107001D01*
X125064903Y-115106999D01*
X125064900Y-115106998D01*
X124775258Y-115008678D01*
X124775252Y-115008676D01*
X124775250Y-115008676D01*
X124674789Y-114988693D01*
X124475245Y-114949000D01*
X124475231Y-114948998D01*
X124170003Y-114928993D01*
X124169997Y-114928993D01*
X123864768Y-114948998D01*
X123864754Y-114949000D01*
X123614980Y-114998684D01*
X123564750Y-115008676D01*
X123564748Y-115008676D01*
X123564741Y-115008678D01*
X123275099Y-115106998D01*
X123275091Y-115107001D01*
X123000741Y-115242297D01*
X122746409Y-115412236D01*
X122516426Y-115613926D01*
X122314736Y-115843909D01*
X122144797Y-116098241D01*
X122009501Y-116372591D01*
X122009498Y-116372599D01*
X121911178Y-116662241D01*
X121911176Y-116662251D01*
X121851500Y-116962254D01*
X121851498Y-116962268D01*
X121831493Y-117267496D01*
X114558500Y-117267496D01*
X114558500Y-111997496D01*
X121831493Y-111997496D01*
X121831493Y-111997503D01*
X121851498Y-112302731D01*
X121851500Y-112302745D01*
X121911176Y-112602748D01*
X121911178Y-112602758D01*
X122009498Y-112892400D01*
X122009504Y-112892414D01*
X122144792Y-113166751D01*
X122314731Y-113421084D01*
X122314734Y-113421088D01*
X122516425Y-113651074D01*
X122662063Y-113778794D01*
X122746407Y-113852762D01*
X122746409Y-113852763D01*
X122746411Y-113852765D01*
X122746415Y-113852768D01*
X122899725Y-113955206D01*
X123000746Y-114022706D01*
X123275092Y-114157999D01*
X123564750Y-114256324D01*
X123864764Y-114316001D01*
X124039184Y-114327433D01*
X124169997Y-114336007D01*
X124170000Y-114336007D01*
X124170003Y-114336007D01*
X124284463Y-114328504D01*
X124475236Y-114316001D01*
X124775250Y-114256324D01*
X125064908Y-114157999D01*
X125339254Y-114022706D01*
X125593593Y-113852762D01*
X125823574Y-113651074D01*
X126025262Y-113421093D01*
X126195206Y-113166754D01*
X126330499Y-112892408D01*
X126428824Y-112602750D01*
X126488501Y-112302736D01*
X126508507Y-111997500D01*
X126507753Y-111986000D01*
X126493696Y-111771530D01*
X126488501Y-111692264D01*
X126428824Y-111392250D01*
X126330499Y-111102592D01*
X126195206Y-110828247D01*
X126025262Y-110573907D01*
X125823574Y-110343926D01*
X125823571Y-110343924D01*
X125823570Y-110343922D01*
X125647516Y-110189527D01*
X125593593Y-110142238D01*
X125593591Y-110142236D01*
X125593588Y-110142234D01*
X125593584Y-110142231D01*
X125339251Y-109972292D01*
X125064914Y-109837004D01*
X125064908Y-109837001D01*
X125064903Y-109836999D01*
X125064900Y-109836998D01*
X124775258Y-109738678D01*
X124775252Y-109738676D01*
X124775250Y-109738676D01*
X124674789Y-109718693D01*
X124475245Y-109679000D01*
X124475231Y-109678998D01*
X124170003Y-109658993D01*
X124169997Y-109658993D01*
X123864768Y-109678998D01*
X123864754Y-109679000D01*
X123614980Y-109728684D01*
X123564750Y-109738676D01*
X123564748Y-109738676D01*
X123564741Y-109738678D01*
X123275099Y-109836998D01*
X123275091Y-109837001D01*
X123000741Y-109972297D01*
X122746409Y-110142236D01*
X122516426Y-110343926D01*
X122314736Y-110573909D01*
X122144797Y-110828241D01*
X122009501Y-111102591D01*
X122009498Y-111102599D01*
X121911178Y-111392241D01*
X121911176Y-111392251D01*
X121851500Y-111692254D01*
X121851498Y-111692268D01*
X121831493Y-111997496D01*
X114558500Y-111997496D01*
X114558500Y-110706888D01*
X114578502Y-110638767D01*
X114632158Y-110592274D01*
X114702432Y-110582170D01*
X114737751Y-110592694D01*
X114848087Y-110644145D01*
X114848096Y-110644149D01*
X115060712Y-110701119D01*
X115280000Y-110720304D01*
X115499287Y-110701119D01*
X115711903Y-110644149D01*
X115711907Y-110644147D01*
X115911399Y-110551122D01*
X115971987Y-110508697D01*
X115971987Y-110508696D01*
X115364124Y-109900833D01*
X115453694Y-109876833D01*
X115556306Y-109817590D01*
X115640090Y-109733806D01*
X115699333Y-109631194D01*
X115723333Y-109541624D01*
X116331196Y-110149487D01*
X116331197Y-110149487D01*
X116332287Y-110147932D01*
X116387744Y-110103604D01*
X116458364Y-110096295D01*
X116521724Y-110128326D01*
X116557709Y-110189527D01*
X116561500Y-110220203D01*
X116561500Y-111526149D01*
X116568009Y-111586696D01*
X116568011Y-111586704D01*
X116619110Y-111723702D01*
X116619112Y-111723707D01*
X116706738Y-111840761D01*
X116823792Y-111928387D01*
X116823794Y-111928388D01*
X116823796Y-111928389D01*
X116882875Y-111950424D01*
X116960795Y-111979488D01*
X116960803Y-111979490D01*
X117021350Y-111985999D01*
X117021355Y-111985999D01*
X117021362Y-111986000D01*
X117021368Y-111986000D01*
X118618632Y-111986000D01*
X118618638Y-111986000D01*
X118618645Y-111985999D01*
X118618649Y-111985999D01*
X118679196Y-111979490D01*
X118679199Y-111979489D01*
X118679201Y-111979489D01*
X118816204Y-111928389D01*
X118933261Y-111840761D01*
X118985087Y-111771530D01*
X119020887Y-111723707D01*
X119020887Y-111723706D01*
X119020889Y-111723704D01*
X119071989Y-111586701D01*
X119078500Y-111526138D01*
X119078500Y-109928862D01*
X119078499Y-109928850D01*
X119071990Y-109868303D01*
X119071988Y-109868295D01*
X119023642Y-109738678D01*
X119020889Y-109731296D01*
X119020888Y-109731294D01*
X119020887Y-109731292D01*
X118933261Y-109614238D01*
X118816207Y-109526612D01*
X118816202Y-109526610D01*
X118679204Y-109475511D01*
X118679196Y-109475509D01*
X118618649Y-109469000D01*
X118618638Y-109469000D01*
X118583576Y-109469000D01*
X118515455Y-109448998D01*
X118468962Y-109395342D01*
X118458858Y-109325068D01*
X118488352Y-109260488D01*
X118511306Y-109239787D01*
X118523098Y-109231530D01*
X118632038Y-109155249D01*
X118787749Y-108999538D01*
X118914056Y-108819154D01*
X119007120Y-108619576D01*
X119064115Y-108406871D01*
X119083307Y-108187500D01*
X119064115Y-107968129D01*
X119007120Y-107755424D01*
X118914056Y-107555847D01*
X118787749Y-107375462D01*
X118632038Y-107219751D01*
X118451654Y-107093444D01*
X118451648Y-107093441D01*
X118451648Y-107093440D01*
X118319232Y-107031695D01*
X118265946Y-106984778D01*
X118246485Y-106916501D01*
X118267026Y-106848541D01*
X118319232Y-106803305D01*
X118451648Y-106741559D01*
X118451648Y-106741558D01*
X118451654Y-106741556D01*
X118632038Y-106615249D01*
X118787749Y-106459538D01*
X118914056Y-106279154D01*
X119007120Y-106079576D01*
X119064115Y-105866871D01*
X119083307Y-105647500D01*
X119064115Y-105428129D01*
X119007120Y-105215424D01*
X118914056Y-105015847D01*
X118787749Y-104835462D01*
X118632038Y-104679751D01*
X118451654Y-104553444D01*
X118451648Y-104553441D01*
X118451648Y-104553440D01*
X118319232Y-104491695D01*
X118265946Y-104444778D01*
X118246485Y-104376501D01*
X118267026Y-104308541D01*
X118319232Y-104263305D01*
X118451648Y-104201559D01*
X118451648Y-104201558D01*
X118451654Y-104201556D01*
X118632038Y-104075249D01*
X118787749Y-103919538D01*
X118914056Y-103739154D01*
X119007120Y-103539576D01*
X119064115Y-103326871D01*
X119083307Y-103107500D01*
X119064115Y-102888129D01*
X119007120Y-102675424D01*
X118914056Y-102475847D01*
X118787749Y-102295462D01*
X118632038Y-102139751D01*
X118451654Y-102013444D01*
X118446829Y-102011194D01*
X118252079Y-101920381D01*
X118252073Y-101920379D01*
X118162178Y-101896291D01*
X118039371Y-101863385D01*
X117820000Y-101844193D01*
X117600629Y-101863385D01*
X117387926Y-101920379D01*
X117387920Y-101920381D01*
X117188346Y-102013444D01*
X117007965Y-102139748D01*
X117007959Y-102139753D01*
X116852253Y-102295459D01*
X116852248Y-102295465D01*
X116725944Y-102475846D01*
X116632881Y-102675420D01*
X116632879Y-102675426D01*
X116577189Y-102883261D01*
X116575885Y-102888129D01*
X116556693Y-103107500D01*
X116575885Y-103326871D01*
X116580006Y-103342249D01*
X116621728Y-103497959D01*
X116632880Y-103539576D01*
X116725944Y-103739154D01*
X116823114Y-103877926D01*
X116852251Y-103919538D01*
X116852254Y-103919542D01*
X117007957Y-104075245D01*
X117007961Y-104075248D01*
X117007962Y-104075249D01*
X117188346Y-104201556D01*
X117276630Y-104242723D01*
X117320768Y-104263305D01*
X117374053Y-104310222D01*
X117393514Y-104378499D01*
X117372972Y-104446459D01*
X117320768Y-104491695D01*
X117188346Y-104553444D01*
X117007965Y-104679748D01*
X117007959Y-104679753D01*
X116852253Y-104835459D01*
X116852248Y-104835465D01*
X116725944Y-105015846D01*
X116632881Y-105215420D01*
X116632879Y-105215426D01*
X116575885Y-105428129D01*
X116556693Y-105647500D01*
X116575885Y-105866871D01*
X116580006Y-105882250D01*
X116621728Y-106037959D01*
X116632880Y-106079576D01*
X116725944Y-106279154D01*
X116823114Y-106417926D01*
X116852251Y-106459538D01*
X116852254Y-106459542D01*
X117007957Y-106615245D01*
X117007961Y-106615248D01*
X117007962Y-106615249D01*
X117188346Y-106741556D01*
X117276630Y-106782723D01*
X117320768Y-106803305D01*
X117374053Y-106850222D01*
X117393514Y-106918499D01*
X117372972Y-106986459D01*
X117320768Y-107031695D01*
X117188346Y-107093444D01*
X117007965Y-107219748D01*
X117007959Y-107219753D01*
X116852253Y-107375459D01*
X116852248Y-107375465D01*
X116725944Y-107555846D01*
X116632881Y-107755420D01*
X116632879Y-107755426D01*
X116575885Y-107968129D01*
X116556693Y-108187500D01*
X116575885Y-108406871D01*
X116580006Y-108422250D01*
X116621728Y-108577959D01*
X116632880Y-108619576D01*
X116725944Y-108819154D01*
X116823114Y-108957926D01*
X116852251Y-108999538D01*
X116852254Y-108999542D01*
X117007957Y-109155245D01*
X117007966Y-109155252D01*
X117128694Y-109239787D01*
X117173023Y-109295244D01*
X117180332Y-109365863D01*
X117148302Y-109429224D01*
X117087100Y-109465209D01*
X117056424Y-109469000D01*
X117021350Y-109469000D01*
X116960803Y-109475509D01*
X116960795Y-109475511D01*
X116823797Y-109526610D01*
X116823793Y-109526612D01*
X116742230Y-109587669D01*
X116675710Y-109612479D01*
X116606336Y-109597387D01*
X116556134Y-109547184D01*
X116541043Y-109477810D01*
X116541202Y-109475814D01*
X116542804Y-109457502D01*
X116523619Y-109238212D01*
X116466649Y-109025596D01*
X116466647Y-109025592D01*
X116373619Y-108826094D01*
X116331199Y-108765511D01*
X116331197Y-108765511D01*
X115723333Y-109373375D01*
X115699333Y-109283806D01*
X115640090Y-109181194D01*
X115556306Y-109097410D01*
X115453694Y-109038167D01*
X115364122Y-109014166D01*
X115971987Y-108406300D01*
X115911403Y-108363879D01*
X115778049Y-108301695D01*
X115724764Y-108254778D01*
X115705303Y-108186500D01*
X115725845Y-108118540D01*
X115778049Y-108073305D01*
X115911399Y-108011122D01*
X115971987Y-107968697D01*
X115971987Y-107968696D01*
X115364124Y-107360833D01*
X115453694Y-107336833D01*
X115556306Y-107277590D01*
X115640090Y-107193806D01*
X115699333Y-107091194D01*
X115723333Y-107001624D01*
X116331196Y-107609487D01*
X116331197Y-107609487D01*
X116373622Y-107548899D01*
X116466647Y-107349407D01*
X116466649Y-107349403D01*
X116523619Y-107136787D01*
X116542804Y-106917500D01*
X116523619Y-106698212D01*
X116466649Y-106485596D01*
X116466647Y-106485592D01*
X116373619Y-106286094D01*
X116331199Y-106225511D01*
X116331197Y-106225511D01*
X115723333Y-106833375D01*
X115699333Y-106743806D01*
X115640090Y-106641194D01*
X115556306Y-106557410D01*
X115453694Y-106498167D01*
X115364122Y-106474166D01*
X115971987Y-105866300D01*
X115911403Y-105823879D01*
X115778049Y-105761695D01*
X115724764Y-105714778D01*
X115705303Y-105646500D01*
X115725845Y-105578540D01*
X115778049Y-105533305D01*
X115911399Y-105471122D01*
X115971987Y-105428697D01*
X115971987Y-105428696D01*
X115364124Y-104820833D01*
X115453694Y-104796833D01*
X115556306Y-104737590D01*
X115640090Y-104653806D01*
X115699333Y-104551194D01*
X115723333Y-104461624D01*
X116331196Y-105069487D01*
X116331197Y-105069487D01*
X116373622Y-105008899D01*
X116466647Y-104809407D01*
X116466649Y-104809403D01*
X116523619Y-104596787D01*
X116542804Y-104377500D01*
X116523619Y-104158212D01*
X116466649Y-103945596D01*
X116466647Y-103945592D01*
X116373619Y-103746094D01*
X116331199Y-103685511D01*
X116331197Y-103685511D01*
X115723333Y-104293375D01*
X115699333Y-104203806D01*
X115640090Y-104101194D01*
X115556306Y-104017410D01*
X115453694Y-103958167D01*
X115364122Y-103934166D01*
X115971987Y-103326300D01*
X115911403Y-103283879D01*
X115778049Y-103221695D01*
X115724764Y-103174778D01*
X115705303Y-103106500D01*
X115725845Y-103038540D01*
X115778049Y-102993305D01*
X115911399Y-102931122D01*
X115971987Y-102888697D01*
X115971987Y-102888696D01*
X115364124Y-102280833D01*
X115453694Y-102256833D01*
X115556306Y-102197590D01*
X115640090Y-102113806D01*
X115699333Y-102011194D01*
X115723333Y-101921624D01*
X116331196Y-102529487D01*
X116331197Y-102529487D01*
X116373622Y-102468899D01*
X116466647Y-102269407D01*
X116466649Y-102269403D01*
X116523619Y-102056787D01*
X116542804Y-101837500D01*
X116523619Y-101618212D01*
X116466649Y-101405596D01*
X116466647Y-101405592D01*
X116373619Y-101206094D01*
X116331199Y-101145511D01*
X116331197Y-101145511D01*
X115723333Y-101753375D01*
X115699333Y-101663806D01*
X115640090Y-101561194D01*
X115556306Y-101477410D01*
X115453694Y-101418167D01*
X115364122Y-101394166D01*
X115971987Y-100786300D01*
X115911403Y-100743879D01*
X115711907Y-100650852D01*
X115711903Y-100650850D01*
X115499287Y-100593880D01*
X115280000Y-100574695D01*
X115060712Y-100593880D01*
X114848096Y-100650850D01*
X114848092Y-100650852D01*
X114737750Y-100702306D01*
X114667559Y-100712967D01*
X114602746Y-100683987D01*
X114563889Y-100624568D01*
X114558500Y-100588111D01*
X114558500Y-100567496D01*
X121831493Y-100567496D01*
X121831493Y-100567503D01*
X121851498Y-100872731D01*
X121851500Y-100872745D01*
X121911176Y-101172748D01*
X121911178Y-101172758D01*
X122009498Y-101462400D01*
X122009504Y-101462414D01*
X122144792Y-101736751D01*
X122314731Y-101991084D01*
X122314734Y-101991088D01*
X122314736Y-101991091D01*
X122314738Y-101991093D01*
X122360332Y-102043083D01*
X122516425Y-102221074D01*
X122615513Y-102307971D01*
X122746407Y-102422762D01*
X122746409Y-102422763D01*
X122746411Y-102422765D01*
X122746415Y-102422768D01*
X122825854Y-102475847D01*
X123000746Y-102592706D01*
X123275092Y-102727999D01*
X123564750Y-102826324D01*
X123864764Y-102886001D01*
X124039184Y-102897433D01*
X124169997Y-102906007D01*
X124170000Y-102906007D01*
X124170003Y-102906007D01*
X124284463Y-102898504D01*
X124475236Y-102886001D01*
X124775250Y-102826324D01*
X125064908Y-102727999D01*
X125339254Y-102592706D01*
X125593593Y-102422762D01*
X125823574Y-102221074D01*
X126025262Y-101991093D01*
X126195206Y-101736754D01*
X126330499Y-101462408D01*
X126428824Y-101172750D01*
X126488501Y-100872736D01*
X126507156Y-100588111D01*
X126508507Y-100567503D01*
X126508507Y-100567496D01*
X126488501Y-100262268D01*
X126488501Y-100262264D01*
X126428824Y-99962250D01*
X126330499Y-99672592D01*
X126195206Y-99398247D01*
X126025262Y-99143907D01*
X125823574Y-98913926D01*
X125823571Y-98913924D01*
X125823570Y-98913922D01*
X125593588Y-98712234D01*
X125593584Y-98712231D01*
X125339251Y-98542292D01*
X125064914Y-98407004D01*
X125064908Y-98407001D01*
X125064903Y-98406999D01*
X125064900Y-98406998D01*
X124775258Y-98308678D01*
X124775252Y-98308676D01*
X124775250Y-98308676D01*
X124674789Y-98288693D01*
X124475245Y-98249000D01*
X124475231Y-98248998D01*
X124170003Y-98228993D01*
X124169997Y-98228993D01*
X123864768Y-98248998D01*
X123864754Y-98249000D01*
X123614980Y-98298684D01*
X123564750Y-98308676D01*
X123564748Y-98308676D01*
X123564741Y-98308678D01*
X123275099Y-98406998D01*
X123275091Y-98407001D01*
X123000741Y-98542297D01*
X122746409Y-98712236D01*
X122516426Y-98913926D01*
X122314736Y-99143909D01*
X122144797Y-99398241D01*
X122009501Y-99672591D01*
X122009498Y-99672599D01*
X121911178Y-99962241D01*
X121911176Y-99962251D01*
X121851500Y-100262254D01*
X121851498Y-100262268D01*
X121831493Y-100567496D01*
X114558500Y-100567496D01*
X114558500Y-82266371D01*
X114578502Y-82198250D01*
X114595405Y-82177276D01*
X116208052Y-80564629D01*
X117989166Y-78783515D01*
X118072174Y-78659284D01*
X118129351Y-78521247D01*
X118158500Y-78374705D01*
X118158500Y-78225295D01*
X118158500Y-69494765D01*
X118178502Y-69426644D01*
X118183624Y-69419266D01*
X118200889Y-69396204D01*
X118251989Y-69259201D01*
X118258500Y-69198638D01*
X118258500Y-66872000D01*
X118278502Y-66803879D01*
X118332158Y-66757386D01*
X118384500Y-66746000D01*
X118415500Y-66746000D01*
X118483621Y-66766002D01*
X118530114Y-66819658D01*
X118541500Y-66872000D01*
X118541500Y-69198649D01*
X118548009Y-69259196D01*
X118548011Y-69259204D01*
X118599109Y-69396201D01*
X118599110Y-69396202D01*
X118599111Y-69396204D01*
X118628868Y-69435954D01*
X118653679Y-69502474D01*
X118654000Y-69511463D01*
X118654000Y-69658000D01*
X118798585Y-69658000D01*
X118798597Y-69657999D01*
X118859094Y-69651494D01*
X118866770Y-69649681D01*
X118867333Y-69652065D01*
X118926059Y-69647862D01*
X118937309Y-69651164D01*
X118940798Y-69651989D01*
X119001350Y-69658499D01*
X119001355Y-69658499D01*
X119001362Y-69658500D01*
X119001368Y-69658500D01*
X119798632Y-69658500D01*
X119798638Y-69658500D01*
X119859201Y-69651989D01*
X119859204Y-69651987D01*
X119866878Y-69650175D01*
X119867349Y-69652169D01*
X119927475Y-69647857D01*
X119935563Y-69650232D01*
X119940906Y-69651494D01*
X120001402Y-69657999D01*
X120001415Y-69658000D01*
X120146000Y-69658000D01*
X120146000Y-69511463D01*
X120166002Y-69443342D01*
X120171132Y-69435954D01*
X120200889Y-69396204D01*
X120251989Y-69259201D01*
X120258500Y-69198638D01*
X120258500Y-64801362D01*
X120258499Y-64801350D01*
X120251990Y-64740803D01*
X120251989Y-64740802D01*
X120251989Y-64740799D01*
X120225593Y-64670031D01*
X120220529Y-64599217D01*
X120254554Y-64536905D01*
X120316867Y-64502880D01*
X120343650Y-64500000D01*
X120924000Y-64500000D01*
X120992121Y-64520002D01*
G37*
%TD.AperFunction*%
%TA.AperFunction,Conductor*%
G36*
X106483621Y-66766002D02*
G01*
X106530114Y-66819658D01*
X106541500Y-66872000D01*
X106541500Y-69198649D01*
X106548009Y-69259196D01*
X106548011Y-69259201D01*
X106599111Y-69396204D01*
X106616367Y-69419255D01*
X106641179Y-69485774D01*
X106641500Y-69494765D01*
X106641500Y-81974707D01*
X106659146Y-82063419D01*
X106670649Y-82121247D01*
X106727826Y-82259284D01*
X106810834Y-82383515D01*
X106810838Y-82383519D01*
X107704595Y-83277276D01*
X107738621Y-83339588D01*
X107741500Y-83366371D01*
X107741500Y-84564629D01*
X107721498Y-84632750D01*
X107667842Y-84679243D01*
X107597568Y-84689347D01*
X107532988Y-84659853D01*
X107526405Y-84653724D01*
X106195405Y-83322724D01*
X106161379Y-83260412D01*
X106158500Y-83233629D01*
X106158500Y-69494765D01*
X106178502Y-69426644D01*
X106183624Y-69419266D01*
X106200889Y-69396204D01*
X106251989Y-69259201D01*
X106258500Y-69198638D01*
X106258500Y-66872000D01*
X106278502Y-66803879D01*
X106332158Y-66757386D01*
X106384500Y-66746000D01*
X106415500Y-66746000D01*
X106483621Y-66766002D01*
G37*
%TD.AperFunction*%
%TA.AperFunction,Conductor*%
G36*
X104483621Y-66766002D02*
G01*
X104530114Y-66819658D01*
X104541500Y-66872000D01*
X104541500Y-69198649D01*
X104548009Y-69259196D01*
X104548011Y-69259201D01*
X104599111Y-69396204D01*
X104616367Y-69419255D01*
X104641179Y-69485774D01*
X104641500Y-69494765D01*
X104641500Y-82454579D01*
X104621498Y-82522700D01*
X104567842Y-82569193D01*
X104497568Y-82579297D01*
X104432988Y-82549803D01*
X104426405Y-82543674D01*
X104195405Y-82312674D01*
X104161379Y-82250362D01*
X104158500Y-82223579D01*
X104158500Y-69494765D01*
X104178502Y-69426644D01*
X104183624Y-69419266D01*
X104200889Y-69396204D01*
X104251989Y-69259201D01*
X104258500Y-69198638D01*
X104258500Y-66872000D01*
X104278502Y-66803879D01*
X104332158Y-66757386D01*
X104384500Y-66746000D01*
X104415500Y-66746000D01*
X104483621Y-66766002D01*
G37*
%TD.AperFunction*%
%TA.AperFunction,Conductor*%
G36*
X102483621Y-66766002D02*
G01*
X102530114Y-66819658D01*
X102541500Y-66872000D01*
X102541500Y-69198649D01*
X102548009Y-69259196D01*
X102548011Y-69259201D01*
X102599111Y-69396204D01*
X102616367Y-69419255D01*
X102641179Y-69485774D01*
X102641500Y-69494765D01*
X102641500Y-81444529D01*
X102621498Y-81512650D01*
X102567842Y-81559143D01*
X102497568Y-81569247D01*
X102432988Y-81539753D01*
X102426405Y-81533624D01*
X102195405Y-81302624D01*
X102161379Y-81240312D01*
X102158500Y-81213529D01*
X102158500Y-69494765D01*
X102178502Y-69426644D01*
X102183624Y-69419266D01*
X102200889Y-69396204D01*
X102251989Y-69259201D01*
X102258500Y-69198638D01*
X102258500Y-66872000D01*
X102278502Y-66803879D01*
X102332158Y-66757386D01*
X102384500Y-66746000D01*
X102415500Y-66746000D01*
X102483621Y-66766002D01*
G37*
%TD.AperFunction*%
%TA.AperFunction,Conductor*%
G36*
X116483621Y-66766002D02*
G01*
X116530114Y-66819658D01*
X116541500Y-66872000D01*
X116541500Y-69198649D01*
X116548009Y-69259196D01*
X116548011Y-69259201D01*
X116599111Y-69396204D01*
X116616367Y-69419255D01*
X116641179Y-69485774D01*
X116641500Y-69494765D01*
X116641500Y-77933629D01*
X116621498Y-78001750D01*
X116604595Y-78022724D01*
X113973595Y-80653724D01*
X113911283Y-80687750D01*
X113840468Y-80682685D01*
X113783632Y-80640138D01*
X113758821Y-80573618D01*
X113758500Y-80564629D01*
X113758500Y-79966371D01*
X113778502Y-79898250D01*
X113795405Y-79877276D01*
X114889168Y-78783513D01*
X115989166Y-77683515D01*
X116072174Y-77559284D01*
X116129351Y-77421246D01*
X116158500Y-77274705D01*
X116158500Y-77125295D01*
X116158500Y-69494765D01*
X116178502Y-69426644D01*
X116183624Y-69419266D01*
X116200889Y-69396204D01*
X116251989Y-69259201D01*
X116258500Y-69198638D01*
X116258500Y-66872000D01*
X116278502Y-66803879D01*
X116332158Y-66757386D01*
X116384500Y-66746000D01*
X116415500Y-66746000D01*
X116483621Y-66766002D01*
G37*
%TD.AperFunction*%
%TA.AperFunction,Conductor*%
G36*
X114483621Y-66766002D02*
G01*
X114530114Y-66819658D01*
X114541500Y-66872000D01*
X114541500Y-69198649D01*
X114548009Y-69259196D01*
X114548011Y-69259201D01*
X114599111Y-69396204D01*
X114616367Y-69419255D01*
X114641179Y-69485774D01*
X114641500Y-69494765D01*
X114641500Y-76833627D01*
X114621498Y-76901748D01*
X114604595Y-76922722D01*
X114373595Y-77153722D01*
X114311283Y-77187748D01*
X114240468Y-77182683D01*
X114183632Y-77140136D01*
X114158821Y-77073616D01*
X114158500Y-77064627D01*
X114158500Y-69494765D01*
X114178502Y-69426644D01*
X114183624Y-69419266D01*
X114200889Y-69396204D01*
X114251989Y-69259201D01*
X114258500Y-69198638D01*
X114258500Y-66872000D01*
X114278502Y-66803879D01*
X114332158Y-66757386D01*
X114384500Y-66746000D01*
X114415500Y-66746000D01*
X114483621Y-66766002D01*
G37*
%TD.AperFunction*%
%TA.AperFunction,Conductor*%
G36*
X112483621Y-66766002D02*
G01*
X112530114Y-66819658D01*
X112541500Y-66872000D01*
X112541500Y-69198649D01*
X112548009Y-69259196D01*
X112548011Y-69259201D01*
X112599111Y-69396204D01*
X112616367Y-69419255D01*
X112641179Y-69485774D01*
X112641500Y-69494765D01*
X112641500Y-76733629D01*
X112621498Y-76801750D01*
X112604595Y-76822724D01*
X112373595Y-77053724D01*
X112311283Y-77087750D01*
X112240468Y-77082685D01*
X112183632Y-77040138D01*
X112158821Y-76973618D01*
X112158500Y-76964629D01*
X112158500Y-69494765D01*
X112178502Y-69426644D01*
X112183624Y-69419266D01*
X112200889Y-69396204D01*
X112251989Y-69259201D01*
X112258500Y-69198638D01*
X112258500Y-66872000D01*
X112278502Y-66803879D01*
X112332158Y-66757386D01*
X112384500Y-66746000D01*
X112415500Y-66746000D01*
X112483621Y-66766002D01*
G37*
%TD.AperFunction*%
%TD*%
M02*
