%TF.GenerationSoftware,KiCad,Pcbnew,8.0.4-8.0.4-0~ubuntu22.04.1*%
%TF.CreationDate,2024-08-22T22:04:31-07:00*%
%TF.ProjectId,siglent-la,7369676c-656e-4742-9d6c-612e6b696361,rev?*%
%TF.SameCoordinates,Original*%
%TF.FileFunction,Copper,L4,Bot*%
%TF.FilePolarity,Positive*%
%FSLAX46Y46*%
G04 Gerber Fmt 4.6, Leading zero omitted, Abs format (unit mm)*
G04 Created by KiCad (PCBNEW 8.0.4-8.0.4-0~ubuntu22.04.1) date 2024-08-22 22:04:31*
%MOMM*%
%LPD*%
G01*
G04 APERTURE LIST*
G04 Aperture macros list*
%AMRoundRect*
0 Rectangle with rounded corners*
0 $1 Rounding radius*
0 $2 $3 $4 $5 $6 $7 $8 $9 X,Y pos of 4 corners*
0 Add a 4 corners polygon primitive as box body*
4,1,4,$2,$3,$4,$5,$6,$7,$8,$9,$2,$3,0*
0 Add four circle primitives for the rounded corners*
1,1,$1+$1,$2,$3*
1,1,$1+$1,$4,$5*
1,1,$1+$1,$6,$7*
1,1,$1+$1,$8,$9*
0 Add four rect primitives between the rounded corners*
20,1,$1+$1,$2,$3,$4,$5,0*
20,1,$1+$1,$4,$5,$6,$7,0*
20,1,$1+$1,$6,$7,$8,$9,0*
20,1,$1+$1,$8,$9,$2,$3,0*%
G04 Aperture macros list end*
%TA.AperFunction,SMDPad,CuDef*%
%ADD10R,1.000000X1.000000*%
%TD*%
%TA.AperFunction,SMDPad,CuDef*%
%ADD11R,1.050000X2.200000*%
%TD*%
%TA.AperFunction,ConnectorPad*%
%ADD12R,0.700000X4.300000*%
%TD*%
%TA.AperFunction,ConnectorPad*%
%ADD13R,0.700000X3.200000*%
%TD*%
%TA.AperFunction,SMDPad,CuDef*%
%ADD14RoundRect,0.200000X0.275000X-0.200000X0.275000X0.200000X-0.275000X0.200000X-0.275000X-0.200000X0*%
%TD*%
%TA.AperFunction,SMDPad,CuDef*%
%ADD15RoundRect,0.225000X0.250000X-0.225000X0.250000X0.225000X-0.250000X0.225000X-0.250000X-0.225000X0*%
%TD*%
%TA.AperFunction,ViaPad*%
%ADD16C,0.800000*%
%TD*%
%TA.AperFunction,Conductor*%
%ADD17C,0.500000*%
%TD*%
G04 APERTURE END LIST*
D10*
%TO.P,J12,1,In*%
%TO.N,Net-(J12-In)*%
X118925000Y-84300000D03*
D11*
%TO.P,J12,2,Ext*%
%TO.N,GND*%
X120400000Y-85800000D03*
D10*
X118925000Y-87300000D03*
D11*
X117450000Y-85800000D03*
%TD*%
D10*
%TO.P,J10,1,In*%
%TO.N,Net-(J10-In)*%
X119075000Y-99300000D03*
D11*
%TO.P,J10,2,Ext*%
%TO.N,GND*%
X120550000Y-100800000D03*
D10*
X119075000Y-102300000D03*
D11*
X117600000Y-100800000D03*
%TD*%
D10*
%TO.P,J9,1,In*%
%TO.N,Net-(J9-In)*%
X113400000Y-99400000D03*
D11*
%TO.P,J9,2,Ext*%
%TO.N,GND*%
X114875000Y-100900000D03*
D10*
X113400000Y-102400000D03*
D11*
X111925000Y-100900000D03*
%TD*%
D10*
%TO.P,J8,1,In*%
%TO.N,Net-(J8-In)*%
X112900000Y-84400000D03*
D11*
%TO.P,J8,2,Ext*%
%TO.N,GND*%
X114375000Y-85900000D03*
D10*
X112900000Y-87400000D03*
D11*
X111425000Y-85900000D03*
%TD*%
D10*
%TO.P,J7,1,In*%
%TO.N,Net-(J7-In)*%
X108100000Y-84400000D03*
D11*
%TO.P,J7,2,Ext*%
%TO.N,GND*%
X109575000Y-85900000D03*
D10*
X108100000Y-87400000D03*
D11*
X106625000Y-85900000D03*
%TD*%
D10*
%TO.P,J6,1,In*%
%TO.N,Net-(J6-In)*%
X107700000Y-99400000D03*
D11*
%TO.P,J6,2,Ext*%
%TO.N,GND*%
X109175000Y-100900000D03*
D10*
X107700000Y-102400000D03*
D11*
X106225000Y-100900000D03*
%TD*%
D10*
%TO.P,J3,1,In*%
%TO.N,Net-(J3-In)*%
X102600000Y-99400000D03*
D11*
%TO.P,J3,2,Ext*%
%TO.N,GND*%
X104075000Y-100900000D03*
D10*
X102600000Y-102400000D03*
D11*
X101125000Y-100900000D03*
%TD*%
D10*
%TO.P,J2,1,In*%
%TO.N,Net-(J2-In)*%
X102500000Y-84400000D03*
D11*
%TO.P,J2,2,Ext*%
%TO.N,GND*%
X103975000Y-85900000D03*
D10*
X102500000Y-87400000D03*
D11*
X101025000Y-85900000D03*
%TD*%
D12*
%TO.P,J1,A18,GND*%
%TO.N,/input0/OUT*%
X101400000Y-67000000D03*
%TO.P,J1,A17,PERn0*%
%TO.N,GND*%
X102400000Y-67000000D03*
%TO.P,J1,A16,PERp0*%
%TO.N,/input1/OUT*%
X103400000Y-67000000D03*
%TO.P,J1,A15,GND*%
%TO.N,GND*%
X104400000Y-67000000D03*
%TO.P,J1,A14,REFCLK-*%
%TO.N,/input2/OUT*%
X105400000Y-67000000D03*
%TO.P,J1,A13,REFCLK+*%
%TO.N,GND*%
X106400000Y-67000000D03*
%TO.P,J1,A12,GND*%
%TO.N,/input3/OUT*%
X107400000Y-67000000D03*
%TO.P,J1,A11,~{PERST}*%
%TO.N,GND*%
X110400000Y-67000000D03*
%TO.P,J1,A10,+3.3V*%
%TO.N,/input4/OUT*%
X111400000Y-67000000D03*
%TO.P,J1,A9,+3.3V*%
%TO.N,GND*%
X112400000Y-67000000D03*
%TO.P,J1,A8,JTAG5*%
%TO.N,/input5/OUT*%
X113400000Y-67000000D03*
%TO.P,J1,A7,JTAG4*%
%TO.N,GND*%
X114400000Y-67000000D03*
%TO.P,J1,A6,JTAG3*%
%TO.N,/input6/OUT*%
X115400000Y-67000000D03*
%TO.P,J1,A5,JTAG2*%
%TO.N,GND*%
X116400000Y-67000000D03*
%TO.P,J1,A4,GND*%
%TO.N,/input7/OUT*%
X117400000Y-67000000D03*
%TO.P,J1,A3,+12V*%
%TO.N,GND*%
X118400000Y-67000000D03*
%TO.P,J1,A2,+12V*%
%TO.N,unconnected-(J1-+12V-PadA2)*%
X119400000Y-67000000D03*
D13*
%TO.P,J1,A1,~{PRSNT1}*%
%TO.N,GND*%
X120400000Y-67550000D03*
%TD*%
D14*
%TO.P,R16,1*%
%TO.N,Net-(C8-Pad1)*%
X119000000Y-76125000D03*
%TO.P,R16,2*%
%TO.N,/input7/OUT*%
X119000000Y-74475000D03*
%TD*%
%TO.P,R10,1*%
%TO.N,Net-(C5-Pad1)*%
X113000000Y-76325000D03*
%TO.P,R10,2*%
%TO.N,/input4/OUT*%
X113000000Y-74675000D03*
%TD*%
D15*
%TO.P,C2,1*%
%TO.N,Net-(C2-Pad1)*%
X104500000Y-76275000D03*
%TO.P,C2,2*%
%TO.N,/input1/OUT*%
X104500000Y-74725000D03*
%TD*%
%TO.P,C8,1*%
%TO.N,Net-(C8-Pad1)*%
X119000000Y-76075000D03*
%TO.P,C8,2*%
%TO.N,/input7/OUT*%
X119000000Y-74525000D03*
%TD*%
D14*
%TO.P,R7,1*%
%TO.N,Net-(J7-In)*%
X108500000Y-79650000D03*
%TO.P,R7,2*%
%TO.N,Net-(C4-Pad1)*%
X108500000Y-78000000D03*
%TD*%
D15*
%TO.P,C5,1*%
%TO.N,Net-(C5-Pad1)*%
X113000000Y-76275000D03*
%TO.P,C5,2*%
%TO.N,/input4/OUT*%
X113000000Y-74725000D03*
%TD*%
D14*
%TO.P,R15,1*%
%TO.N,Net-(J12-In)*%
X119000000Y-79600000D03*
%TO.P,R15,2*%
%TO.N,Net-(C8-Pad1)*%
X119000000Y-77950000D03*
%TD*%
D15*
%TO.P,C3,1*%
%TO.N,Net-(C3-Pad1)*%
X106500000Y-76225000D03*
%TO.P,C3,2*%
%TO.N,/input2/OUT*%
X106500000Y-74675000D03*
%TD*%
D14*
%TO.P,R13,1*%
%TO.N,Net-(J10-In)*%
X117100000Y-79650000D03*
%TO.P,R13,2*%
%TO.N,Net-(C7-Pad1)*%
X117100000Y-78000000D03*
%TD*%
D15*
%TO.P,C6,1*%
%TO.N,Net-(C6-Pad1)*%
X115000000Y-76300000D03*
%TO.P,C6,2*%
%TO.N,/input5/OUT*%
X115000000Y-74750000D03*
%TD*%
D14*
%TO.P,R8,1*%
%TO.N,Net-(C4-Pad1)*%
X108500000Y-76325000D03*
%TO.P,R8,2*%
%TO.N,/input3/OUT*%
X108500000Y-74675000D03*
%TD*%
%TO.P,R1,1*%
%TO.N,Net-(J2-In)*%
X102500000Y-79650000D03*
%TO.P,R1,2*%
%TO.N,Net-(C1-Pad1)*%
X102500000Y-78000000D03*
%TD*%
D15*
%TO.P,C4,1*%
%TO.N,Net-(C4-Pad1)*%
X108500000Y-76275000D03*
%TO.P,C4,2*%
%TO.N,/input3/OUT*%
X108500000Y-74725000D03*
%TD*%
D14*
%TO.P,R12,1*%
%TO.N,Net-(C6-Pad1)*%
X115000000Y-76350000D03*
%TO.P,R12,2*%
%TO.N,/input5/OUT*%
X115000000Y-74700000D03*
%TD*%
%TO.P,R6,1*%
%TO.N,Net-(C3-Pad1)*%
X106500000Y-76325000D03*
%TO.P,R6,2*%
%TO.N,/input2/OUT*%
X106500000Y-74675000D03*
%TD*%
%TO.P,R9,1*%
%TO.N,Net-(J8-In)*%
X113000000Y-79625000D03*
%TO.P,R9,2*%
%TO.N,Net-(C5-Pad1)*%
X113000000Y-77975000D03*
%TD*%
%TO.P,R2,1*%
%TO.N,Net-(C1-Pad1)*%
X102500000Y-76325000D03*
%TO.P,R2,2*%
%TO.N,/input0/OUT*%
X102500000Y-74675000D03*
%TD*%
%TO.P,R5,1*%
%TO.N,Net-(J6-In)*%
X106500000Y-79650000D03*
%TO.P,R5,2*%
%TO.N,Net-(C3-Pad1)*%
X106500000Y-78000000D03*
%TD*%
D15*
%TO.P,C7,1*%
%TO.N,Net-(C7-Pad1)*%
X117000000Y-76175000D03*
%TO.P,C7,2*%
%TO.N,/input6/OUT*%
X117000000Y-74625000D03*
%TD*%
D14*
%TO.P,R14,1*%
%TO.N,Net-(C7-Pad1)*%
X117000000Y-76325000D03*
%TO.P,R14,2*%
%TO.N,/input6/OUT*%
X117000000Y-74675000D03*
%TD*%
%TO.P,R4,1*%
%TO.N,Net-(C2-Pad1)*%
X104500000Y-76325000D03*
%TO.P,R4,2*%
%TO.N,/input1/OUT*%
X104500000Y-74675000D03*
%TD*%
%TO.P,R11,1*%
%TO.N,Net-(J9-In)*%
X115000000Y-79650000D03*
%TO.P,R11,2*%
%TO.N,Net-(C6-Pad1)*%
X115000000Y-78000000D03*
%TD*%
%TO.P,R3,1*%
%TO.N,Net-(J3-In)*%
X104500000Y-79650000D03*
%TO.P,R3,2*%
%TO.N,Net-(C2-Pad1)*%
X104500000Y-78000000D03*
%TD*%
D15*
%TO.P,C1,1*%
%TO.N,Net-(C1-Pad1)*%
X102500000Y-76250000D03*
%TO.P,C1,2*%
%TO.N,/input0/OUT*%
X102500000Y-74700000D03*
%TD*%
D16*
%TO.N,GND*%
X102500000Y-70500000D03*
X110500000Y-70250000D03*
X106500000Y-70500000D03*
X116400000Y-70150000D03*
X112500000Y-70250000D03*
X118500000Y-70250000D03*
X104500000Y-70500000D03*
X114500000Y-70250000D03*
X120250000Y-70250000D03*
%TD*%
D17*
%TO.N,Net-(J12-In)*%
X119000000Y-79600000D02*
X119000000Y-81960000D01*
X119000000Y-81960000D02*
X118925000Y-82035000D01*
X118925000Y-82035000D02*
X118925000Y-84300000D01*
%TO.N,Net-(J10-In)*%
X117100000Y-81600000D02*
X117100000Y-81860000D01*
X117100000Y-79650000D02*
X117100000Y-81600000D01*
X116475000Y-96700000D02*
X119075000Y-99300000D01*
X117100000Y-81600000D02*
X116475000Y-82225000D01*
X116475000Y-82225000D02*
X116475000Y-96700000D01*
%TO.N,Net-(J9-In)*%
X115000000Y-81600000D02*
X115000000Y-81960000D01*
X115000000Y-79650000D02*
X115000000Y-81600000D01*
X115000000Y-81600000D02*
X115350000Y-81950000D01*
X115350000Y-81950000D02*
X115350000Y-97450000D01*
X115350000Y-97450000D02*
X113400000Y-99400000D01*
%TO.N,Net-(J8-In)*%
X113000000Y-81960000D02*
X112900000Y-82060000D01*
X112900000Y-82060000D02*
X112900000Y-84400000D01*
%TO.N,Net-(J7-In)*%
X108500000Y-82000000D02*
X108100000Y-82400000D01*
X108100000Y-82400000D02*
X108100000Y-84400000D01*
%TO.N,Net-(J2-In)*%
X102500000Y-79650000D02*
X102500000Y-84400000D01*
%TO.N,Net-(J6-In)*%
X106500000Y-81960000D02*
X105650000Y-82810000D01*
X105650000Y-82810000D02*
X105650000Y-97350000D01*
X105650000Y-97350000D02*
X107700000Y-99400000D01*
%TO.N,Net-(J3-In)*%
X104500000Y-82000000D02*
X104950000Y-82450000D01*
X104950000Y-82450000D02*
X104950000Y-97050000D01*
X104950000Y-97050000D02*
X102600000Y-99400000D01*
%TO.N,Net-(C1-Pad1)*%
X102500000Y-76250000D02*
X102500000Y-78000000D01*
%TO.N,/input0/OUT*%
X102500000Y-74200000D02*
X102500000Y-74675000D01*
X101400000Y-67000000D02*
X101400000Y-73100000D01*
X101400000Y-73100000D02*
X102500000Y-74200000D01*
%TO.N,Net-(C2-Pad1)*%
X104500000Y-76275000D02*
X104500000Y-78000000D01*
%TO.N,/input1/OUT*%
X104500000Y-73550000D02*
X104500000Y-74725000D01*
X103400000Y-67000000D02*
X103400000Y-72450000D01*
X103400000Y-72450000D02*
X104500000Y-73550000D01*
%TO.N,Net-(C3-Pad1)*%
X106500000Y-76225000D02*
X106500000Y-78000000D01*
%TO.N,/input2/OUT*%
X105400000Y-67000000D02*
X105400000Y-71900000D01*
X105400000Y-71900000D02*
X106600000Y-73100000D01*
X106600000Y-73100000D02*
X106600000Y-74575000D01*
X106600000Y-74575000D02*
X106500000Y-74675000D01*
%TO.N,Net-(C4-Pad1)*%
X108500000Y-76275000D02*
X108500000Y-78000000D01*
%TO.N,/input3/OUT*%
X107400000Y-67000000D02*
X107400000Y-71700000D01*
X107400000Y-71700000D02*
X108500000Y-72800000D01*
X108500000Y-72800000D02*
X108500000Y-74675000D01*
%TO.N,Net-(C5-Pad1)*%
X113000000Y-76275000D02*
X113000000Y-77975000D01*
%TO.N,/input4/OUT*%
X112900000Y-74625000D02*
X113000000Y-74725000D01*
X111400000Y-73075000D02*
X113000000Y-74675000D01*
X111400000Y-67000000D02*
X111400000Y-73075000D01*
%TO.N,Net-(C6-Pad1)*%
X115000000Y-76300000D02*
X115000000Y-78000000D01*
%TO.N,/input5/OUT*%
X113400000Y-71950000D02*
X115000000Y-73550000D01*
X114900000Y-74600000D02*
X115000000Y-74700000D01*
X115000000Y-73550000D02*
X115000000Y-74700000D01*
X113400000Y-67000000D02*
X113400000Y-71950000D01*
%TO.N,Net-(C7-Pad1)*%
X117000000Y-77900000D02*
X117100000Y-78000000D01*
X117000000Y-76325000D02*
X117000000Y-77900000D01*
%TO.N,/input6/OUT*%
X115400000Y-71300000D02*
X117000000Y-72900000D01*
X115400000Y-67000000D02*
X115400000Y-71300000D01*
X117000000Y-72900000D02*
X117000000Y-74625000D01*
X116900000Y-74525000D02*
X117000000Y-74625000D01*
%TO.N,Net-(C8-Pad1)*%
X119000000Y-76125000D02*
X119000000Y-77950000D01*
%TO.N,/input7/OUT*%
X119000000Y-72426041D02*
X119000000Y-74475000D01*
X117400000Y-67000000D02*
X117400000Y-70826041D01*
X117400000Y-70826041D02*
X119000000Y-72426041D01*
X118900000Y-74375000D02*
X119000000Y-74475000D01*
%TO.N,GND*%
X104400000Y-70400000D02*
X104400000Y-67000000D01*
X120400000Y-67550000D02*
X120400000Y-70100000D01*
X118400000Y-67000000D02*
X118400000Y-70150000D01*
X110500000Y-70250000D02*
X110400000Y-70150000D01*
X102400000Y-67000000D02*
X102400000Y-70400000D01*
X118400000Y-70150000D02*
X118500000Y-70250000D01*
X102400000Y-70400000D02*
X102500000Y-70500000D01*
X114500000Y-70250000D02*
X114400000Y-70150000D01*
X104500000Y-70500000D02*
X104400000Y-70400000D01*
X114400000Y-70150000D02*
X114400000Y-67000000D01*
X110400000Y-70150000D02*
X110400000Y-67000000D01*
X120400000Y-70100000D02*
X120250000Y-70250000D01*
X106400000Y-70400000D02*
X106400000Y-67000000D01*
X112400000Y-67000000D02*
X112400000Y-70150000D01*
X106500000Y-70500000D02*
X106400000Y-70400000D01*
X112400000Y-70150000D02*
X112500000Y-70250000D01*
%TO.N,Net-(J3-In)*%
X104500000Y-79650000D02*
X104500000Y-82000000D01*
%TO.N,Net-(J6-In)*%
X106500000Y-79650000D02*
X106500000Y-81960000D01*
%TO.N,Net-(J7-In)*%
X108500000Y-79650000D02*
X108500000Y-82000000D01*
%TO.N,Net-(J8-In)*%
X113000000Y-79625000D02*
X113000000Y-81960000D01*
%TD*%
M02*
