%TF.GenerationSoftware,KiCad,Pcbnew,8.0.5-8.0.5-0~ubuntu22.04.1*%
%TF.CreationDate,2024-10-05T09:37:12-07:00*%
%TF.ProjectId,siglent-la,7369676c-656e-4742-9d6c-612e6b696361,rev?*%
%TF.SameCoordinates,Original*%
%TF.FileFunction,Legend,Bot*%
%TF.FilePolarity,Positive*%
%FSLAX46Y46*%
G04 Gerber Fmt 4.6, Leading zero omitted, Abs format (unit mm)*
G04 Created by KiCad (PCBNEW 8.0.5-8.0.5-0~ubuntu22.04.1) date 2024-10-05 09:37:12*
%MOMM*%
%LPD*%
G01*
G04 APERTURE LIST*
%ADD10C,3.650000*%
%ADD11R,1.500000X1.500000*%
%ADD12C,1.500000*%
%ADD13R,0.700000X4.300000*%
%ADD14R,0.700000X3.200000*%
G04 APERTURE END LIST*
D10*
%TO.C,J104*%
X95600000Y-100500000D03*
X95600000Y-111930000D03*
%TD*%
%TO.C,J103*%
X124170000Y-111997500D03*
X124170000Y-100567500D03*
%TD*%
%TO.C,J102*%
X95490000Y-117190000D03*
X95490000Y-128620000D03*
%TD*%
%TO.C,J101*%
X124170000Y-128697500D03*
X124170000Y-117267500D03*
%TD*%
%LPC*%
%TO.C,J104*%
X95600000Y-100500000D03*
X95600000Y-111930000D03*
D11*
X101950000Y-101770000D03*
D12*
X104490000Y-103040000D03*
X101950000Y-104310000D03*
X104490000Y-105580000D03*
X101950000Y-106850000D03*
X104490000Y-108120000D03*
X101950000Y-109390000D03*
X104490000Y-110660000D03*
%TD*%
D10*
%TO.C,J103*%
X124170000Y-111997500D03*
X124170000Y-100567500D03*
D11*
X117820000Y-110727500D03*
D12*
X115280000Y-109457500D03*
X117820000Y-108187500D03*
X115280000Y-106917500D03*
X117820000Y-105647500D03*
X115280000Y-104377500D03*
X117820000Y-103107500D03*
X115280000Y-101837500D03*
%TD*%
D10*
%TO.C,J102*%
X95490000Y-117190000D03*
X95490000Y-128620000D03*
D11*
X101840000Y-118460000D03*
D12*
X104380000Y-119730000D03*
X101840000Y-121000000D03*
X104380000Y-122270000D03*
X101840000Y-123540000D03*
X104380000Y-124810000D03*
X101840000Y-126080000D03*
X104380000Y-127350000D03*
%TD*%
D10*
%TO.C,J101*%
X124170000Y-128697500D03*
X124170000Y-117267500D03*
D11*
X117820000Y-127427500D03*
D12*
X115280000Y-126157500D03*
X117820000Y-124887500D03*
X115280000Y-123617500D03*
X117820000Y-122347500D03*
X115280000Y-121077500D03*
X117820000Y-119807500D03*
X115280000Y-118537500D03*
%TD*%
D13*
%TO.C,J1*%
X101400000Y-67000000D03*
X102400000Y-67000000D03*
X103400000Y-67000000D03*
X104400000Y-67000000D03*
X105400000Y-67000000D03*
X106400000Y-67000000D03*
X107400000Y-67000000D03*
X110400000Y-67000000D03*
X111400000Y-67000000D03*
X112400000Y-67000000D03*
X113400000Y-67000000D03*
X114400000Y-67000000D03*
X115400000Y-67000000D03*
X116400000Y-67000000D03*
X117400000Y-67000000D03*
X118400000Y-67000000D03*
X119400000Y-67000000D03*
D14*
X120400000Y-67550000D03*
%TD*%
%LPD*%
M02*
