%TF.GenerationSoftware,KiCad,Pcbnew,8.0.5-8.0.5-0~ubuntu22.04.1*%
%TF.CreationDate,2024-10-05T09:37:12-07:00*%
%TF.ProjectId,siglent-la,7369676c-656e-4742-9d6c-612e6b696361,rev?*%
%TF.SameCoordinates,Original*%
%TF.FileFunction,Copper,L1,Top*%
%TF.FilePolarity,Positive*%
%FSLAX46Y46*%
G04 Gerber Fmt 4.6, Leading zero omitted, Abs format (unit mm)*
G04 Created by KiCad (PCBNEW 8.0.5-8.0.5-0~ubuntu22.04.1) date 2024-10-05 09:37:12*
%MOMM*%
%LPD*%
G01*
G04 APERTURE LIST*
G04 Aperture macros list*
%AMRoundRect*
0 Rectangle with rounded corners*
0 $1 Rounding radius*
0 $2 $3 $4 $5 $6 $7 $8 $9 X,Y pos of 4 corners*
0 Add a 4 corners polygon primitive as box body*
4,1,4,$2,$3,$4,$5,$6,$7,$8,$9,$2,$3,0*
0 Add four circle primitives for the rounded corners*
1,1,$1+$1,$2,$3*
1,1,$1+$1,$4,$5*
1,1,$1+$1,$6,$7*
1,1,$1+$1,$8,$9*
0 Add four rect primitives between the rounded corners*
20,1,$1+$1,$2,$3,$4,$5,0*
20,1,$1+$1,$4,$5,$6,$7,0*
20,1,$1+$1,$6,$7,$8,$9,0*
20,1,$1+$1,$8,$9,$2,$3,0*%
G04 Aperture macros list end*
%TA.AperFunction,SMDPad,CuDef*%
%ADD10RoundRect,0.200000X0.275000X-0.200000X0.275000X0.200000X-0.275000X0.200000X-0.275000X-0.200000X0*%
%TD*%
%TA.AperFunction,SMDPad,CuDef*%
%ADD11RoundRect,0.200000X-0.200000X-0.275000X0.200000X-0.275000X0.200000X0.275000X-0.200000X0.275000X0*%
%TD*%
%TA.AperFunction,SMDPad,CuDef*%
%ADD12RoundRect,0.200000X0.200000X0.275000X-0.200000X0.275000X-0.200000X-0.275000X0.200000X-0.275000X0*%
%TD*%
%TA.AperFunction,WasherPad*%
%ADD13C,3.650000*%
%TD*%
%TA.AperFunction,ComponentPad*%
%ADD14R,1.500000X1.500000*%
%TD*%
%TA.AperFunction,ComponentPad*%
%ADD15C,1.500000*%
%TD*%
%TA.AperFunction,ConnectorPad*%
%ADD16R,0.700000X4.300000*%
%TD*%
%TA.AperFunction,ConnectorPad*%
%ADD17R,0.700000X3.200000*%
%TD*%
%TA.AperFunction,ViaPad*%
%ADD18C,0.800000*%
%TD*%
%TA.AperFunction,Conductor*%
%ADD19C,0.500000*%
%TD*%
G04 APERTURE END LIST*
D10*
%TO.P,R116,2*%
%TO.N,Net-(J1-GND-PadB18)*%
X101190000Y-74650000D03*
%TO.P,R116,1*%
%TO.N,/d.DATA_3*%
X101190000Y-76300000D03*
%TD*%
%TO.P,R115,2*%
%TO.N,Net-(J1-GND-PadB16)*%
X103700000Y-74650000D03*
%TO.P,R115,1*%
%TO.N,/d.DATA_2*%
X103700000Y-76300000D03*
%TD*%
%TO.P,R114,2*%
%TO.N,Net-(J1-PETp0)*%
X106210000Y-74650000D03*
%TO.P,R114,1*%
%TO.N,/d.DATA_1*%
X106210000Y-76300000D03*
%TD*%
%TO.P,R113,2*%
%TO.N,Net-(J1-RSVD)*%
X108720000Y-74650000D03*
%TO.P,R113,1*%
%TO.N,/d.DATA_0*%
X108720000Y-76300000D03*
%TD*%
%TO.P,R112,2*%
%TO.N,Net-(J1-3.3Vaux)*%
X112100000Y-74975000D03*
%TO.P,R112,1*%
%TO.N,/c.DATA_3*%
X112100000Y-76625000D03*
%TD*%
%TO.P,R111,2*%
%TO.N,Net-(J1-+3.3V-PadB8)*%
X114610000Y-74975000D03*
%TO.P,R111,1*%
%TO.N,/c.DATA_2*%
X114610000Y-76625000D03*
%TD*%
%TO.P,R110,2*%
%TO.N,Net-(J1-SMDAT)*%
X117120000Y-74975000D03*
%TO.P,R110,1*%
%TO.N,/c.DATA_1*%
X117120000Y-76625000D03*
%TD*%
%TO.P,R109,2*%
%TO.N,Net-(J1-GND-PadB4)*%
X119630000Y-74975000D03*
%TO.P,R109,1*%
%TO.N,/c.DATA_0*%
X119630000Y-76625000D03*
%TD*%
D11*
%TO.P,R108,1*%
%TO.N,Net-(J102-Pad2)*%
X106900000Y-120000000D03*
%TO.P,R108,2*%
%TO.N,/a.DATA_3*%
X108550000Y-120000000D03*
%TD*%
%TO.P,R107,1*%
%TO.N,Net-(J102-Pad4)*%
X106900000Y-122510000D03*
%TO.P,R107,2*%
%TO.N,/a.DATA_2*%
X108550000Y-122510000D03*
%TD*%
%TO.P,R106,1*%
%TO.N,Net-(J102-Pad6)*%
X106925000Y-124700000D03*
%TO.P,R106,2*%
%TO.N,/a.DATA_1*%
X108575000Y-124700000D03*
%TD*%
D12*
%TO.P,R105,2*%
%TO.N,/b.DATA_3*%
X110780000Y-126477500D03*
%TO.P,R105,1*%
%TO.N,Net-(J101-Pad2)*%
X112430000Y-126477500D03*
%TD*%
%TO.P,R104,1*%
%TO.N,Net-(J101-Pad4)*%
X112430000Y-123967500D03*
%TO.P,R104,2*%
%TO.N,/b.DATA_2*%
X110780000Y-123967500D03*
%TD*%
%TO.P,R103,1*%
%TO.N,Net-(J101-Pad6)*%
X112430000Y-121457500D03*
%TO.P,R103,2*%
%TO.N,/b.DATA_1*%
X110780000Y-121457500D03*
%TD*%
%TO.P,R102,1*%
%TO.N,Net-(J101-Pad8)*%
X112430000Y-118947500D03*
%TO.P,R102,2*%
%TO.N,/b.DATA_0*%
X110780000Y-118947500D03*
%TD*%
D11*
%TO.P,R101,2*%
%TO.N,/a.DATA_0*%
X108550000Y-127400000D03*
%TO.P,R101,1*%
%TO.N,Net-(J102-Pad8)*%
X106900000Y-127400000D03*
%TD*%
D13*
%TO.P,J104,*%
%TO.N,*%
X95600000Y-100500000D03*
X95600000Y-111930000D03*
D14*
%TO.P,J104,1*%
%TO.N,/d.DATA_3*%
X101950000Y-101770000D03*
D15*
%TO.P,J104,2*%
%TO.N,GND*%
X104490000Y-103040000D03*
%TO.P,J104,3*%
%TO.N,/d.DATA_2*%
X101950000Y-104310000D03*
%TO.P,J104,4*%
%TO.N,GND*%
X104490000Y-105580000D03*
%TO.P,J104,5*%
%TO.N,/d.DATA_1*%
X101950000Y-106850000D03*
%TO.P,J104,6*%
%TO.N,GND*%
X104490000Y-108120000D03*
%TO.P,J104,7*%
%TO.N,/d.DATA_0*%
X101950000Y-109390000D03*
%TO.P,J104,8*%
%TO.N,GND*%
X104490000Y-110660000D03*
%TD*%
D13*
%TO.P,J103,*%
%TO.N,*%
X124170000Y-111997500D03*
X124170000Y-100567500D03*
D14*
%TO.P,J103,1*%
%TO.N,/c.DATA_3*%
X117820000Y-110727500D03*
D15*
%TO.P,J103,2*%
%TO.N,GND*%
X115280000Y-109457500D03*
%TO.P,J103,3*%
%TO.N,/c.DATA_2*%
X117820000Y-108187500D03*
%TO.P,J103,4*%
%TO.N,GND*%
X115280000Y-106917500D03*
%TO.P,J103,5*%
%TO.N,/c.DATA_1*%
X117820000Y-105647500D03*
%TO.P,J103,6*%
%TO.N,GND*%
X115280000Y-104377500D03*
%TO.P,J103,7*%
%TO.N,/c.DATA_0*%
X117820000Y-103107500D03*
%TO.P,J103,8*%
%TO.N,GND*%
X115280000Y-101837500D03*
%TD*%
D13*
%TO.P,J102,*%
%TO.N,*%
X95490000Y-117190000D03*
X95490000Y-128620000D03*
D14*
%TO.P,J102,1*%
%TO.N,GND*%
X101840000Y-118460000D03*
D15*
%TO.P,J102,2*%
%TO.N,Net-(J102-Pad2)*%
X104380000Y-119730000D03*
%TO.P,J102,3*%
%TO.N,GND*%
X101840000Y-121000000D03*
%TO.P,J102,4*%
%TO.N,Net-(J102-Pad4)*%
X104380000Y-122270000D03*
%TO.P,J102,5*%
%TO.N,GND*%
X101840000Y-123540000D03*
%TO.P,J102,6*%
%TO.N,Net-(J102-Pad6)*%
X104380000Y-124810000D03*
%TO.P,J102,7*%
%TO.N,GND*%
X101840000Y-126080000D03*
%TO.P,J102,8*%
%TO.N,Net-(J102-Pad8)*%
X104380000Y-127350000D03*
%TD*%
D13*
%TO.P,J101,*%
%TO.N,*%
X124170000Y-128697500D03*
X124170000Y-117267500D03*
D14*
%TO.P,J101,1*%
%TO.N,GND*%
X117820000Y-127427500D03*
D15*
%TO.P,J101,2*%
%TO.N,Net-(J101-Pad2)*%
X115280000Y-126157500D03*
%TO.P,J101,3*%
%TO.N,GND*%
X117820000Y-124887500D03*
%TO.P,J101,4*%
%TO.N,Net-(J101-Pad4)*%
X115280000Y-123617500D03*
%TO.P,J101,5*%
%TO.N,GND*%
X117820000Y-122347500D03*
%TO.P,J101,6*%
%TO.N,Net-(J101-Pad6)*%
X115280000Y-121077500D03*
%TO.P,J101,7*%
%TO.N,GND*%
X117820000Y-119807500D03*
%TO.P,J101,8*%
%TO.N,Net-(J101-Pad8)*%
X115280000Y-118537500D03*
%TD*%
D16*
%TO.P,J1,B18,GND*%
%TO.N,Net-(J1-GND-PadB18)*%
X101400000Y-67000000D03*
D17*
%TO.P,J1,B17,~{PRSNT2}*%
%TO.N,GND*%
X102400000Y-67550000D03*
D16*
%TO.P,J1,B16,GND*%
%TO.N,Net-(J1-GND-PadB16)*%
X103400000Y-67000000D03*
%TO.P,J1,B15,PETn0*%
%TO.N,GND*%
X104400000Y-67000000D03*
%TO.P,J1,B14,PETp0*%
%TO.N,Net-(J1-PETp0)*%
X105400000Y-67000000D03*
%TO.P,J1,B13,GND*%
%TO.N,GND*%
X106400000Y-67000000D03*
%TO.P,J1,B12,RSVD*%
%TO.N,Net-(J1-RSVD)*%
X107400000Y-67000000D03*
%TO.P,J1,B11,~{WAKE}*%
%TO.N,GND*%
X110400000Y-67000000D03*
%TO.P,J1,B10,3.3Vaux*%
%TO.N,Net-(J1-3.3Vaux)*%
X111400000Y-67000000D03*
%TO.P,J1,B9,JTAG1*%
%TO.N,GND*%
X112400000Y-67000000D03*
%TO.P,J1,B8,+3.3V*%
%TO.N,Net-(J1-+3.3V-PadB8)*%
X113400000Y-67000000D03*
%TO.P,J1,B7,GND*%
%TO.N,GND*%
X114400000Y-67000000D03*
%TO.P,J1,B6,SMDAT*%
%TO.N,Net-(J1-SMDAT)*%
X115400000Y-67000000D03*
%TO.P,J1,B5,SMCLK*%
%TO.N,GND*%
X116400000Y-67000000D03*
%TO.P,J1,B4,GND*%
%TO.N,Net-(J1-GND-PadB4)*%
X117400000Y-67000000D03*
%TO.P,J1,B3,+12V*%
%TO.N,GND*%
X118400000Y-67000000D03*
%TO.P,J1,B2,+12V*%
%TO.N,unconnected-(J1-+12V-PadB2)*%
X119400000Y-67000000D03*
%TO.P,J1,B1,+12V*%
%TO.N,GND*%
X120400000Y-67000000D03*
%TD*%
D18*
%TO.N,/a.DATA_3*%
X108500000Y-118700000D03*
%TO.N,/a.DATA_2*%
X108600000Y-121300000D03*
%TO.N,/a.DATA_1*%
X108600000Y-123700000D03*
%TO.N,/a.DATA_0*%
X108700000Y-126100000D03*
%TO.N,GND*%
X102500000Y-70500000D03*
X110500000Y-70250000D03*
X106500000Y-70500000D03*
X116400000Y-70150000D03*
X112500000Y-70250000D03*
X118500000Y-70250000D03*
X104500000Y-70500000D03*
X114500000Y-70250000D03*
X120250000Y-70250000D03*
%TO.N,/b.DATA_0*%
X110780000Y-117800000D03*
%TO.N,/b.DATA_2*%
X110800000Y-122800000D03*
%TO.N,/b.DATA_1*%
X110800000Y-120500000D03*
%TO.N,/b.DATA_3*%
X110700000Y-125300000D03*
%TD*%
D19*
%TO.N,Net-(J1-GND-PadB4)*%
X117400000Y-67000000D02*
X117500000Y-67100000D01*
X117500000Y-67100000D02*
X117500000Y-72845000D01*
X117500000Y-72845000D02*
X119630000Y-74975000D01*
%TO.N,Net-(J1-SMDAT)*%
X115400000Y-67000000D02*
X115400000Y-73255000D01*
X115400000Y-73255000D02*
X117120000Y-74975000D01*
%TO.N,Net-(J1-+3.3V-PadB8)*%
X113400000Y-67000000D02*
X113400000Y-73765000D01*
X113400000Y-73765000D02*
X114610000Y-74975000D01*
%TO.N,Net-(J1-3.3Vaux)*%
X111400000Y-74275000D02*
X112100000Y-74975000D01*
X111400000Y-67000000D02*
X111400000Y-74275000D01*
%TO.N,Net-(J1-RSVD)*%
X107400000Y-67000000D02*
X107400000Y-73330000D01*
X107400000Y-73330000D02*
X108720000Y-74650000D01*
%TO.N,Net-(J1-PETp0)*%
X105400000Y-67000000D02*
X105400000Y-73840000D01*
X105400000Y-73840000D02*
X106210000Y-74650000D01*
%TO.N,Net-(J1-GND-PadB18)*%
X101190000Y-74650000D02*
X101400000Y-74440000D01*
X101400000Y-74440000D02*
X101400000Y-67000000D01*
%TO.N,Net-(J1-GND-PadB16)*%
X103700000Y-74650000D02*
X103400000Y-74350000D01*
X103400000Y-74350000D02*
X103400000Y-67000000D01*
%TO.N,/d.DATA_1*%
X101950000Y-106850000D02*
X101950000Y-107277057D01*
X101950000Y-107277057D02*
X103992943Y-109320000D01*
X103992943Y-109320000D02*
X105380000Y-109320000D01*
X105380000Y-109320000D02*
X107200000Y-107500000D01*
X107300000Y-90100000D02*
X106390000Y-89190000D01*
X107200000Y-107500000D02*
X107200000Y-105900000D01*
X107200000Y-105900000D02*
X107300000Y-105800000D01*
X107300000Y-105800000D02*
X107300000Y-90100000D01*
X106210000Y-89190000D02*
X106210000Y-76300000D01*
X106390000Y-89190000D02*
X106210000Y-89190000D01*
%TO.N,/d.DATA_0*%
X101950000Y-109390000D02*
X101950000Y-110450660D01*
X101950000Y-110450660D02*
X103359340Y-111860000D01*
X104987057Y-111860000D02*
X108720000Y-108127057D01*
X103359340Y-111860000D02*
X104987057Y-111860000D01*
X108720000Y-108127057D02*
X108720000Y-76300000D01*
%TO.N,/d.DATA_2*%
X101950000Y-104310000D02*
X101950000Y-104737057D01*
X104987057Y-106780000D02*
X106600000Y-105167057D01*
X101950000Y-104737057D02*
X103992943Y-106780000D01*
X103992943Y-106780000D02*
X104987057Y-106780000D01*
X106600000Y-105167057D02*
X106600000Y-93000000D01*
X106600000Y-93000000D02*
X103700000Y-90100000D01*
X103700000Y-90100000D02*
X103700000Y-76300000D01*
%TO.N,/d.DATA_3*%
X101950000Y-101770000D02*
X101950000Y-102197057D01*
X105800000Y-94800000D02*
X101190000Y-90190000D01*
X101950000Y-102197057D02*
X103992943Y-104240000D01*
X103992943Y-104240000D02*
X104987057Y-104240000D01*
X104987057Y-104240000D02*
X105800000Y-103427057D01*
X105800000Y-103427057D02*
X105800000Y-94800000D01*
X101190000Y-90190000D02*
X101190000Y-76300000D01*
%TO.N,/c.DATA_1*%
X117820000Y-105647500D02*
X114852943Y-105647500D01*
X117100000Y-95600000D02*
X117100000Y-94900000D01*
X114852943Y-105647500D02*
X113300000Y-104094557D01*
X113300000Y-104094557D02*
X113300000Y-99400000D01*
X113300000Y-99400000D02*
X117100000Y-95600000D01*
X117100000Y-94900000D02*
X117120000Y-94880000D01*
X117120000Y-94880000D02*
X117120000Y-76625000D01*
%TO.N,/c.DATA_2*%
X117820000Y-108187500D02*
X114852943Y-108187500D01*
X114600000Y-95700000D02*
X114600000Y-94320000D01*
X114852943Y-108187500D02*
X112500000Y-105834557D01*
X112500000Y-97800000D02*
X114600000Y-95700000D01*
X112500000Y-105834557D02*
X112500000Y-97800000D01*
X114600000Y-94320000D02*
X114610000Y-94310000D01*
X114610000Y-94310000D02*
X114610000Y-76625000D01*
%TO.N,/c.DATA_3*%
X117820000Y-110727500D02*
X114852943Y-110727500D01*
X114852943Y-110727500D02*
X111800000Y-107674557D01*
X111800000Y-76925000D02*
X112100000Y-76625000D01*
X111800000Y-107674557D02*
X111800000Y-76925000D01*
%TO.N,/c.DATA_0*%
X117820000Y-103107500D02*
X114852943Y-103107500D01*
X114852943Y-103107500D02*
X114000000Y-102254557D01*
X114000000Y-102254557D02*
X114000000Y-101300000D01*
X114000000Y-101300000D02*
X119630000Y-95670000D01*
X119630000Y-95670000D02*
X119630000Y-76625000D01*
%TO.N,/a.DATA_3*%
X108550000Y-118750000D02*
X108500000Y-118700000D01*
X108550000Y-120000000D02*
X108550000Y-118750000D01*
%TO.N,/a.DATA_2*%
X108550000Y-121350000D02*
X108600000Y-121300000D01*
X108550000Y-122510000D02*
X108550000Y-121350000D01*
%TO.N,/a.DATA_1*%
X108575000Y-123725000D02*
X108600000Y-123700000D01*
X108575000Y-124700000D02*
X108575000Y-123725000D01*
%TO.N,/a.DATA_0*%
X108700000Y-125900000D02*
X108700000Y-125900000D01*
X108700000Y-126100000D02*
X108700000Y-125900000D01*
X108500000Y-126100000D02*
X108700000Y-126100000D01*
X108550000Y-126050000D02*
X108500000Y-126100000D01*
X108550000Y-127400000D02*
X108550000Y-126050000D01*
%TO.N,Net-(J102-Pad8)*%
X104380000Y-127350000D02*
X106850000Y-127350000D01*
X106850000Y-127350000D02*
X106900000Y-127400000D01*
%TO.N,Net-(J102-Pad6)*%
X104380000Y-124810000D02*
X106815000Y-124810000D01*
X106815000Y-124810000D02*
X106925000Y-124700000D01*
%TO.N,Net-(J102-Pad4)*%
X104380000Y-122270000D02*
X106660000Y-122270000D01*
X106660000Y-122270000D02*
X106900000Y-122510000D01*
%TO.N,Net-(J102-Pad2)*%
X104380000Y-119730000D02*
X106630000Y-119730000D01*
X106630000Y-119730000D02*
X106900000Y-120000000D01*
%TO.N,/b.DATA_3*%
X110780000Y-125380000D02*
X110700000Y-125300000D01*
%TO.N,Net-(J101-Pad8)*%
X112840000Y-118537500D02*
X112430000Y-118947500D01*
%TO.N,/b.DATA_1*%
X110780000Y-121457500D02*
X110780000Y-120520000D01*
%TO.N,Net-(J101-Pad2)*%
X112750000Y-126157500D02*
X112430000Y-126477500D01*
%TO.N,Net-(J101-Pad6)*%
X112810000Y-121077500D02*
X112430000Y-121457500D01*
%TO.N,/b.DATA_0*%
X110780000Y-117680000D02*
X110700000Y-117600000D01*
%TO.N,/b.DATA_3*%
X110780000Y-126477500D02*
X110780000Y-125380000D01*
%TO.N,/b.DATA_2*%
X110780000Y-123967500D02*
X110800000Y-122800000D01*
%TO.N,Net-(J101-Pad4)*%
X112780000Y-123617500D02*
X112430000Y-123967500D01*
X115280000Y-123617500D02*
X112780000Y-123617500D01*
%TO.N,/b.DATA_1*%
X110780000Y-120520000D02*
X110800000Y-120500000D01*
%TO.N,Net-(J101-Pad2)*%
X115280000Y-126157500D02*
X112750000Y-126157500D01*
%TO.N,/b.DATA_2*%
X110800000Y-122800000D02*
X110780000Y-122820000D01*
%TO.N,/b.DATA_0*%
X110780000Y-118947500D02*
X110780000Y-117800000D01*
%TO.N,Net-(J101-Pad8)*%
X115280000Y-118537500D02*
X112840000Y-118537500D01*
%TO.N,Net-(J101-Pad6)*%
X115280000Y-121077500D02*
X112810000Y-121077500D01*
%TO.N,/b.DATA_0*%
X110780000Y-117800000D02*
X110780000Y-117680000D01*
%TD*%
%TA.AperFunction,Conductor*%
%TO.N,GND*%
G36*
X110483621Y-66766002D02*
G01*
X110530114Y-66819658D01*
X110541500Y-66872000D01*
X110541500Y-69198649D01*
X110548009Y-69259196D01*
X110548011Y-69259201D01*
X110599111Y-69396204D01*
X110616367Y-69419255D01*
X110641179Y-69485774D01*
X110641500Y-69494765D01*
X110641500Y-74349707D01*
X110653747Y-74411275D01*
X110670649Y-74496247D01*
X110727826Y-74634284D01*
X110810834Y-74758515D01*
X110810838Y-74758519D01*
X111079595Y-75027276D01*
X111113621Y-75089588D01*
X111116500Y-75116370D01*
X111116500Y-75232261D01*
X111122986Y-75303646D01*
X111122986Y-75303647D01*
X111174170Y-75467906D01*
X111174172Y-75467911D01*
X111263184Y-75615155D01*
X111263188Y-75615160D01*
X111358933Y-75710905D01*
X111392959Y-75773217D01*
X111387894Y-75844032D01*
X111358933Y-75889095D01*
X111263188Y-75984839D01*
X111263184Y-75984844D01*
X111174172Y-76132088D01*
X111174170Y-76132093D01*
X111122986Y-76296353D01*
X111116500Y-76367737D01*
X111116500Y-76567995D01*
X111106909Y-76616213D01*
X111070651Y-76703747D01*
X111070649Y-76703753D01*
X111041500Y-76850290D01*
X111041500Y-107749264D01*
X111055123Y-107817749D01*
X111070649Y-107895804D01*
X111127826Y-108033841D01*
X111210834Y-108158072D01*
X114263777Y-111211015D01*
X114263778Y-111211016D01*
X114369427Y-111316665D01*
X114493659Y-111399674D01*
X114574519Y-111433167D01*
X114631696Y-111456851D01*
X114704965Y-111471424D01*
X114704966Y-111471425D01*
X114719541Y-111474324D01*
X114778237Y-111486000D01*
X114778238Y-111486000D01*
X114927648Y-111486000D01*
X116444519Y-111486000D01*
X116512640Y-111506002D01*
X116559133Y-111559658D01*
X116567141Y-111583022D01*
X116568010Y-111586700D01*
X116619110Y-111723702D01*
X116619112Y-111723707D01*
X116706738Y-111840761D01*
X116823792Y-111928387D01*
X116823794Y-111928388D01*
X116823796Y-111928389D01*
X116882875Y-111950424D01*
X116960795Y-111979488D01*
X116960803Y-111979490D01*
X117021350Y-111985999D01*
X117021355Y-111985999D01*
X117021362Y-111986000D01*
X117021368Y-111986000D01*
X118618632Y-111986000D01*
X118618638Y-111986000D01*
X118618645Y-111985999D01*
X118618649Y-111985999D01*
X118679196Y-111979490D01*
X118679199Y-111979489D01*
X118679201Y-111979489D01*
X118816204Y-111928389D01*
X118933261Y-111840761D01*
X119020889Y-111723704D01*
X119071989Y-111586701D01*
X119074897Y-111559658D01*
X119078499Y-111526149D01*
X119078500Y-111526132D01*
X119078500Y-109928867D01*
X119078499Y-109928850D01*
X119071990Y-109868303D01*
X119071988Y-109868295D01*
X119028406Y-109751449D01*
X119020889Y-109731296D01*
X119020888Y-109731294D01*
X119020887Y-109731292D01*
X118933261Y-109614238D01*
X118816207Y-109526612D01*
X118816202Y-109526610D01*
X118679204Y-109475511D01*
X118679196Y-109475509D01*
X118618649Y-109469000D01*
X118618638Y-109469000D01*
X118583576Y-109469000D01*
X118515455Y-109448998D01*
X118468962Y-109395342D01*
X118458858Y-109325068D01*
X118488352Y-109260488D01*
X118511306Y-109239787D01*
X118518666Y-109234633D01*
X118632038Y-109155249D01*
X118787749Y-108999538D01*
X118914056Y-108819154D01*
X119007120Y-108619576D01*
X119064115Y-108406871D01*
X119083307Y-108187500D01*
X119064115Y-107968129D01*
X119007120Y-107755424D01*
X118914056Y-107555847D01*
X118787749Y-107375462D01*
X118632038Y-107219751D01*
X118606411Y-107201807D01*
X118583578Y-107185819D01*
X118451654Y-107093444D01*
X118451648Y-107093441D01*
X118451648Y-107093440D01*
X118319232Y-107031695D01*
X118265946Y-106984778D01*
X118246485Y-106916501D01*
X118267026Y-106848541D01*
X118319232Y-106803305D01*
X118451648Y-106741559D01*
X118451648Y-106741558D01*
X118451654Y-106741556D01*
X118632038Y-106615249D01*
X118787749Y-106459538D01*
X118914056Y-106279154D01*
X119007120Y-106079576D01*
X119064115Y-105866871D01*
X119083307Y-105647500D01*
X119064115Y-105428129D01*
X119007120Y-105215424D01*
X118914056Y-105015847D01*
X118787749Y-104835462D01*
X118632038Y-104679751D01*
X118451654Y-104553444D01*
X118451648Y-104553441D01*
X118451648Y-104553440D01*
X118319232Y-104491695D01*
X118265946Y-104444778D01*
X118246485Y-104376501D01*
X118267026Y-104308541D01*
X118319232Y-104263305D01*
X118451648Y-104201559D01*
X118451648Y-104201558D01*
X118451654Y-104201556D01*
X118632038Y-104075249D01*
X118787749Y-103919538D01*
X118914056Y-103739154D01*
X119007120Y-103539576D01*
X119064115Y-103326871D01*
X119083307Y-103107500D01*
X119064115Y-102888129D01*
X119007120Y-102675424D01*
X118914056Y-102475847D01*
X118787749Y-102295462D01*
X118632038Y-102139751D01*
X118627502Y-102136575D01*
X118582903Y-102105346D01*
X118451654Y-102013444D01*
X118403711Y-101991088D01*
X118252079Y-101920381D01*
X118252073Y-101920379D01*
X118162178Y-101896291D01*
X118039371Y-101863385D01*
X117820000Y-101844193D01*
X117600629Y-101863385D01*
X117387926Y-101920379D01*
X117387920Y-101920381D01*
X117188346Y-102013444D01*
X117007965Y-102139748D01*
X116852249Y-102295463D01*
X116848713Y-102299678D01*
X116847813Y-102298922D01*
X116796935Y-102339596D01*
X116749172Y-102349000D01*
X116609528Y-102349000D01*
X116541407Y-102328998D01*
X116494914Y-102275342D01*
X116484810Y-102205068D01*
X116487821Y-102190389D01*
X116523619Y-102056787D01*
X116542804Y-101837500D01*
X116523619Y-101618212D01*
X116466649Y-101405596D01*
X116466647Y-101405592D01*
X116373619Y-101206094D01*
X116331199Y-101145511D01*
X116331197Y-101145511D01*
X115723333Y-101753374D01*
X115699333Y-101663806D01*
X115640090Y-101561194D01*
X115556306Y-101477410D01*
X115453694Y-101418167D01*
X115364121Y-101394166D01*
X115971987Y-100786301D01*
X115971987Y-100786300D01*
X115911402Y-100743878D01*
X115881757Y-100730054D01*
X115828473Y-100683136D01*
X115809013Y-100614858D01*
X115823330Y-100567496D01*
X121831493Y-100567496D01*
X121831493Y-100567503D01*
X121851498Y-100872731D01*
X121851500Y-100872745D01*
X121911176Y-101172748D01*
X121911178Y-101172758D01*
X122009498Y-101462400D01*
X122009504Y-101462414D01*
X122144792Y-101736751D01*
X122314731Y-101991084D01*
X122314734Y-101991088D01*
X122314736Y-101991091D01*
X122314738Y-101991093D01*
X122370787Y-102055005D01*
X122516425Y-102221074D01*
X122615513Y-102307971D01*
X122746407Y-102422762D01*
X122746409Y-102422763D01*
X122746411Y-102422765D01*
X122746415Y-102422768D01*
X122825854Y-102475847D01*
X123000746Y-102592706D01*
X123275092Y-102727999D01*
X123564750Y-102826324D01*
X123864764Y-102886001D01*
X124039184Y-102897433D01*
X124169997Y-102906007D01*
X124170000Y-102906007D01*
X124170003Y-102906007D01*
X124284463Y-102898504D01*
X124475236Y-102886001D01*
X124775250Y-102826324D01*
X125064908Y-102727999D01*
X125339254Y-102592706D01*
X125593593Y-102422762D01*
X125823574Y-102221074D01*
X126025262Y-101991093D01*
X126195206Y-101736754D01*
X126330499Y-101462408D01*
X126428824Y-101172750D01*
X126488501Y-100872736D01*
X126505403Y-100614858D01*
X126508507Y-100567503D01*
X126508507Y-100567496D01*
X126488501Y-100262268D01*
X126488501Y-100262264D01*
X126428824Y-99962250D01*
X126330499Y-99672592D01*
X126195206Y-99398247D01*
X126025262Y-99143907D01*
X125823574Y-98913926D01*
X125823571Y-98913924D01*
X125823570Y-98913922D01*
X125593588Y-98712234D01*
X125593584Y-98712231D01*
X125339251Y-98542292D01*
X125064914Y-98407004D01*
X125064908Y-98407001D01*
X125064903Y-98406999D01*
X125064900Y-98406998D01*
X124775258Y-98308678D01*
X124775252Y-98308676D01*
X124775250Y-98308676D01*
X124674789Y-98288693D01*
X124475245Y-98249000D01*
X124475231Y-98248998D01*
X124170003Y-98228993D01*
X124169997Y-98228993D01*
X123864768Y-98248998D01*
X123864754Y-98249000D01*
X123614980Y-98298684D01*
X123564750Y-98308676D01*
X123564748Y-98308676D01*
X123564741Y-98308678D01*
X123275099Y-98406998D01*
X123275091Y-98407001D01*
X123000741Y-98542297D01*
X122746409Y-98712236D01*
X122516426Y-98913926D01*
X122314736Y-99143909D01*
X122144797Y-99398241D01*
X122009501Y-99672591D01*
X122009498Y-99672599D01*
X121911178Y-99962241D01*
X121911176Y-99962251D01*
X121851500Y-100262254D01*
X121851498Y-100262268D01*
X121831493Y-100567496D01*
X115823330Y-100567496D01*
X115829556Y-100546899D01*
X115845905Y-100526775D01*
X120219165Y-96153516D01*
X120282128Y-96059285D01*
X120302174Y-96029284D01*
X120359351Y-95891246D01*
X120388500Y-95744706D01*
X120388500Y-77395661D01*
X120408502Y-77327540D01*
X120425400Y-77306570D01*
X120466816Y-77265155D01*
X120555827Y-77117913D01*
X120607013Y-76953649D01*
X120613500Y-76882265D01*
X120613499Y-76367736D01*
X120607013Y-76296351D01*
X120555827Y-76132087D01*
X120466816Y-75984845D01*
X120466815Y-75984844D01*
X120466811Y-75984839D01*
X120371067Y-75889095D01*
X120337041Y-75826783D01*
X120342106Y-75755968D01*
X120371067Y-75710905D01*
X120466811Y-75615160D01*
X120466816Y-75615155D01*
X120555827Y-75467913D01*
X120607013Y-75303649D01*
X120613500Y-75232265D01*
X120613499Y-74717736D01*
X120607013Y-74646351D01*
X120555827Y-74482087D01*
X120466816Y-74334845D01*
X120466815Y-74334844D01*
X120466811Y-74334839D01*
X120345160Y-74213188D01*
X120345155Y-74213184D01*
X120252359Y-74157087D01*
X120197913Y-74124173D01*
X120197912Y-74124172D01*
X120197911Y-74124172D01*
X120197906Y-74124170D01*
X120033646Y-74072986D01*
X119981723Y-74068268D01*
X119962265Y-74066500D01*
X119962262Y-74066500D01*
X119846371Y-74066500D01*
X119778250Y-74046498D01*
X119757276Y-74029595D01*
X118295405Y-72567724D01*
X118261379Y-72505412D01*
X118258500Y-72478629D01*
X118258500Y-66872000D01*
X118278502Y-66803879D01*
X118332158Y-66757386D01*
X118384500Y-66746000D01*
X118415500Y-66746000D01*
X118483621Y-66766002D01*
X118530114Y-66819658D01*
X118541500Y-66872000D01*
X118541500Y-69198649D01*
X118548009Y-69259196D01*
X118548011Y-69259204D01*
X118599109Y-69396201D01*
X118599110Y-69396202D01*
X118599111Y-69396204D01*
X118628868Y-69435954D01*
X118653679Y-69502474D01*
X118654000Y-69511463D01*
X118654000Y-69658000D01*
X118798585Y-69658000D01*
X118798597Y-69657999D01*
X118859094Y-69651494D01*
X118866770Y-69649681D01*
X118867333Y-69652065D01*
X118926059Y-69647862D01*
X118937309Y-69651164D01*
X118940798Y-69651989D01*
X119001350Y-69658499D01*
X119001355Y-69658499D01*
X119001362Y-69658500D01*
X119001368Y-69658500D01*
X119798632Y-69658500D01*
X119798638Y-69658500D01*
X119859201Y-69651989D01*
X119859204Y-69651987D01*
X119866878Y-69650175D01*
X119867349Y-69652169D01*
X119927475Y-69647857D01*
X119935563Y-69650232D01*
X119940906Y-69651494D01*
X120001402Y-69657999D01*
X120001415Y-69658000D01*
X120146000Y-69658000D01*
X120146000Y-69511463D01*
X120166002Y-69443342D01*
X120171132Y-69435954D01*
X120200889Y-69396204D01*
X120251989Y-69259201D01*
X120258500Y-69198638D01*
X120258500Y-66872000D01*
X120278502Y-66803879D01*
X120332158Y-66757386D01*
X120384500Y-66746000D01*
X120528000Y-66746000D01*
X120596121Y-66766002D01*
X120642614Y-66819658D01*
X120654000Y-66872000D01*
X120654000Y-69658000D01*
X120798585Y-69658000D01*
X120798597Y-69657999D01*
X120859094Y-69651494D01*
X120879964Y-69643710D01*
X120950780Y-69638643D01*
X121013093Y-69672666D01*
X121047120Y-69734977D01*
X121050000Y-69761764D01*
X121050000Y-71950000D01*
X121471519Y-72465190D01*
X121499175Y-72530578D01*
X121500000Y-72544977D01*
X121500000Y-97600000D01*
X131574000Y-97600000D01*
X131642121Y-97620002D01*
X131688614Y-97673658D01*
X131700000Y-97726000D01*
X131700000Y-131473709D01*
X131679998Y-131541830D01*
X131626342Y-131588323D01*
X131573710Y-131599709D01*
X88325710Y-131500288D01*
X88257636Y-131480129D01*
X88211266Y-131426367D01*
X88200000Y-131374288D01*
X88200000Y-128619996D01*
X93151493Y-128619996D01*
X93151493Y-128620003D01*
X93171498Y-128925231D01*
X93171500Y-128925245D01*
X93231176Y-129225248D01*
X93231178Y-129225258D01*
X93329498Y-129514900D01*
X93329504Y-129514914D01*
X93464792Y-129789251D01*
X93634731Y-130043584D01*
X93634734Y-130043588D01*
X93836425Y-130273574D01*
X93982063Y-130401294D01*
X94066407Y-130475262D01*
X94066409Y-130475263D01*
X94066411Y-130475265D01*
X94066415Y-130475268D01*
X94182394Y-130552762D01*
X94320746Y-130645206D01*
X94595092Y-130780499D01*
X94884750Y-130878824D01*
X95184764Y-130938501D01*
X95359184Y-130949933D01*
X95489997Y-130958507D01*
X95490000Y-130958507D01*
X95490003Y-130958507D01*
X95604463Y-130951004D01*
X95795236Y-130938501D01*
X96095250Y-130878824D01*
X96384908Y-130780499D01*
X96659254Y-130645206D01*
X96913593Y-130475262D01*
X97143574Y-130273574D01*
X97345262Y-130043593D01*
X97515206Y-129789254D01*
X97650499Y-129514908D01*
X97748824Y-129225250D01*
X97808501Y-128925236D01*
X97823427Y-128697503D01*
X97823427Y-128697496D01*
X121831493Y-128697496D01*
X121831493Y-128697503D01*
X121851498Y-129002731D01*
X121851500Y-129002745D01*
X121911176Y-129302748D01*
X121911178Y-129302758D01*
X122009498Y-129592400D01*
X122009504Y-129592414D01*
X122144792Y-129866751D01*
X122314731Y-130121084D01*
X122314734Y-130121088D01*
X122516425Y-130351074D01*
X122658035Y-130475262D01*
X122746407Y-130552762D01*
X122746409Y-130552763D01*
X122746411Y-130552765D01*
X122746415Y-130552768D01*
X122914417Y-130665023D01*
X123000746Y-130722706D01*
X123275092Y-130857999D01*
X123564750Y-130956324D01*
X123864764Y-131016001D01*
X124039184Y-131027433D01*
X124169997Y-131036007D01*
X124170000Y-131036007D01*
X124170003Y-131036007D01*
X124284463Y-131028504D01*
X124475236Y-131016001D01*
X124775250Y-130956324D01*
X125064908Y-130857999D01*
X125339254Y-130722706D01*
X125593593Y-130552762D01*
X125823574Y-130351074D01*
X126025262Y-130121093D01*
X126195206Y-129866754D01*
X126330499Y-129592408D01*
X126428824Y-129302750D01*
X126488501Y-129002736D01*
X126508507Y-128697500D01*
X126507720Y-128685500D01*
X126497995Y-128537118D01*
X126488501Y-128392264D01*
X126428824Y-128092250D01*
X126330499Y-127802592D01*
X126195206Y-127528247D01*
X126025262Y-127273907D01*
X125823574Y-127043926D01*
X125823571Y-127043924D01*
X125823570Y-127043922D01*
X125593588Y-126842234D01*
X125593584Y-126842231D01*
X125339251Y-126672292D01*
X125066851Y-126537959D01*
X125064908Y-126537001D01*
X125064903Y-126536999D01*
X125064900Y-126536998D01*
X124775258Y-126438678D01*
X124775252Y-126438676D01*
X124775250Y-126438676D01*
X124663765Y-126416500D01*
X124475245Y-126379000D01*
X124475231Y-126378998D01*
X124170003Y-126358993D01*
X124169997Y-126358993D01*
X123864768Y-126378998D01*
X123864754Y-126379000D01*
X123643628Y-126422986D01*
X123564750Y-126438676D01*
X123564748Y-126438676D01*
X123564741Y-126438678D01*
X123275099Y-126536998D01*
X123275091Y-126537001D01*
X123000741Y-126672297D01*
X122746409Y-126842236D01*
X122516426Y-127043926D01*
X122314736Y-127273909D01*
X122144797Y-127528241D01*
X122009501Y-127802591D01*
X122009498Y-127802599D01*
X121911178Y-128092241D01*
X121911176Y-128092251D01*
X121851500Y-128392254D01*
X121851498Y-128392268D01*
X121831493Y-128697496D01*
X97823427Y-128697496D01*
X97828507Y-128620003D01*
X97828507Y-128619996D01*
X97816975Y-128444056D01*
X97808501Y-128314764D01*
X97748824Y-128014750D01*
X97747427Y-128010636D01*
X97676809Y-127802599D01*
X97650499Y-127725092D01*
X97515206Y-127450747D01*
X97345262Y-127196407D01*
X97143574Y-126966426D01*
X97143571Y-126966424D01*
X97143570Y-126966422D01*
X96941434Y-126789154D01*
X96913593Y-126764738D01*
X96913591Y-126764736D01*
X96913588Y-126764734D01*
X96913584Y-126764731D01*
X96659251Y-126594792D01*
X96384914Y-126459504D01*
X96384908Y-126459501D01*
X96384903Y-126459499D01*
X96384900Y-126459498D01*
X96095258Y-126361178D01*
X96095252Y-126361176D01*
X96095250Y-126361176D01*
X95994789Y-126341193D01*
X95795245Y-126301500D01*
X95795231Y-126301498D01*
X95490003Y-126281493D01*
X95489997Y-126281493D01*
X95184768Y-126301498D01*
X95184754Y-126301500D01*
X94948828Y-126348430D01*
X94884750Y-126361176D01*
X94884748Y-126361176D01*
X94884741Y-126361178D01*
X94595099Y-126459498D01*
X94595091Y-126459501D01*
X94320741Y-126594797D01*
X94066409Y-126764736D01*
X93836426Y-126966426D01*
X93634736Y-127196409D01*
X93464797Y-127450741D01*
X93329501Y-127725091D01*
X93329498Y-127725099D01*
X93231178Y-128014741D01*
X93231176Y-128014751D01*
X93171500Y-128314754D01*
X93171498Y-128314768D01*
X93151493Y-128619996D01*
X88200000Y-128619996D01*
X88200000Y-121000000D01*
X100577195Y-121000000D01*
X100596380Y-121219287D01*
X100653350Y-121431903D01*
X100653352Y-121431907D01*
X100746379Y-121631403D01*
X100788800Y-121691987D01*
X101396666Y-121084122D01*
X101420667Y-121173694D01*
X101479910Y-121276306D01*
X101563694Y-121360090D01*
X101666306Y-121419333D01*
X101755876Y-121443333D01*
X101148011Y-122051197D01*
X101148011Y-122051198D01*
X101208597Y-122093621D01*
X101341950Y-122155805D01*
X101395235Y-122202723D01*
X101414696Y-122271000D01*
X101394154Y-122338960D01*
X101341951Y-122384194D01*
X101208600Y-122446377D01*
X101148010Y-122488801D01*
X101755875Y-123096666D01*
X101666306Y-123120667D01*
X101563694Y-123179910D01*
X101479910Y-123263694D01*
X101420667Y-123366306D01*
X101396666Y-123455875D01*
X100788801Y-122848010D01*
X100746378Y-122908598D01*
X100653352Y-123108092D01*
X100653350Y-123108096D01*
X100596380Y-123320712D01*
X100577195Y-123540000D01*
X100596380Y-123759287D01*
X100653350Y-123971903D01*
X100653352Y-123971907D01*
X100746379Y-124171403D01*
X100788800Y-124231987D01*
X101396666Y-123624122D01*
X101420667Y-123713694D01*
X101479910Y-123816306D01*
X101563694Y-123900090D01*
X101666306Y-123959333D01*
X101755876Y-123983333D01*
X101148011Y-124591197D01*
X101148011Y-124591198D01*
X101208597Y-124633621D01*
X101341950Y-124695805D01*
X101395235Y-124742723D01*
X101414696Y-124811000D01*
X101394154Y-124878960D01*
X101341951Y-124924194D01*
X101208600Y-124986377D01*
X101148010Y-125028801D01*
X101755875Y-125636666D01*
X101666306Y-125660667D01*
X101563694Y-125719910D01*
X101479910Y-125803694D01*
X101420667Y-125906306D01*
X101396666Y-125995875D01*
X100788801Y-125388010D01*
X100746378Y-125448598D01*
X100653352Y-125648092D01*
X100653350Y-125648096D01*
X100596380Y-125860712D01*
X100577195Y-126080000D01*
X100596380Y-126299287D01*
X100653350Y-126511903D01*
X100653352Y-126511907D01*
X100746379Y-126711403D01*
X100788800Y-126771987D01*
X101396666Y-126164122D01*
X101420667Y-126253694D01*
X101479910Y-126356306D01*
X101563694Y-126440090D01*
X101666306Y-126499333D01*
X101755876Y-126523333D01*
X101148011Y-127131197D01*
X101148011Y-127131198D01*
X101208597Y-127173621D01*
X101408092Y-127266647D01*
X101408096Y-127266649D01*
X101620712Y-127323619D01*
X101840000Y-127342804D01*
X102059287Y-127323619D01*
X102271903Y-127266649D01*
X102271907Y-127266647D01*
X102471399Y-127173622D01*
X102531987Y-127131197D01*
X102531987Y-127131196D01*
X101924124Y-126523333D01*
X102013694Y-126499333D01*
X102116306Y-126440090D01*
X102200090Y-126356306D01*
X102259333Y-126253694D01*
X102283333Y-126164124D01*
X102891196Y-126771987D01*
X102891197Y-126771987D01*
X102933622Y-126711399D01*
X103026647Y-126511907D01*
X103026649Y-126511903D01*
X103083619Y-126299287D01*
X103102804Y-126080000D01*
X103083619Y-125860712D01*
X103026649Y-125648096D01*
X103026647Y-125648092D01*
X102933619Y-125448594D01*
X102891199Y-125388011D01*
X102891197Y-125388011D01*
X102283333Y-125995875D01*
X102259333Y-125906306D01*
X102200090Y-125803694D01*
X102116306Y-125719910D01*
X102013694Y-125660667D01*
X101924123Y-125636666D01*
X102531987Y-125028800D01*
X102471403Y-124986379D01*
X102338049Y-124924195D01*
X102284764Y-124877278D01*
X102265303Y-124809000D01*
X102285845Y-124741040D01*
X102338049Y-124695805D01*
X102471399Y-124633622D01*
X102531987Y-124591197D01*
X102531987Y-124591196D01*
X101924124Y-123983333D01*
X102013694Y-123959333D01*
X102116306Y-123900090D01*
X102200090Y-123816306D01*
X102259333Y-123713694D01*
X102283333Y-123624124D01*
X102891196Y-124231987D01*
X102891197Y-124231987D01*
X102933622Y-124171399D01*
X103026647Y-123971907D01*
X103026649Y-123971903D01*
X103083619Y-123759287D01*
X103102804Y-123540000D01*
X103083619Y-123320712D01*
X103026649Y-123108096D01*
X103026647Y-123108092D01*
X102933619Y-122908594D01*
X102891199Y-122848011D01*
X102891197Y-122848011D01*
X102283333Y-123455875D01*
X102259333Y-123366306D01*
X102200090Y-123263694D01*
X102116306Y-123179910D01*
X102013694Y-123120667D01*
X101924123Y-123096666D01*
X102531987Y-122488800D01*
X102471403Y-122446379D01*
X102338049Y-122384195D01*
X102284764Y-122337278D01*
X102265303Y-122269000D01*
X102285845Y-122201040D01*
X102338049Y-122155805D01*
X102471399Y-122093622D01*
X102531987Y-122051197D01*
X102531987Y-122051196D01*
X101924124Y-121443333D01*
X102013694Y-121419333D01*
X102116306Y-121360090D01*
X102200090Y-121276306D01*
X102259333Y-121173694D01*
X102283333Y-121084124D01*
X102891196Y-121691987D01*
X102891197Y-121691987D01*
X102933622Y-121631399D01*
X103026647Y-121431907D01*
X103026649Y-121431903D01*
X103083619Y-121219287D01*
X103102804Y-121000000D01*
X103083619Y-120780712D01*
X103026649Y-120568096D01*
X103026647Y-120568092D01*
X102933619Y-120368594D01*
X102891199Y-120308011D01*
X102891197Y-120308011D01*
X102283333Y-120915875D01*
X102259333Y-120826306D01*
X102200090Y-120723694D01*
X102116306Y-120639910D01*
X102013694Y-120580667D01*
X101924123Y-120556666D01*
X102531987Y-119948800D01*
X102529721Y-119947214D01*
X102485392Y-119891757D01*
X102478083Y-119821137D01*
X102510113Y-119757777D01*
X102571314Y-119721791D01*
X102601991Y-119718000D01*
X102638585Y-119718000D01*
X102638597Y-119717999D01*
X102699093Y-119711494D01*
X102835963Y-119660445D01*
X102917288Y-119599565D01*
X102983808Y-119574754D01*
X103053183Y-119589845D01*
X103103385Y-119640047D01*
X103118477Y-119709421D01*
X103118319Y-119711412D01*
X103116693Y-119729998D01*
X103116693Y-119730000D01*
X103135885Y-119949371D01*
X103144412Y-119981194D01*
X103192879Y-120162073D01*
X103192881Y-120162079D01*
X103279647Y-120348151D01*
X103285944Y-120361654D01*
X103388769Y-120508502D01*
X103412251Y-120542038D01*
X103412254Y-120542042D01*
X103567957Y-120697745D01*
X103567961Y-120697748D01*
X103567962Y-120697749D01*
X103748346Y-120824056D01*
X103822637Y-120858698D01*
X103880768Y-120885805D01*
X103934053Y-120932722D01*
X103953514Y-121000999D01*
X103932972Y-121068959D01*
X103880768Y-121114195D01*
X103748346Y-121175944D01*
X103567965Y-121302248D01*
X103567959Y-121302253D01*
X103412253Y-121457959D01*
X103412248Y-121457965D01*
X103285944Y-121638346D01*
X103192881Y-121837920D01*
X103192879Y-121837926D01*
X103152825Y-121987410D01*
X103135885Y-122050629D01*
X103116693Y-122270000D01*
X103127676Y-122395545D01*
X103135885Y-122489370D01*
X103192879Y-122702073D01*
X103192881Y-122702079D01*
X103279647Y-122888150D01*
X103285944Y-122901654D01*
X103348146Y-122990487D01*
X103412251Y-123082038D01*
X103412254Y-123082042D01*
X103567957Y-123237745D01*
X103567961Y-123237748D01*
X103567962Y-123237749D01*
X103748346Y-123364056D01*
X103822637Y-123398698D01*
X103880768Y-123425805D01*
X103934053Y-123472722D01*
X103953514Y-123540999D01*
X103932972Y-123608959D01*
X103880768Y-123654195D01*
X103748346Y-123715944D01*
X103567965Y-123842248D01*
X103567959Y-123842253D01*
X103412253Y-123997959D01*
X103412248Y-123997965D01*
X103285944Y-124178346D01*
X103192881Y-124377920D01*
X103192879Y-124377926D01*
X103169677Y-124464516D01*
X103135885Y-124590629D01*
X103116693Y-124810000D01*
X103135885Y-125029371D01*
X103144412Y-125061194D01*
X103192879Y-125242073D01*
X103192881Y-125242079D01*
X103285942Y-125441650D01*
X103285944Y-125441654D01*
X103370950Y-125563054D01*
X103412251Y-125622038D01*
X103412254Y-125622042D01*
X103567957Y-125777745D01*
X103567961Y-125777748D01*
X103567962Y-125777749D01*
X103748346Y-125904056D01*
X103853219Y-125952958D01*
X103880768Y-125965805D01*
X103934053Y-126012722D01*
X103953514Y-126080999D01*
X103932972Y-126148959D01*
X103880768Y-126194195D01*
X103748346Y-126255944D01*
X103567965Y-126382248D01*
X103567959Y-126382253D01*
X103412253Y-126537959D01*
X103412248Y-126537965D01*
X103285944Y-126718346D01*
X103192881Y-126917920D01*
X103192879Y-126917926D01*
X103169677Y-127004516D01*
X103135885Y-127130629D01*
X103116693Y-127350000D01*
X103125836Y-127454513D01*
X103135885Y-127569370D01*
X103192879Y-127782073D01*
X103192881Y-127782079D01*
X103285942Y-127981650D01*
X103285944Y-127981654D01*
X103381348Y-128117904D01*
X103412251Y-128162038D01*
X103412254Y-128162042D01*
X103567957Y-128317745D01*
X103567961Y-128317748D01*
X103567962Y-128317749D01*
X103748346Y-128444056D01*
X103947924Y-128537120D01*
X104160629Y-128594115D01*
X104380000Y-128613307D01*
X104599371Y-128594115D01*
X104812076Y-128537120D01*
X105011654Y-128444056D01*
X105192038Y-128317749D01*
X105347749Y-128162038D01*
X105347752Y-128162033D01*
X105351287Y-128157822D01*
X105352186Y-128158577D01*
X105403065Y-128117904D01*
X105450828Y-128108500D01*
X106079338Y-128108500D01*
X106147459Y-128128502D01*
X106168433Y-128145405D01*
X106259839Y-128236811D01*
X106259844Y-128236815D01*
X106259845Y-128236816D01*
X106407087Y-128325827D01*
X106571351Y-128377013D01*
X106642735Y-128383500D01*
X107157264Y-128383499D01*
X107228649Y-128377013D01*
X107392913Y-128325827D01*
X107540155Y-128236816D01*
X107550886Y-128226085D01*
X107635905Y-128141067D01*
X107698217Y-128107041D01*
X107769032Y-128112106D01*
X107814095Y-128141067D01*
X107909839Y-128236811D01*
X107909844Y-128236815D01*
X107909845Y-128236816D01*
X108057087Y-128325827D01*
X108221351Y-128377013D01*
X108292735Y-128383500D01*
X108807264Y-128383499D01*
X108878649Y-128377013D01*
X109042913Y-128325827D01*
X109190155Y-128236816D01*
X109311816Y-128115155D01*
X109400827Y-127967913D01*
X109452013Y-127803649D01*
X109458500Y-127732265D01*
X109458499Y-127067736D01*
X109452013Y-126996351D01*
X109400827Y-126832087D01*
X109393965Y-126820737D01*
X109375840Y-126752094D01*
X109397704Y-126684548D01*
X109408147Y-126671253D01*
X109439040Y-126636944D01*
X109534527Y-126471556D01*
X109593542Y-126289928D01*
X109613504Y-126100000D01*
X109593542Y-125910072D01*
X109534527Y-125728444D01*
X109439040Y-125563056D01*
X109386944Y-125505198D01*
X109356229Y-125441194D01*
X109364992Y-125370740D01*
X109372749Y-125355714D01*
X109406430Y-125300000D01*
X109786496Y-125300000D01*
X109806457Y-125489927D01*
X109831988Y-125568500D01*
X109865473Y-125671556D01*
X109865476Y-125671561D01*
X109929660Y-125782731D01*
X109946398Y-125851726D01*
X109931062Y-125902081D01*
X109932300Y-125902639D01*
X109929171Y-125909590D01*
X109877986Y-126073853D01*
X109875076Y-126105885D01*
X109872045Y-126139244D01*
X109871500Y-126145237D01*
X109871500Y-126809761D01*
X109877986Y-126881146D01*
X109877986Y-126881147D01*
X109929170Y-127045406D01*
X109929172Y-127045411D01*
X110018184Y-127192655D01*
X110018188Y-127192660D01*
X110139839Y-127314311D01*
X110139844Y-127314315D01*
X110139845Y-127314316D01*
X110287087Y-127403327D01*
X110451351Y-127454513D01*
X110522735Y-127461000D01*
X111037264Y-127460999D01*
X111108649Y-127454513D01*
X111272913Y-127403327D01*
X111420155Y-127314316D01*
X111467824Y-127266647D01*
X111515905Y-127218567D01*
X111578217Y-127184541D01*
X111649032Y-127189606D01*
X111694095Y-127218567D01*
X111789839Y-127314311D01*
X111789844Y-127314315D01*
X111789845Y-127314316D01*
X111937087Y-127403327D01*
X112101351Y-127454513D01*
X112172735Y-127461000D01*
X112687264Y-127460999D01*
X112758649Y-127454513D01*
X112922913Y-127403327D01*
X113070155Y-127314316D01*
X113191816Y-127192655D01*
X113280827Y-127045413D01*
X113293571Y-127004516D01*
X113332933Y-126945430D01*
X113397990Y-126917004D01*
X113413866Y-126916000D01*
X114209172Y-126916000D01*
X114277293Y-126936002D01*
X114308224Y-126965732D01*
X114308713Y-126965322D01*
X114312254Y-126969542D01*
X114467957Y-127125245D01*
X114467961Y-127125248D01*
X114467962Y-127125249D01*
X114648346Y-127251556D01*
X114847924Y-127344620D01*
X115060629Y-127401615D01*
X115280000Y-127420807D01*
X115499371Y-127401615D01*
X115712076Y-127344620D01*
X115911654Y-127251556D01*
X116092038Y-127125249D01*
X116247749Y-126969538D01*
X116332787Y-126848092D01*
X116388244Y-126803763D01*
X116458863Y-126796454D01*
X116522224Y-126828484D01*
X116558209Y-126889686D01*
X116562000Y-126920362D01*
X116562000Y-127173500D01*
X117447032Y-127173500D01*
X117400667Y-127253806D01*
X117370000Y-127368256D01*
X117370000Y-127486744D01*
X117400667Y-127601194D01*
X117447032Y-127681500D01*
X116562000Y-127681500D01*
X116562000Y-128226097D01*
X116568505Y-128286593D01*
X116619555Y-128423464D01*
X116619555Y-128423465D01*
X116707095Y-128540404D01*
X116824034Y-128627944D01*
X116960906Y-128678994D01*
X117021402Y-128685499D01*
X117021415Y-128685500D01*
X117566000Y-128685500D01*
X117566000Y-127800468D01*
X117646306Y-127846833D01*
X117760756Y-127877500D01*
X117879244Y-127877500D01*
X117993694Y-127846833D01*
X118074000Y-127800468D01*
X118074000Y-128685500D01*
X118618585Y-128685500D01*
X118618597Y-128685499D01*
X118679093Y-128678994D01*
X118815964Y-128627944D01*
X118815965Y-128627944D01*
X118932904Y-128540404D01*
X119020444Y-128423465D01*
X119020444Y-128423464D01*
X119071494Y-128286593D01*
X119077999Y-128226097D01*
X119078000Y-128226085D01*
X119078000Y-127681500D01*
X118192968Y-127681500D01*
X118239333Y-127601194D01*
X118270000Y-127486744D01*
X118270000Y-127368256D01*
X118239333Y-127253806D01*
X118192968Y-127173500D01*
X119078000Y-127173500D01*
X119078000Y-126628914D01*
X119077999Y-126628902D01*
X119071494Y-126568406D01*
X119020444Y-126431535D01*
X119020444Y-126431534D01*
X118932904Y-126314595D01*
X118815965Y-126227055D01*
X118679093Y-126176005D01*
X118618597Y-126169500D01*
X118581990Y-126169500D01*
X118513869Y-126149498D01*
X118467376Y-126095842D01*
X118457272Y-126025568D01*
X118486766Y-125960988D01*
X118509718Y-125940288D01*
X118511987Y-125938698D01*
X118511987Y-125938696D01*
X117904124Y-125330833D01*
X117993694Y-125306833D01*
X118096306Y-125247590D01*
X118180090Y-125163806D01*
X118239333Y-125061194D01*
X118263333Y-124971624D01*
X118871196Y-125579487D01*
X118871197Y-125579487D01*
X118913622Y-125518899D01*
X119006647Y-125319407D01*
X119006649Y-125319403D01*
X119063619Y-125106787D01*
X119082804Y-124887500D01*
X119063619Y-124668212D01*
X119006649Y-124455596D01*
X119006647Y-124455592D01*
X118913619Y-124256094D01*
X118871199Y-124195511D01*
X118871197Y-124195511D01*
X118263333Y-124803375D01*
X118239333Y-124713806D01*
X118180090Y-124611194D01*
X118096306Y-124527410D01*
X117993694Y-124468167D01*
X117904123Y-124444166D01*
X118511987Y-123836300D01*
X118451403Y-123793879D01*
X118318049Y-123731695D01*
X118264764Y-123684778D01*
X118245303Y-123616500D01*
X118265845Y-123548540D01*
X118318049Y-123503305D01*
X118451399Y-123441122D01*
X118511987Y-123398697D01*
X118511987Y-123398696D01*
X117904124Y-122790833D01*
X117993694Y-122766833D01*
X118096306Y-122707590D01*
X118180090Y-122623806D01*
X118239333Y-122521194D01*
X118263333Y-122431624D01*
X118871196Y-123039487D01*
X118871197Y-123039487D01*
X118913622Y-122978899D01*
X119006647Y-122779407D01*
X119006649Y-122779403D01*
X119063619Y-122566787D01*
X119082804Y-122347500D01*
X119063619Y-122128212D01*
X119006649Y-121915596D01*
X119006647Y-121915592D01*
X118913619Y-121716094D01*
X118871199Y-121655511D01*
X118871197Y-121655511D01*
X118263333Y-122263375D01*
X118239333Y-122173806D01*
X118180090Y-122071194D01*
X118096306Y-121987410D01*
X117993694Y-121928167D01*
X117904123Y-121904166D01*
X118511987Y-121296300D01*
X118451403Y-121253879D01*
X118318049Y-121191695D01*
X118264764Y-121144778D01*
X118245303Y-121076500D01*
X118265845Y-121008540D01*
X118318049Y-120963305D01*
X118451399Y-120901122D01*
X118511987Y-120858697D01*
X118511987Y-120858696D01*
X117904124Y-120250833D01*
X117993694Y-120226833D01*
X118096306Y-120167590D01*
X118180090Y-120083806D01*
X118239333Y-119981194D01*
X118263333Y-119891624D01*
X118871196Y-120499487D01*
X118871197Y-120499487D01*
X118913622Y-120438899D01*
X119006647Y-120239407D01*
X119006649Y-120239403D01*
X119063619Y-120026787D01*
X119082804Y-119807500D01*
X119063619Y-119588212D01*
X119006649Y-119375596D01*
X119006647Y-119375592D01*
X118913619Y-119176094D01*
X118871199Y-119115511D01*
X118871197Y-119115511D01*
X118263333Y-119723375D01*
X118239333Y-119633806D01*
X118180090Y-119531194D01*
X118096306Y-119447410D01*
X117993694Y-119388167D01*
X117904123Y-119364166D01*
X118511987Y-118756300D01*
X118451403Y-118713879D01*
X118251907Y-118620852D01*
X118251903Y-118620850D01*
X118039287Y-118563880D01*
X117820000Y-118544695D01*
X117600712Y-118563880D01*
X117388096Y-118620850D01*
X117388092Y-118620852D01*
X117188598Y-118713878D01*
X117128010Y-118756301D01*
X117735875Y-119364166D01*
X117646306Y-119388167D01*
X117543694Y-119447410D01*
X117459910Y-119531194D01*
X117400667Y-119633806D01*
X117376666Y-119723375D01*
X116768801Y-119115510D01*
X116726378Y-119176098D01*
X116633352Y-119375592D01*
X116633350Y-119375596D01*
X116576380Y-119588212D01*
X116557195Y-119807500D01*
X116576380Y-120026787D01*
X116633350Y-120239403D01*
X116633352Y-120239407D01*
X116726379Y-120438903D01*
X116768800Y-120499487D01*
X117376666Y-119891622D01*
X117400667Y-119981194D01*
X117459910Y-120083806D01*
X117543694Y-120167590D01*
X117646306Y-120226833D01*
X117735876Y-120250833D01*
X117128011Y-120858697D01*
X117128011Y-120858698D01*
X117188597Y-120901121D01*
X117321950Y-120963305D01*
X117375235Y-121010223D01*
X117394696Y-121078500D01*
X117374154Y-121146460D01*
X117321951Y-121191694D01*
X117188600Y-121253877D01*
X117128010Y-121296301D01*
X117735875Y-121904166D01*
X117646306Y-121928167D01*
X117543694Y-121987410D01*
X117459910Y-122071194D01*
X117400667Y-122173806D01*
X117376666Y-122263375D01*
X116768801Y-121655510D01*
X116726378Y-121716098D01*
X116633352Y-121915592D01*
X116633350Y-121915596D01*
X116576380Y-122128212D01*
X116557195Y-122347500D01*
X116576380Y-122566787D01*
X116633350Y-122779403D01*
X116633352Y-122779407D01*
X116726379Y-122978903D01*
X116768800Y-123039487D01*
X117376666Y-122431622D01*
X117400667Y-122521194D01*
X117459910Y-122623806D01*
X117543694Y-122707590D01*
X117646306Y-122766833D01*
X117735876Y-122790833D01*
X117128011Y-123398697D01*
X117128011Y-123398698D01*
X117188597Y-123441121D01*
X117321950Y-123503305D01*
X117375235Y-123550223D01*
X117394696Y-123618500D01*
X117374154Y-123686460D01*
X117321951Y-123731694D01*
X117188600Y-123793877D01*
X117128010Y-123836301D01*
X117735875Y-124444166D01*
X117646306Y-124468167D01*
X117543694Y-124527410D01*
X117459910Y-124611194D01*
X117400667Y-124713806D01*
X117376666Y-124803375D01*
X116768801Y-124195510D01*
X116726378Y-124256098D01*
X116633352Y-124455592D01*
X116633350Y-124455596D01*
X116576380Y-124668212D01*
X116557195Y-124887500D01*
X116576380Y-125106787D01*
X116633350Y-125319403D01*
X116633352Y-125319407D01*
X116726379Y-125518903D01*
X116768800Y-125579487D01*
X117376666Y-124971622D01*
X117400667Y-125061194D01*
X117459910Y-125163806D01*
X117543694Y-125247590D01*
X117646306Y-125306833D01*
X117735876Y-125330833D01*
X117128011Y-125938697D01*
X117128011Y-125938698D01*
X117130280Y-125940287D01*
X117174608Y-125995744D01*
X117181917Y-126066363D01*
X117149886Y-126129724D01*
X117088685Y-126165709D01*
X117058009Y-126169500D01*
X117021402Y-126169500D01*
X116960906Y-126176005D01*
X116824035Y-126227055D01*
X116742709Y-126287935D01*
X116676189Y-126312745D01*
X116606815Y-126297653D01*
X116556613Y-126247451D01*
X116541522Y-126178077D01*
X116541681Y-126176081D01*
X116541688Y-126176005D01*
X116543307Y-126157500D01*
X116524115Y-125938129D01*
X116467120Y-125725424D01*
X116374056Y-125525847D01*
X116247749Y-125345462D01*
X116092038Y-125189751D01*
X115911654Y-125063444D01*
X115911648Y-125063441D01*
X115911648Y-125063440D01*
X115779232Y-125001695D01*
X115725946Y-124954778D01*
X115706485Y-124886501D01*
X115727026Y-124818541D01*
X115779232Y-124773305D01*
X115911648Y-124711559D01*
X115911648Y-124711558D01*
X115911654Y-124711556D01*
X116092038Y-124585249D01*
X116247749Y-124429538D01*
X116374056Y-124249154D01*
X116467120Y-124049576D01*
X116524115Y-123836871D01*
X116543307Y-123617500D01*
X116524115Y-123398129D01*
X116467120Y-123185424D01*
X116374056Y-122985847D01*
X116247749Y-122805462D01*
X116092038Y-122649751D01*
X115911654Y-122523444D01*
X115911648Y-122523441D01*
X115911648Y-122523440D01*
X115779232Y-122461695D01*
X115725946Y-122414778D01*
X115706485Y-122346501D01*
X115727026Y-122278541D01*
X115779232Y-122233305D01*
X115911648Y-122171559D01*
X115911648Y-122171558D01*
X115911654Y-122171556D01*
X116092038Y-122045249D01*
X116247749Y-121889538D01*
X116374056Y-121709154D01*
X116467120Y-121509576D01*
X116524115Y-121296871D01*
X116543307Y-121077500D01*
X116524115Y-120858129D01*
X116467120Y-120645424D01*
X116374056Y-120445847D01*
X116247749Y-120265462D01*
X116092038Y-120109751D01*
X115911654Y-119983444D01*
X115911648Y-119983441D01*
X115911648Y-119983440D01*
X115779232Y-119921695D01*
X115725946Y-119874778D01*
X115706485Y-119806501D01*
X115727026Y-119738541D01*
X115779232Y-119693305D01*
X115911648Y-119631559D01*
X115911648Y-119631558D01*
X115911654Y-119631556D01*
X116092038Y-119505249D01*
X116247749Y-119349538D01*
X116374056Y-119169154D01*
X116467120Y-118969576D01*
X116524115Y-118756871D01*
X116543307Y-118537500D01*
X116524115Y-118318129D01*
X116467120Y-118105424D01*
X116374056Y-117905847D01*
X116247749Y-117725462D01*
X116092038Y-117569751D01*
X115911654Y-117443444D01*
X115879497Y-117428449D01*
X115712079Y-117350381D01*
X115712073Y-117350379D01*
X115622178Y-117326291D01*
X115499371Y-117293385D01*
X115280000Y-117274193D01*
X115060629Y-117293385D01*
X114847926Y-117350379D01*
X114847920Y-117350381D01*
X114648346Y-117443444D01*
X114467965Y-117569748D01*
X114312249Y-117725463D01*
X114308713Y-117729678D01*
X114307813Y-117728922D01*
X114256935Y-117769596D01*
X114209172Y-117779000D01*
X112765290Y-117779000D01*
X112618753Y-117808149D01*
X112618750Y-117808150D01*
X112480717Y-117865325D01*
X112364817Y-117942766D01*
X112297064Y-117963980D01*
X112294817Y-117964000D01*
X112172738Y-117964000D01*
X112101353Y-117970486D01*
X112101352Y-117970486D01*
X111937093Y-118021670D01*
X111937084Y-118021674D01*
X111869097Y-118062774D01*
X111800453Y-118080898D01*
X111732907Y-118059033D01*
X111687905Y-118004121D01*
X111678603Y-117941776D01*
X111682379Y-117905846D01*
X111693504Y-117800000D01*
X111673542Y-117610072D01*
X111614527Y-117428444D01*
X111521603Y-117267496D01*
X121831493Y-117267496D01*
X121831493Y-117267503D01*
X121851498Y-117572731D01*
X121851500Y-117572745D01*
X121882717Y-117729678D01*
X121909699Y-117865326D01*
X121911176Y-117872748D01*
X121911178Y-117872758D01*
X122009498Y-118162400D01*
X122009504Y-118162414D01*
X122144792Y-118436751D01*
X122314731Y-118691084D01*
X122314734Y-118691088D01*
X122314736Y-118691091D01*
X122314738Y-118691093D01*
X122334720Y-118713878D01*
X122516425Y-118921074D01*
X122607165Y-119000650D01*
X122746407Y-119122762D01*
X122746409Y-119122763D01*
X122746411Y-119122765D01*
X122746415Y-119122768D01*
X122914417Y-119235023D01*
X123000746Y-119292706D01*
X123275092Y-119427999D01*
X123564750Y-119526324D01*
X123864764Y-119586001D01*
X124022692Y-119596352D01*
X124169997Y-119606007D01*
X124170000Y-119606007D01*
X124170003Y-119606007D01*
X124284463Y-119598504D01*
X124475236Y-119586001D01*
X124775250Y-119526324D01*
X125064908Y-119427999D01*
X125339254Y-119292706D01*
X125593593Y-119122762D01*
X125823574Y-118921074D01*
X126025262Y-118691093D01*
X126195206Y-118436754D01*
X126330499Y-118162408D01*
X126428824Y-117872750D01*
X126488501Y-117572736D01*
X126503290Y-117347095D01*
X126508507Y-117267503D01*
X126508507Y-117267496D01*
X126498504Y-117114882D01*
X126488501Y-116962264D01*
X126428824Y-116662250D01*
X126330499Y-116372592D01*
X126195206Y-116098247D01*
X126025262Y-115843907D01*
X125823574Y-115613926D01*
X125823571Y-115613924D01*
X125823570Y-115613922D01*
X125593588Y-115412234D01*
X125593584Y-115412231D01*
X125339251Y-115242292D01*
X125064914Y-115107004D01*
X125064908Y-115107001D01*
X125064903Y-115106999D01*
X125064900Y-115106998D01*
X124775258Y-115008678D01*
X124775252Y-115008676D01*
X124775250Y-115008676D01*
X124674789Y-114988693D01*
X124475245Y-114949000D01*
X124475231Y-114948998D01*
X124170003Y-114928993D01*
X124169997Y-114928993D01*
X123864768Y-114948998D01*
X123864754Y-114949000D01*
X123614980Y-114998684D01*
X123564750Y-115008676D01*
X123564748Y-115008676D01*
X123564741Y-115008678D01*
X123275099Y-115106998D01*
X123275091Y-115107001D01*
X123000741Y-115242297D01*
X122746409Y-115412236D01*
X122516426Y-115613926D01*
X122314736Y-115843909D01*
X122144797Y-116098241D01*
X122009501Y-116372591D01*
X122009498Y-116372599D01*
X121911178Y-116662241D01*
X121911176Y-116662251D01*
X121851500Y-116962254D01*
X121851498Y-116962268D01*
X121831493Y-117267496D01*
X111521603Y-117267496D01*
X111519040Y-117263056D01*
X111519038Y-117263054D01*
X111519034Y-117263048D01*
X111391255Y-117121135D01*
X111331910Y-117078019D01*
X111236752Y-117008882D01*
X111236750Y-117008881D01*
X111236749Y-117008880D01*
X111078259Y-116938315D01*
X111059518Y-116927981D01*
X111059291Y-116927829D01*
X111059287Y-116927827D01*
X110921252Y-116870651D01*
X110921247Y-116870649D01*
X110774707Y-116841500D01*
X110774705Y-116841500D01*
X110625295Y-116841500D01*
X110625292Y-116841500D01*
X110478752Y-116870649D01*
X110478747Y-116870651D01*
X110340716Y-116927826D01*
X110216486Y-117010833D01*
X110216480Y-117010838D01*
X110110838Y-117116480D01*
X110110833Y-117116486D01*
X110027826Y-117240716D01*
X109968281Y-117384470D01*
X109968071Y-117384383D01*
X109959514Y-117404122D01*
X109945473Y-117428442D01*
X109945470Y-117428449D01*
X109886457Y-117610071D01*
X109866496Y-117800000D01*
X109886457Y-117989928D01*
X109945470Y-118171550D01*
X109945471Y-118171552D01*
X109945472Y-118171554D01*
X109945473Y-118171556D01*
X109961720Y-118199698D01*
X109978458Y-118268690D01*
X109960430Y-118327880D01*
X109929172Y-118379587D01*
X109877986Y-118543853D01*
X109871500Y-118615237D01*
X109871500Y-119279761D01*
X109877986Y-119351146D01*
X109877986Y-119351147D01*
X109929170Y-119515406D01*
X109929171Y-119515408D01*
X109929173Y-119515413D01*
X109935769Y-119526324D01*
X110018184Y-119662655D01*
X110018188Y-119662660D01*
X110098472Y-119742944D01*
X110132498Y-119805256D01*
X110127433Y-119876071D01*
X110103015Y-119916348D01*
X110060961Y-119963054D01*
X110060958Y-119963058D01*
X109965476Y-120128438D01*
X109965473Y-120128445D01*
X109906457Y-120310072D01*
X109886496Y-120500000D01*
X109906457Y-120689928D01*
X109938785Y-120789422D01*
X109940812Y-120860390D01*
X109931544Y-120882298D01*
X109932300Y-120882639D01*
X109929171Y-120889590D01*
X109877986Y-121053853D01*
X109871500Y-121125237D01*
X109871500Y-121789761D01*
X109877986Y-121861146D01*
X109877986Y-121861147D01*
X109929170Y-122025406D01*
X109929172Y-122025411D01*
X109929173Y-122025413D01*
X109944760Y-122051197D01*
X110018184Y-122172655D01*
X110020373Y-122175449D01*
X110021337Y-122177870D01*
X110022127Y-122179177D01*
X110021909Y-122179308D01*
X110046637Y-122241409D01*
X110033070Y-122311098D01*
X110030304Y-122316152D01*
X109965476Y-122428438D01*
X109965473Y-122428444D01*
X109959646Y-122446377D01*
X109906457Y-122610072D01*
X109886496Y-122800000D01*
X109906457Y-122989927D01*
X109918991Y-123028500D01*
X109965473Y-123171556D01*
X109965476Y-123171561D01*
X109977856Y-123193004D01*
X109994594Y-123261999D01*
X109976566Y-123321188D01*
X109929172Y-123399587D01*
X109877986Y-123563853D01*
X109871500Y-123635237D01*
X109871500Y-124299761D01*
X109877986Y-124371146D01*
X109877986Y-124371147D01*
X109929170Y-124535406D01*
X109929172Y-124535410D01*
X109929173Y-124535413D01*
X109962552Y-124590629D01*
X109975907Y-124612720D01*
X109994031Y-124681365D01*
X109972167Y-124748911D01*
X109961728Y-124762202D01*
X109960959Y-124763055D01*
X109960958Y-124763057D01*
X109867926Y-124924195D01*
X109865473Y-124928444D01*
X109856370Y-124956459D01*
X109806457Y-125110072D01*
X109786496Y-125300000D01*
X109406430Y-125300000D01*
X109425827Y-125267913D01*
X109477013Y-125103649D01*
X109483500Y-125032265D01*
X109483499Y-124367736D01*
X109477013Y-124296351D01*
X109432386Y-124153139D01*
X109431218Y-124082153D01*
X109432849Y-124076718D01*
X109434525Y-124071558D01*
X109434527Y-124071556D01*
X109493542Y-123889928D01*
X109513504Y-123700000D01*
X109493542Y-123510072D01*
X109434527Y-123328444D01*
X109381302Y-123236257D01*
X109364565Y-123167263D01*
X109382594Y-123108072D01*
X109400827Y-123077913D01*
X109452013Y-122913649D01*
X109458500Y-122842265D01*
X109458499Y-122177736D01*
X109452013Y-122106351D01*
X109400827Y-121942087D01*
X109376687Y-121902155D01*
X109358563Y-121833513D01*
X109375397Y-121773972D01*
X109376700Y-121771713D01*
X109434527Y-121671556D01*
X109493542Y-121489928D01*
X109513504Y-121300000D01*
X109493542Y-121110072D01*
X109434527Y-120928444D01*
X109377726Y-120830062D01*
X109348819Y-120779993D01*
X109332081Y-120710998D01*
X109350109Y-120651810D01*
X109400827Y-120567913D01*
X109452013Y-120403649D01*
X109458500Y-120332265D01*
X109458499Y-119667736D01*
X109452013Y-119596351D01*
X109406042Y-119448823D01*
X109400829Y-119432093D01*
X109400827Y-119432088D01*
X109400827Y-119432087D01*
X109326671Y-119309419D01*
X109308500Y-119244235D01*
X109308500Y-119150397D01*
X109325381Y-119087397D01*
X109325564Y-119087078D01*
X109334527Y-119071556D01*
X109393542Y-118889928D01*
X109413504Y-118700000D01*
X109393542Y-118510072D01*
X109334527Y-118328444D01*
X109239040Y-118163056D01*
X109239038Y-118163054D01*
X109239034Y-118163048D01*
X109111255Y-118021135D01*
X108956752Y-117908882D01*
X108782288Y-117831206D01*
X108595487Y-117791500D01*
X108404513Y-117791500D01*
X108217711Y-117831206D01*
X108043247Y-117908882D01*
X107888744Y-118021135D01*
X107760965Y-118163048D01*
X107760958Y-118163058D01*
X107665476Y-118328438D01*
X107665473Y-118328444D01*
X107655463Y-118359251D01*
X107606457Y-118510072D01*
X107586496Y-118700000D01*
X107606457Y-118889927D01*
X107624856Y-118946551D01*
X107626463Y-118951498D01*
X107628586Y-118958030D01*
X107630614Y-119028998D01*
X107593952Y-119089796D01*
X107530240Y-119121121D01*
X107459706Y-119113029D01*
X107443572Y-119104797D01*
X107392913Y-119074173D01*
X107392911Y-119074172D01*
X107392909Y-119074171D01*
X107392906Y-119074170D01*
X107228646Y-119022986D01*
X107176723Y-119018268D01*
X107157265Y-119016500D01*
X107157262Y-119016500D01*
X106914578Y-119016500D01*
X106866361Y-119006909D01*
X106851247Y-119000649D01*
X106775007Y-118985484D01*
X106775005Y-118985483D01*
X106704709Y-118971500D01*
X106704706Y-118971500D01*
X105450828Y-118971500D01*
X105382707Y-118951498D01*
X105351775Y-118921767D01*
X105351287Y-118922178D01*
X105347745Y-118917957D01*
X105192042Y-118762254D01*
X105192038Y-118762251D01*
X105154985Y-118736306D01*
X105011654Y-118635944D01*
X104979285Y-118620850D01*
X104812079Y-118542881D01*
X104812073Y-118542879D01*
X104722178Y-118518791D01*
X104599371Y-118485885D01*
X104380000Y-118466693D01*
X104160629Y-118485885D01*
X103947926Y-118542879D01*
X103947920Y-118542881D01*
X103748346Y-118635944D01*
X103567965Y-118762248D01*
X103567959Y-118762253D01*
X103412253Y-118917959D01*
X103412248Y-118917965D01*
X103327213Y-119039408D01*
X103271756Y-119083736D01*
X103201136Y-119091045D01*
X103137776Y-119059014D01*
X103101791Y-118997813D01*
X103098000Y-118967137D01*
X103098000Y-118714000D01*
X102212968Y-118714000D01*
X102259333Y-118633694D01*
X102290000Y-118519244D01*
X102290000Y-118400756D01*
X102259333Y-118286306D01*
X102212968Y-118206000D01*
X103098000Y-118206000D01*
X103098000Y-117661414D01*
X103097999Y-117661402D01*
X103091494Y-117600906D01*
X103040444Y-117464035D01*
X103040444Y-117464034D01*
X102952904Y-117347095D01*
X102835965Y-117259555D01*
X102699093Y-117208505D01*
X102638597Y-117202000D01*
X102094000Y-117202000D01*
X102094000Y-118087031D01*
X102013694Y-118040667D01*
X101899244Y-118010000D01*
X101780756Y-118010000D01*
X101666306Y-118040667D01*
X101586000Y-118087031D01*
X101586000Y-117202000D01*
X101041402Y-117202000D01*
X100980906Y-117208505D01*
X100844035Y-117259555D01*
X100844034Y-117259555D01*
X100727095Y-117347095D01*
X100639555Y-117464034D01*
X100639555Y-117464035D01*
X100588505Y-117600906D01*
X100582000Y-117661402D01*
X100582000Y-118206000D01*
X101467032Y-118206000D01*
X101420667Y-118286306D01*
X101390000Y-118400756D01*
X101390000Y-118519244D01*
X101420667Y-118633694D01*
X101467032Y-118714000D01*
X100582000Y-118714000D01*
X100582000Y-119258597D01*
X100588505Y-119319093D01*
X100639555Y-119455964D01*
X100639555Y-119455965D01*
X100727095Y-119572904D01*
X100844034Y-119660444D01*
X100980906Y-119711494D01*
X101041402Y-119717999D01*
X101041415Y-119718000D01*
X101078009Y-119718000D01*
X101146130Y-119738002D01*
X101192623Y-119791658D01*
X101202727Y-119861932D01*
X101173233Y-119926512D01*
X101150278Y-119947214D01*
X101148010Y-119948801D01*
X101755875Y-120556666D01*
X101666306Y-120580667D01*
X101563694Y-120639910D01*
X101479910Y-120723694D01*
X101420667Y-120826306D01*
X101396666Y-120915875D01*
X100788801Y-120308010D01*
X100746378Y-120368598D01*
X100653352Y-120568092D01*
X100653350Y-120568096D01*
X100596380Y-120780712D01*
X100577195Y-121000000D01*
X88200000Y-121000000D01*
X88200000Y-117189996D01*
X93151493Y-117189996D01*
X93151493Y-117190003D01*
X93171498Y-117495231D01*
X93171500Y-117495245D01*
X93192518Y-117600906D01*
X93217982Y-117728922D01*
X93231176Y-117795248D01*
X93231178Y-117795258D01*
X93329498Y-118084900D01*
X93329504Y-118084914D01*
X93464792Y-118359251D01*
X93634731Y-118613584D01*
X93634734Y-118613588D01*
X93634736Y-118613591D01*
X93634738Y-118613593D01*
X93690787Y-118677505D01*
X93836425Y-118843574D01*
X93959490Y-118951498D01*
X94066407Y-119045262D01*
X94066409Y-119045263D01*
X94066411Y-119045265D01*
X94066415Y-119045268D01*
X94234417Y-119157523D01*
X94320746Y-119215206D01*
X94595092Y-119350499D01*
X94884750Y-119448824D01*
X95184764Y-119508501D01*
X95359184Y-119519933D01*
X95489997Y-119528507D01*
X95490000Y-119528507D01*
X95490003Y-119528507D01*
X95604463Y-119521004D01*
X95795236Y-119508501D01*
X96095250Y-119448824D01*
X96384908Y-119350499D01*
X96659254Y-119215206D01*
X96913593Y-119045262D01*
X97143574Y-118843574D01*
X97345262Y-118613593D01*
X97515206Y-118359254D01*
X97650499Y-118084908D01*
X97748824Y-117795250D01*
X97808501Y-117495236D01*
X97823427Y-117267503D01*
X97828507Y-117190003D01*
X97828507Y-117189996D01*
X97813581Y-116962268D01*
X97808501Y-116884764D01*
X97748824Y-116584750D01*
X97650499Y-116295092D01*
X97515206Y-116020747D01*
X97345262Y-115766407D01*
X97143574Y-115536426D01*
X97143571Y-115536424D01*
X97143570Y-115536422D01*
X96913588Y-115334734D01*
X96913584Y-115334731D01*
X96659251Y-115164792D01*
X96384914Y-115029504D01*
X96384908Y-115029501D01*
X96384903Y-115029499D01*
X96384900Y-115029498D01*
X96095258Y-114931178D01*
X96095252Y-114931176D01*
X96095250Y-114931176D01*
X95994789Y-114911193D01*
X95795245Y-114871500D01*
X95795231Y-114871498D01*
X95490003Y-114851493D01*
X95489997Y-114851493D01*
X95184768Y-114871498D01*
X95184754Y-114871500D01*
X94934980Y-114921184D01*
X94884750Y-114931176D01*
X94884748Y-114931176D01*
X94884741Y-114931178D01*
X94595099Y-115029498D01*
X94595091Y-115029501D01*
X94320741Y-115164797D01*
X94066409Y-115334736D01*
X93836426Y-115536426D01*
X93634736Y-115766409D01*
X93464797Y-116020741D01*
X93329501Y-116295091D01*
X93329498Y-116295099D01*
X93231178Y-116584741D01*
X93231176Y-116584751D01*
X93171500Y-116884754D01*
X93171498Y-116884768D01*
X93151493Y-117189996D01*
X88200000Y-117189996D01*
X88200000Y-111929996D01*
X93261493Y-111929996D01*
X93261493Y-111930003D01*
X93281498Y-112235231D01*
X93281500Y-112235245D01*
X93294927Y-112302745D01*
X93340564Y-112532174D01*
X93341176Y-112535248D01*
X93341178Y-112535258D01*
X93439498Y-112824900D01*
X93439504Y-112824914D01*
X93574792Y-113099251D01*
X93744731Y-113353584D01*
X93744734Y-113353588D01*
X93946425Y-113583574D01*
X94092063Y-113711294D01*
X94176407Y-113785262D01*
X94176409Y-113785263D01*
X94176411Y-113785265D01*
X94176415Y-113785268D01*
X94344417Y-113897523D01*
X94430746Y-113955206D01*
X94705092Y-114090499D01*
X94994750Y-114188824D01*
X95294764Y-114248501D01*
X95469184Y-114259933D01*
X95599997Y-114268507D01*
X95600000Y-114268507D01*
X95600003Y-114268507D01*
X95714463Y-114261004D01*
X95905236Y-114248501D01*
X96205250Y-114188824D01*
X96494908Y-114090499D01*
X96769254Y-113955206D01*
X97023593Y-113785262D01*
X97253574Y-113583574D01*
X97455262Y-113353593D01*
X97625206Y-113099254D01*
X97760499Y-112824908D01*
X97858824Y-112535250D01*
X97918501Y-112235236D01*
X97935263Y-111979489D01*
X97938507Y-111930003D01*
X97938507Y-111929996D01*
X97918501Y-111624768D01*
X97918501Y-111624764D01*
X97858824Y-111324750D01*
X97760499Y-111035092D01*
X97625206Y-110760747D01*
X97455262Y-110506407D01*
X97253574Y-110276426D01*
X97253571Y-110276424D01*
X97253570Y-110276422D01*
X97100554Y-110142231D01*
X97023593Y-110074738D01*
X97023591Y-110074736D01*
X97023588Y-110074734D01*
X97023584Y-110074731D01*
X96769251Y-109904792D01*
X96494914Y-109769504D01*
X96494908Y-109769501D01*
X96494903Y-109769499D01*
X96494900Y-109769498D01*
X96205258Y-109671178D01*
X96205252Y-109671176D01*
X96205250Y-109671176D01*
X96104789Y-109651193D01*
X95905245Y-109611500D01*
X95905231Y-109611498D01*
X95600003Y-109591493D01*
X95599997Y-109591493D01*
X95294768Y-109611498D01*
X95294754Y-109611500D01*
X95044980Y-109661184D01*
X94994750Y-109671176D01*
X94994748Y-109671176D01*
X94994741Y-109671178D01*
X94705099Y-109769498D01*
X94705091Y-109769501D01*
X94430741Y-109904797D01*
X94176409Y-110074736D01*
X93946426Y-110276426D01*
X93744736Y-110506409D01*
X93574797Y-110760741D01*
X93439501Y-111035091D01*
X93439498Y-111035099D01*
X93341178Y-111324741D01*
X93341176Y-111324751D01*
X93281500Y-111624754D01*
X93281498Y-111624768D01*
X93261493Y-111929996D01*
X88200000Y-111929996D01*
X88200000Y-100499996D01*
X93261493Y-100499996D01*
X93261493Y-100500003D01*
X93281498Y-100805231D01*
X93281500Y-100805245D01*
X93341176Y-101105248D01*
X93341178Y-101105258D01*
X93439498Y-101394900D01*
X93439504Y-101394914D01*
X93574792Y-101669251D01*
X93744731Y-101923584D01*
X93744734Y-101923588D01*
X93744736Y-101923591D01*
X93744738Y-101923593D01*
X93764720Y-101946378D01*
X93946425Y-102153574D01*
X94064170Y-102256833D01*
X94176407Y-102355262D01*
X94176409Y-102355263D01*
X94176411Y-102355265D01*
X94176415Y-102355268D01*
X94344417Y-102467523D01*
X94430746Y-102525206D01*
X94705092Y-102660499D01*
X94994750Y-102758824D01*
X95294764Y-102818501D01*
X95469184Y-102829933D01*
X95599997Y-102838507D01*
X95600000Y-102838507D01*
X95600003Y-102838507D01*
X95714463Y-102831004D01*
X95905236Y-102818501D01*
X96205250Y-102758824D01*
X96494908Y-102660499D01*
X96769254Y-102525206D01*
X97023593Y-102355262D01*
X97253574Y-102153574D01*
X97455262Y-101923593D01*
X97625206Y-101669254D01*
X97760499Y-101394908D01*
X97858824Y-101105250D01*
X97918501Y-100805236D01*
X97938507Y-100500000D01*
X97918501Y-100194764D01*
X97858824Y-99894750D01*
X97760499Y-99605092D01*
X97625206Y-99330747D01*
X97455262Y-99076407D01*
X97253574Y-98846426D01*
X97253571Y-98846424D01*
X97253570Y-98846422D01*
X97023588Y-98644734D01*
X97023584Y-98644731D01*
X96769251Y-98474792D01*
X96494914Y-98339504D01*
X96494908Y-98339501D01*
X96494903Y-98339499D01*
X96494900Y-98339498D01*
X96205258Y-98241178D01*
X96205252Y-98241176D01*
X96205250Y-98241176D01*
X96104789Y-98221193D01*
X95905245Y-98181500D01*
X95905231Y-98181498D01*
X95600003Y-98161493D01*
X95599997Y-98161493D01*
X95294768Y-98181498D01*
X95294754Y-98181500D01*
X95044980Y-98231184D01*
X94994750Y-98241176D01*
X94994748Y-98241176D01*
X94994741Y-98241178D01*
X94705099Y-98339498D01*
X94705091Y-98339501D01*
X94430741Y-98474797D01*
X94176409Y-98644736D01*
X93946426Y-98846426D01*
X93744736Y-99076409D01*
X93574797Y-99330741D01*
X93439501Y-99605091D01*
X93439498Y-99605099D01*
X93341178Y-99894741D01*
X93341176Y-99894751D01*
X93281500Y-100194754D01*
X93281498Y-100194768D01*
X93261493Y-100499996D01*
X88200000Y-100499996D01*
X88200000Y-97726000D01*
X88220002Y-97657879D01*
X88273658Y-97611386D01*
X88326000Y-97600000D01*
X100000000Y-97600000D01*
X100000000Y-76773025D01*
X100020002Y-76704904D01*
X100073658Y-76658411D01*
X100143932Y-76648307D01*
X100208512Y-76677801D01*
X100246295Y-76735541D01*
X100264170Y-76792906D01*
X100264172Y-76792911D01*
X100264173Y-76792913D01*
X100353184Y-76940155D01*
X100394596Y-76981567D01*
X100428620Y-77043876D01*
X100431500Y-77070661D01*
X100431500Y-90115295D01*
X100431500Y-90264705D01*
X100460649Y-90411247D01*
X100517826Y-90549284D01*
X100600834Y-90673515D01*
X100600838Y-90673519D01*
X105004595Y-95077276D01*
X105038621Y-95139588D01*
X105041500Y-95166371D01*
X105041500Y-101721189D01*
X105021498Y-101789310D01*
X104967842Y-101835803D01*
X104897568Y-101845907D01*
X104882890Y-101842896D01*
X104709289Y-101796381D01*
X104490000Y-101777195D01*
X104270712Y-101796380D01*
X104058096Y-101853350D01*
X104058092Y-101853352D01*
X103858598Y-101946378D01*
X103798010Y-101988801D01*
X104405875Y-102596666D01*
X104316306Y-102620667D01*
X104213694Y-102679910D01*
X104129910Y-102763694D01*
X104070667Y-102866306D01*
X104046666Y-102955875D01*
X103438801Y-102348010D01*
X103437714Y-102349564D01*
X103382257Y-102393893D01*
X103311638Y-102401203D01*
X103248277Y-102369172D01*
X103212292Y-102307971D01*
X103208500Y-102277294D01*
X103208500Y-100971367D01*
X103208499Y-100971350D01*
X103201990Y-100910803D01*
X103201988Y-100910795D01*
X103162619Y-100805245D01*
X103150889Y-100773796D01*
X103150888Y-100773794D01*
X103150887Y-100773792D01*
X103063261Y-100656738D01*
X102946207Y-100569112D01*
X102946202Y-100569110D01*
X102809204Y-100518011D01*
X102809196Y-100518009D01*
X102748649Y-100511500D01*
X102748638Y-100511500D01*
X101151362Y-100511500D01*
X101151350Y-100511500D01*
X101090803Y-100518009D01*
X101090795Y-100518011D01*
X100953797Y-100569110D01*
X100953792Y-100569112D01*
X100836738Y-100656738D01*
X100749112Y-100773792D01*
X100749110Y-100773797D01*
X100698011Y-100910795D01*
X100698009Y-100910803D01*
X100691500Y-100971350D01*
X100691500Y-102568649D01*
X100698009Y-102629196D01*
X100698011Y-102629204D01*
X100749110Y-102766202D01*
X100749112Y-102766207D01*
X100836738Y-102883261D01*
X100953792Y-102970887D01*
X100953794Y-102970888D01*
X100953796Y-102970889D01*
X101012875Y-102992924D01*
X101090795Y-103021988D01*
X101090803Y-103021990D01*
X101151350Y-103028499D01*
X101151355Y-103028499D01*
X101151362Y-103028500D01*
X101186423Y-103028500D01*
X101254544Y-103048502D01*
X101301037Y-103102158D01*
X101311141Y-103172432D01*
X101281647Y-103237012D01*
X101258694Y-103257713D01*
X101137965Y-103342248D01*
X101137959Y-103342253D01*
X100982253Y-103497959D01*
X100982248Y-103497965D01*
X100855944Y-103678346D01*
X100762881Y-103877920D01*
X100762879Y-103877926D01*
X100725504Y-104017410D01*
X100705885Y-104090629D01*
X100686693Y-104310000D01*
X100705885Y-104529371D01*
X100723949Y-104596787D01*
X100762879Y-104742073D01*
X100762881Y-104742079D01*
X100808392Y-104839678D01*
X100855944Y-104941654D01*
X100907895Y-105015847D01*
X100982251Y-105122038D01*
X100982254Y-105122042D01*
X101137957Y-105277745D01*
X101137961Y-105277748D01*
X101137962Y-105277749D01*
X101318346Y-105404056D01*
X101423219Y-105452958D01*
X101450768Y-105465805D01*
X101504053Y-105512722D01*
X101523514Y-105580999D01*
X101502972Y-105648959D01*
X101450768Y-105694195D01*
X101318346Y-105755944D01*
X101137965Y-105882248D01*
X101137959Y-105882253D01*
X100982253Y-106037959D01*
X100982248Y-106037965D01*
X100855944Y-106218346D01*
X100762881Y-106417920D01*
X100762879Y-106417926D01*
X100725504Y-106557410D01*
X100705885Y-106630629D01*
X100686693Y-106850000D01*
X100705885Y-107069371D01*
X100723103Y-107133627D01*
X100762879Y-107282073D01*
X100762881Y-107282079D01*
X100831391Y-107429000D01*
X100855944Y-107481654D01*
X100938708Y-107599852D01*
X100982251Y-107662038D01*
X100982254Y-107662042D01*
X101137957Y-107817745D01*
X101137961Y-107817748D01*
X101137962Y-107817749D01*
X101318346Y-107944056D01*
X101402967Y-107983515D01*
X101450768Y-108005805D01*
X101504053Y-108052722D01*
X101523514Y-108120999D01*
X101502972Y-108188959D01*
X101450768Y-108234195D01*
X101318346Y-108295944D01*
X101137965Y-108422248D01*
X101137959Y-108422253D01*
X100982253Y-108577959D01*
X100982248Y-108577965D01*
X100855944Y-108758346D01*
X100762881Y-108957920D01*
X100762879Y-108957926D01*
X100725504Y-109097410D01*
X100705885Y-109170629D01*
X100686693Y-109390000D01*
X100705885Y-109609371D01*
X100724542Y-109678998D01*
X100762879Y-109822073D01*
X100762881Y-109822079D01*
X100835804Y-109978464D01*
X100855944Y-110021654D01*
X100980785Y-110199945D01*
X100982251Y-110202038D01*
X100982254Y-110202042D01*
X101137954Y-110357742D01*
X101142172Y-110361281D01*
X101141416Y-110362181D01*
X101182094Y-110413058D01*
X101191500Y-110460827D01*
X101191500Y-110525367D01*
X101201156Y-110573909D01*
X101220649Y-110671907D01*
X101277826Y-110809944D01*
X101360834Y-110934175D01*
X102770174Y-112343515D01*
X102770175Y-112343516D01*
X102875824Y-112449165D01*
X103000056Y-112532174D01*
X103138094Y-112589351D01*
X103284634Y-112618500D01*
X105061762Y-112618500D01*
X105061763Y-112618500D01*
X105140943Y-112602750D01*
X105208304Y-112589351D01*
X105346341Y-112532174D01*
X105470572Y-112449166D01*
X105922242Y-111997496D01*
X121831493Y-111997496D01*
X121831493Y-111997503D01*
X121851498Y-112302731D01*
X121851500Y-112302745D01*
X121880625Y-112449161D01*
X121911176Y-112602750D01*
X121964676Y-112760358D01*
X122009498Y-112892400D01*
X122009504Y-112892414D01*
X122144792Y-113166751D01*
X122314731Y-113421084D01*
X122314734Y-113421088D01*
X122516425Y-113651074D01*
X122662063Y-113778794D01*
X122746407Y-113852762D01*
X122746409Y-113852763D01*
X122746411Y-113852765D01*
X122746415Y-113852768D01*
X122899725Y-113955206D01*
X123000746Y-114022706D01*
X123275092Y-114157999D01*
X123564750Y-114256324D01*
X123864764Y-114316001D01*
X124039184Y-114327433D01*
X124169997Y-114336007D01*
X124170000Y-114336007D01*
X124170003Y-114336007D01*
X124284463Y-114328504D01*
X124475236Y-114316001D01*
X124775250Y-114256324D01*
X125064908Y-114157999D01*
X125339254Y-114022706D01*
X125593593Y-113852762D01*
X125823574Y-113651074D01*
X126025262Y-113421093D01*
X126195206Y-113166754D01*
X126330499Y-112892408D01*
X126428824Y-112602750D01*
X126488501Y-112302736D01*
X126508507Y-111997500D01*
X126507753Y-111986000D01*
X126490562Y-111723707D01*
X126488501Y-111692264D01*
X126428824Y-111392250D01*
X126330499Y-111102592D01*
X126195206Y-110828247D01*
X126025262Y-110573907D01*
X125823574Y-110343926D01*
X125823571Y-110343924D01*
X125823570Y-110343922D01*
X125593588Y-110142234D01*
X125593584Y-110142231D01*
X125339251Y-109972292D01*
X125064914Y-109837004D01*
X125064908Y-109837001D01*
X125064903Y-109836999D01*
X125064900Y-109836998D01*
X124775258Y-109738678D01*
X124775252Y-109738676D01*
X124775250Y-109738676D01*
X124662704Y-109716289D01*
X124475245Y-109679000D01*
X124475231Y-109678998D01*
X124170003Y-109658993D01*
X124169997Y-109658993D01*
X123864768Y-109678998D01*
X123864754Y-109679000D01*
X123634931Y-109724716D01*
X123564750Y-109738676D01*
X123564748Y-109738676D01*
X123564741Y-109738678D01*
X123275099Y-109836998D01*
X123275091Y-109837001D01*
X123000741Y-109972297D01*
X122746409Y-110142236D01*
X122516426Y-110343926D01*
X122314736Y-110573909D01*
X122144797Y-110828241D01*
X122009501Y-111102591D01*
X122009498Y-111102599D01*
X121911178Y-111392241D01*
X121911176Y-111392248D01*
X121911176Y-111392250D01*
X121909699Y-111399674D01*
X121851500Y-111692254D01*
X121851498Y-111692268D01*
X121831493Y-111997496D01*
X105922242Y-111997496D01*
X109309166Y-108610572D01*
X109392174Y-108486341D01*
X109449351Y-108348303D01*
X109478500Y-108201762D01*
X109478500Y-108052352D01*
X109478500Y-77070661D01*
X109498502Y-77002540D01*
X109515400Y-76981570D01*
X109556816Y-76940155D01*
X109645827Y-76792913D01*
X109697013Y-76628649D01*
X109703500Y-76557265D01*
X109703499Y-76042736D01*
X109697013Y-75971351D01*
X109652024Y-75826974D01*
X109645829Y-75807093D01*
X109645827Y-75807088D01*
X109645827Y-75807087D01*
X109556816Y-75659845D01*
X109556815Y-75659844D01*
X109556811Y-75659839D01*
X109461067Y-75564095D01*
X109427041Y-75501783D01*
X109432106Y-75430968D01*
X109461067Y-75385905D01*
X109556811Y-75290160D01*
X109556816Y-75290155D01*
X109645827Y-75142913D01*
X109697013Y-74978649D01*
X109703500Y-74907265D01*
X109703499Y-74392736D01*
X109697013Y-74321351D01*
X109645827Y-74157087D01*
X109556816Y-74009845D01*
X109556815Y-74009844D01*
X109556811Y-74009839D01*
X109435160Y-73888188D01*
X109435155Y-73888184D01*
X109354961Y-73839705D01*
X109287913Y-73799173D01*
X109287912Y-73799172D01*
X109287911Y-73799172D01*
X109287906Y-73799170D01*
X109123646Y-73747986D01*
X109071723Y-73743268D01*
X109052265Y-73741500D01*
X109052262Y-73741500D01*
X108936371Y-73741500D01*
X108868250Y-73721498D01*
X108847276Y-73704595D01*
X108195405Y-73052724D01*
X108161379Y-72990412D01*
X108158500Y-72963629D01*
X108158500Y-71884094D01*
X108178502Y-71815973D01*
X108232158Y-71769480D01*
X108302432Y-71759376D01*
X108347500Y-71774975D01*
X108512536Y-71870258D01*
X108701940Y-71931800D01*
X108900000Y-71952617D01*
X109098060Y-71931800D01*
X109287464Y-71870258D01*
X109459934Y-71770683D01*
X109607932Y-71637425D01*
X109724990Y-71476308D01*
X109805992Y-71294375D01*
X109847398Y-71099576D01*
X109850000Y-71000000D01*
X109850000Y-69781994D01*
X109870002Y-69713873D01*
X109923658Y-69667380D01*
X109989473Y-69656716D01*
X110001409Y-69657999D01*
X110001415Y-69658000D01*
X110146000Y-69658000D01*
X110146000Y-66872000D01*
X110166002Y-66803879D01*
X110219658Y-66757386D01*
X110272000Y-66746000D01*
X110415500Y-66746000D01*
X110483621Y-66766002D01*
G37*
%TD.AperFunction*%
%TA.AperFunction,Conductor*%
G36*
X118312011Y-74730145D02*
G01*
X118318594Y-74736275D01*
X118609595Y-75027276D01*
X118643621Y-75089588D01*
X118646500Y-75116370D01*
X118646500Y-75232261D01*
X118652986Y-75303646D01*
X118652986Y-75303647D01*
X118704170Y-75467906D01*
X118704172Y-75467911D01*
X118793184Y-75615155D01*
X118793188Y-75615160D01*
X118888933Y-75710905D01*
X118922959Y-75773217D01*
X118917894Y-75844032D01*
X118888933Y-75889095D01*
X118793188Y-75984839D01*
X118793184Y-75984844D01*
X118704172Y-76132088D01*
X118704170Y-76132093D01*
X118652986Y-76296353D01*
X118646500Y-76367737D01*
X118646500Y-76882261D01*
X118652986Y-76953646D01*
X118652986Y-76953647D01*
X118704170Y-77117906D01*
X118704172Y-77117911D01*
X118704173Y-77117913D01*
X118793184Y-77265155D01*
X118834596Y-77306567D01*
X118868620Y-77368876D01*
X118871500Y-77395661D01*
X118871500Y-95303629D01*
X118851498Y-95371750D01*
X118834595Y-95392724D01*
X114273595Y-99953724D01*
X114211283Y-99987750D01*
X114140468Y-99982685D01*
X114083632Y-99940138D01*
X114058821Y-99873618D01*
X114058500Y-99864629D01*
X114058500Y-99766371D01*
X114078502Y-99698250D01*
X114095405Y-99677276D01*
X115658500Y-98114181D01*
X117689166Y-96083515D01*
X117772174Y-95959284D01*
X117829351Y-95821246D01*
X117858500Y-95674706D01*
X117858500Y-95067662D01*
X117860921Y-95043080D01*
X117861446Y-95040437D01*
X117878500Y-94954705D01*
X117878500Y-94805295D01*
X117878500Y-77395661D01*
X117898502Y-77327540D01*
X117915400Y-77306570D01*
X117956816Y-77265155D01*
X118045827Y-77117913D01*
X118097013Y-76953649D01*
X118103500Y-76882265D01*
X118103499Y-76367736D01*
X118097013Y-76296351D01*
X118045827Y-76132087D01*
X117956816Y-75984845D01*
X117956815Y-75984844D01*
X117956811Y-75984839D01*
X117861067Y-75889095D01*
X117827041Y-75826783D01*
X117832106Y-75755968D01*
X117861067Y-75710905D01*
X117956811Y-75615160D01*
X117956816Y-75615155D01*
X118045827Y-75467913D01*
X118097013Y-75303649D01*
X118103500Y-75232265D01*
X118103499Y-74825369D01*
X118123501Y-74757250D01*
X118177156Y-74710756D01*
X118247430Y-74700652D01*
X118312011Y-74730145D01*
G37*
%TD.AperFunction*%
%TA.AperFunction,Conductor*%
G36*
X113292011Y-74730145D02*
G01*
X113298594Y-74736275D01*
X113589595Y-75027276D01*
X113623621Y-75089588D01*
X113626500Y-75116370D01*
X113626500Y-75232261D01*
X113632986Y-75303646D01*
X113632986Y-75303647D01*
X113684170Y-75467906D01*
X113684172Y-75467911D01*
X113773184Y-75615155D01*
X113773188Y-75615160D01*
X113868933Y-75710905D01*
X113902959Y-75773217D01*
X113897894Y-75844032D01*
X113868933Y-75889095D01*
X113773188Y-75984839D01*
X113773184Y-75984844D01*
X113684172Y-76132088D01*
X113684170Y-76132093D01*
X113632986Y-76296353D01*
X113626500Y-76367737D01*
X113626500Y-76882261D01*
X113632986Y-76953646D01*
X113632986Y-76953647D01*
X113684170Y-77117906D01*
X113684172Y-77117911D01*
X113684173Y-77117913D01*
X113773184Y-77265155D01*
X113814596Y-77306567D01*
X113848620Y-77368876D01*
X113851500Y-77395661D01*
X113851500Y-94182609D01*
X113849079Y-94207191D01*
X113841500Y-94245290D01*
X113841500Y-95333629D01*
X113821498Y-95401750D01*
X113804595Y-95422724D01*
X112773595Y-96453724D01*
X112711283Y-96487750D01*
X112640468Y-96482685D01*
X112583632Y-96440138D01*
X112558821Y-96373618D01*
X112558500Y-96364629D01*
X112558500Y-77602633D01*
X112578502Y-77534512D01*
X112632158Y-77488019D01*
X112647016Y-77482338D01*
X112667913Y-77475827D01*
X112815155Y-77386816D01*
X112936816Y-77265155D01*
X113025827Y-77117913D01*
X113077013Y-76953649D01*
X113083500Y-76882265D01*
X113083499Y-76367736D01*
X113077013Y-76296351D01*
X113025827Y-76132087D01*
X112936816Y-75984845D01*
X112936815Y-75984844D01*
X112936811Y-75984839D01*
X112841067Y-75889095D01*
X112807041Y-75826783D01*
X112812106Y-75755968D01*
X112841067Y-75710905D01*
X112936811Y-75615160D01*
X112936816Y-75615155D01*
X113025827Y-75467913D01*
X113077013Y-75303649D01*
X113083500Y-75232265D01*
X113083499Y-74825369D01*
X113103501Y-74757250D01*
X113157156Y-74710756D01*
X113227430Y-74700652D01*
X113292011Y-74730145D01*
G37*
%TD.AperFunction*%
%TA.AperFunction,Conductor*%
G36*
X115802011Y-74730145D02*
G01*
X115808594Y-74736275D01*
X116099595Y-75027276D01*
X116133621Y-75089588D01*
X116136500Y-75116370D01*
X116136500Y-75232261D01*
X116142986Y-75303646D01*
X116142986Y-75303647D01*
X116194170Y-75467906D01*
X116194172Y-75467911D01*
X116283184Y-75615155D01*
X116283188Y-75615160D01*
X116378933Y-75710905D01*
X116412959Y-75773217D01*
X116407894Y-75844032D01*
X116378933Y-75889095D01*
X116283188Y-75984839D01*
X116283184Y-75984844D01*
X116194172Y-76132088D01*
X116194170Y-76132093D01*
X116142986Y-76296353D01*
X116136500Y-76367737D01*
X116136500Y-76882261D01*
X116142986Y-76953646D01*
X116142986Y-76953647D01*
X116194170Y-77117906D01*
X116194172Y-77117911D01*
X116194173Y-77117913D01*
X116283184Y-77265155D01*
X116324596Y-77306567D01*
X116358620Y-77368876D01*
X116361500Y-77395661D01*
X116361500Y-94712338D01*
X116359079Y-94736914D01*
X116350829Y-94778391D01*
X116341500Y-94825291D01*
X116341500Y-95233629D01*
X116321498Y-95301750D01*
X116304599Y-95322719D01*
X115882613Y-95744706D01*
X115510880Y-96116439D01*
X115448568Y-96150464D01*
X115377752Y-96145399D01*
X115320917Y-96102852D01*
X115296106Y-96036332D01*
X115305375Y-95979128D01*
X115329351Y-95921246D01*
X115332309Y-95906375D01*
X115335320Y-95891244D01*
X115358499Y-95774710D01*
X115358500Y-95774703D01*
X115358500Y-94447389D01*
X115360921Y-94422807D01*
X115361147Y-94421667D01*
X115368500Y-94384705D01*
X115368500Y-94235295D01*
X115368500Y-77395661D01*
X115388502Y-77327540D01*
X115405400Y-77306570D01*
X115446816Y-77265155D01*
X115535827Y-77117913D01*
X115587013Y-76953649D01*
X115593500Y-76882265D01*
X115593499Y-76367736D01*
X115587013Y-76296351D01*
X115535827Y-76132087D01*
X115446816Y-75984845D01*
X115446815Y-75984844D01*
X115446811Y-75984839D01*
X115351067Y-75889095D01*
X115317041Y-75826783D01*
X115322106Y-75755968D01*
X115351067Y-75710905D01*
X115446811Y-75615160D01*
X115446816Y-75615155D01*
X115535827Y-75467913D01*
X115587013Y-75303649D01*
X115593500Y-75232265D01*
X115593499Y-74825369D01*
X115613501Y-74757250D01*
X115667156Y-74710756D01*
X115737430Y-74700652D01*
X115802011Y-74730145D01*
G37*
%TD.AperFunction*%
%TA.AperFunction,Conductor*%
G36*
X102524471Y-64520002D02*
G01*
X102570964Y-64573658D01*
X102581068Y-64643932D01*
X102574406Y-64670033D01*
X102548010Y-64740802D01*
X102548009Y-64740803D01*
X102541500Y-64801350D01*
X102541500Y-69198649D01*
X102548009Y-69259196D01*
X102548011Y-69259201D01*
X102599111Y-69396204D01*
X102616367Y-69419255D01*
X102641179Y-69485774D01*
X102641500Y-69494765D01*
X102641500Y-74424707D01*
X102670649Y-74571247D01*
X102670651Y-74571252D01*
X102706909Y-74658787D01*
X102716500Y-74707004D01*
X102716500Y-74907261D01*
X102722986Y-74978646D01*
X102722986Y-74978647D01*
X102774170Y-75142906D01*
X102774172Y-75142911D01*
X102774173Y-75142913D01*
X102828188Y-75232264D01*
X102863184Y-75290155D01*
X102863188Y-75290160D01*
X102958933Y-75385905D01*
X102992959Y-75448217D01*
X102987894Y-75519032D01*
X102958933Y-75564095D01*
X102863188Y-75659839D01*
X102863184Y-75659844D01*
X102774172Y-75807088D01*
X102774170Y-75807093D01*
X102722986Y-75971353D01*
X102716500Y-76042737D01*
X102716500Y-76557261D01*
X102722986Y-76628646D01*
X102722986Y-76628647D01*
X102774170Y-76792906D01*
X102774172Y-76792911D01*
X102774173Y-76792913D01*
X102863184Y-76940155D01*
X102904596Y-76981567D01*
X102938620Y-77043876D01*
X102941500Y-77070661D01*
X102941500Y-90174707D01*
X102970649Y-90321247D01*
X103027826Y-90459284D01*
X103110834Y-90583515D01*
X103110838Y-90583519D01*
X105804595Y-93277276D01*
X105838621Y-93339588D01*
X105841500Y-93366371D01*
X105841500Y-93464629D01*
X105821498Y-93532750D01*
X105767842Y-93579243D01*
X105697568Y-93589347D01*
X105632988Y-93559853D01*
X105626405Y-93553724D01*
X101985405Y-89912724D01*
X101951379Y-89850412D01*
X101948500Y-89823629D01*
X101948500Y-77070661D01*
X101968502Y-77002540D01*
X101985400Y-76981570D01*
X102026816Y-76940155D01*
X102115827Y-76792913D01*
X102167013Y-76628649D01*
X102173500Y-76557265D01*
X102173499Y-76042736D01*
X102167013Y-75971351D01*
X102122024Y-75826974D01*
X102115829Y-75807093D01*
X102115827Y-75807088D01*
X102115827Y-75807087D01*
X102026816Y-75659845D01*
X102026815Y-75659844D01*
X102026811Y-75659839D01*
X101931067Y-75564095D01*
X101897041Y-75501783D01*
X101902106Y-75430968D01*
X101931067Y-75385905D01*
X102026811Y-75290160D01*
X102026816Y-75290155D01*
X102115827Y-75142913D01*
X102167013Y-74978649D01*
X102173500Y-74907265D01*
X102173499Y-74392736D01*
X102167013Y-74321351D01*
X102164204Y-74312339D01*
X102158500Y-74274854D01*
X102158500Y-69494765D01*
X102178502Y-69426644D01*
X102183624Y-69419266D01*
X102200889Y-69396204D01*
X102251989Y-69259201D01*
X102258500Y-69198638D01*
X102258500Y-64801362D01*
X102258499Y-64801350D01*
X102251990Y-64740803D01*
X102251989Y-64740802D01*
X102251989Y-64740799D01*
X102225593Y-64670031D01*
X102220529Y-64599217D01*
X102254554Y-64536905D01*
X102316867Y-64502880D01*
X102343650Y-64500000D01*
X102456350Y-64500000D01*
X102524471Y-64520002D01*
G37*
%TD.AperFunction*%
%TA.AperFunction,Conductor*%
G36*
X104892011Y-74405145D02*
G01*
X104898594Y-74411275D01*
X105189595Y-74702276D01*
X105223621Y-74764588D01*
X105226500Y-74791370D01*
X105226500Y-74907261D01*
X105232986Y-74978646D01*
X105232986Y-74978647D01*
X105284170Y-75142906D01*
X105284172Y-75142911D01*
X105284173Y-75142913D01*
X105338188Y-75232264D01*
X105373184Y-75290155D01*
X105373188Y-75290160D01*
X105468933Y-75385905D01*
X105502959Y-75448217D01*
X105497894Y-75519032D01*
X105468933Y-75564095D01*
X105373188Y-75659839D01*
X105373184Y-75659844D01*
X105284172Y-75807088D01*
X105284170Y-75807093D01*
X105232986Y-75971353D01*
X105226500Y-76042737D01*
X105226500Y-76557261D01*
X105232986Y-76628646D01*
X105232986Y-76628647D01*
X105284170Y-76792906D01*
X105284172Y-76792911D01*
X105284173Y-76792913D01*
X105373184Y-76940155D01*
X105414596Y-76981567D01*
X105448620Y-77043876D01*
X105451500Y-77070661D01*
X105451500Y-89264709D01*
X105480649Y-89411246D01*
X105480650Y-89411249D01*
X105521900Y-89510835D01*
X105537826Y-89549284D01*
X105620835Y-89673516D01*
X105726484Y-89779165D01*
X105850716Y-89862174D01*
X105988754Y-89919351D01*
X105988755Y-89919351D01*
X105988760Y-89919353D01*
X106023562Y-89926275D01*
X106086472Y-89959181D01*
X106088078Y-89960759D01*
X106504595Y-90377276D01*
X106538621Y-90439588D01*
X106541500Y-90466371D01*
X106541500Y-91564629D01*
X106521498Y-91632750D01*
X106467842Y-91679243D01*
X106397568Y-91689347D01*
X106332988Y-91659853D01*
X106326405Y-91653724D01*
X104495405Y-89822724D01*
X104461379Y-89760412D01*
X104458500Y-89733629D01*
X104458500Y-77070661D01*
X104478502Y-77002540D01*
X104495400Y-76981570D01*
X104536816Y-76940155D01*
X104625827Y-76792913D01*
X104677013Y-76628649D01*
X104683500Y-76557265D01*
X104683499Y-76042736D01*
X104677013Y-75971351D01*
X104632024Y-75826974D01*
X104625829Y-75807093D01*
X104625827Y-75807088D01*
X104625827Y-75807087D01*
X104536816Y-75659845D01*
X104536815Y-75659844D01*
X104536811Y-75659839D01*
X104441067Y-75564095D01*
X104407041Y-75501783D01*
X104412106Y-75430968D01*
X104441067Y-75385905D01*
X104536811Y-75290160D01*
X104536816Y-75290155D01*
X104625827Y-75142913D01*
X104677013Y-74978649D01*
X104683500Y-74907265D01*
X104683499Y-74500369D01*
X104703501Y-74432250D01*
X104757156Y-74385756D01*
X104827430Y-74375652D01*
X104892011Y-74405145D01*
G37*
%TD.AperFunction*%
%TA.AperFunction,Conductor*%
G36*
X107402011Y-74405145D02*
G01*
X107408594Y-74411275D01*
X107699595Y-74702276D01*
X107733621Y-74764588D01*
X107736500Y-74791370D01*
X107736500Y-74907261D01*
X107742986Y-74978646D01*
X107742986Y-74978647D01*
X107794170Y-75142906D01*
X107794172Y-75142911D01*
X107794173Y-75142913D01*
X107848188Y-75232264D01*
X107883184Y-75290155D01*
X107883188Y-75290160D01*
X107978933Y-75385905D01*
X108012959Y-75448217D01*
X108007894Y-75519032D01*
X107978933Y-75564095D01*
X107883188Y-75659839D01*
X107883184Y-75659844D01*
X107794172Y-75807088D01*
X107794170Y-75807093D01*
X107742986Y-75971353D01*
X107736500Y-76042737D01*
X107736500Y-76557261D01*
X107742986Y-76628646D01*
X107742986Y-76628647D01*
X107794170Y-76792906D01*
X107794172Y-76792911D01*
X107794173Y-76792913D01*
X107883184Y-76940155D01*
X107924596Y-76981567D01*
X107958620Y-77043876D01*
X107961500Y-77070661D01*
X107961500Y-89384629D01*
X107941498Y-89452750D01*
X107887842Y-89499243D01*
X107817568Y-89509347D01*
X107752988Y-89479853D01*
X107746405Y-89473724D01*
X107005405Y-88732724D01*
X106971379Y-88670412D01*
X106968500Y-88643629D01*
X106968500Y-77070661D01*
X106988502Y-77002540D01*
X107005400Y-76981570D01*
X107046816Y-76940155D01*
X107135827Y-76792913D01*
X107187013Y-76628649D01*
X107193500Y-76557265D01*
X107193499Y-76042736D01*
X107187013Y-75971351D01*
X107142024Y-75826974D01*
X107135829Y-75807093D01*
X107135827Y-75807088D01*
X107135827Y-75807087D01*
X107046816Y-75659845D01*
X107046815Y-75659844D01*
X107046811Y-75659839D01*
X106951067Y-75564095D01*
X106917041Y-75501783D01*
X106922106Y-75430968D01*
X106951067Y-75385905D01*
X107046811Y-75290160D01*
X107046816Y-75290155D01*
X107135827Y-75142913D01*
X107187013Y-74978649D01*
X107193500Y-74907265D01*
X107193499Y-74500369D01*
X107213501Y-74432250D01*
X107267156Y-74385756D01*
X107337430Y-74375652D01*
X107402011Y-74405145D01*
G37*
%TD.AperFunction*%
%TA.AperFunction,Conductor*%
G36*
X112483621Y-66766002D02*
G01*
X112530114Y-66819658D01*
X112541500Y-66872000D01*
X112541500Y-69198649D01*
X112548009Y-69259196D01*
X112548011Y-69259201D01*
X112599111Y-69396204D01*
X112616367Y-69419255D01*
X112641179Y-69485774D01*
X112641500Y-69494765D01*
X112641500Y-73839707D01*
X112658713Y-73926240D01*
X112652385Y-73996954D01*
X112608831Y-74053022D01*
X112541878Y-74076641D01*
X112510485Y-74072749D01*
X112510180Y-74074286D01*
X112503649Y-74072986D01*
X112447554Y-74067889D01*
X112432265Y-74066500D01*
X112432262Y-74066500D01*
X112316371Y-74066500D01*
X112248250Y-74046498D01*
X112227276Y-74029595D01*
X112195405Y-73997724D01*
X112161379Y-73935412D01*
X112158500Y-73908629D01*
X112158500Y-69494765D01*
X112178502Y-69426644D01*
X112183624Y-69419266D01*
X112200889Y-69396204D01*
X112251989Y-69259201D01*
X112258500Y-69198638D01*
X112258500Y-66872000D01*
X112278502Y-66803879D01*
X112332158Y-66757386D01*
X112384500Y-66746000D01*
X112415500Y-66746000D01*
X112483621Y-66766002D01*
G37*
%TD.AperFunction*%
%TA.AperFunction,Conductor*%
G36*
X114483621Y-66766002D02*
G01*
X114530114Y-66819658D01*
X114541500Y-66872000D01*
X114541500Y-69198649D01*
X114548009Y-69259196D01*
X114548011Y-69259201D01*
X114599111Y-69396204D01*
X114616367Y-69419255D01*
X114641179Y-69485774D01*
X114641500Y-69494765D01*
X114641500Y-73180295D01*
X114641500Y-73329705D01*
X114670649Y-73476247D01*
X114727826Y-73614284D01*
X114810834Y-73738515D01*
X114810838Y-73738519D01*
X114923724Y-73851405D01*
X114957750Y-73913717D01*
X114952685Y-73984532D01*
X114910138Y-74041368D01*
X114843618Y-74066179D01*
X114834629Y-74066500D01*
X114826371Y-74066500D01*
X114758250Y-74046498D01*
X114737276Y-74029595D01*
X114195405Y-73487724D01*
X114161379Y-73425412D01*
X114158500Y-73398629D01*
X114158500Y-69494765D01*
X114178502Y-69426644D01*
X114183624Y-69419266D01*
X114200889Y-69396204D01*
X114251989Y-69259201D01*
X114258500Y-69198638D01*
X114258500Y-66872000D01*
X114278502Y-66803879D01*
X114332158Y-66757386D01*
X114384500Y-66746000D01*
X114415500Y-66746000D01*
X114483621Y-66766002D01*
G37*
%TD.AperFunction*%
%TA.AperFunction,Conductor*%
G36*
X116483621Y-66766002D02*
G01*
X116530114Y-66819658D01*
X116541500Y-66872000D01*
X116541500Y-69198649D01*
X116548009Y-69259196D01*
X116548011Y-69259204D01*
X116599109Y-69396201D01*
X116599110Y-69396202D01*
X116599111Y-69396204D01*
X116628868Y-69435954D01*
X116653679Y-69502474D01*
X116654000Y-69511463D01*
X116654000Y-69658001D01*
X116670002Y-69674003D01*
X116683621Y-69678002D01*
X116730114Y-69731658D01*
X116741500Y-69784000D01*
X116741500Y-72919707D01*
X116755564Y-72990412D01*
X116770649Y-73066247D01*
X116827826Y-73204284D01*
X116910834Y-73328515D01*
X116910838Y-73328519D01*
X117433724Y-73851405D01*
X117467750Y-73913717D01*
X117462685Y-73984532D01*
X117420138Y-74041368D01*
X117353618Y-74066179D01*
X117344629Y-74066500D01*
X117336371Y-74066500D01*
X117268250Y-74046498D01*
X117247276Y-74029595D01*
X116195405Y-72977724D01*
X116161379Y-72915412D01*
X116158500Y-72888629D01*
X116158500Y-69494765D01*
X116178502Y-69426644D01*
X116183624Y-69419266D01*
X116200889Y-69396204D01*
X116251989Y-69259201D01*
X116258500Y-69198638D01*
X116258500Y-66872000D01*
X116278502Y-66803879D01*
X116332158Y-66757386D01*
X116384500Y-66746000D01*
X116415500Y-66746000D01*
X116483621Y-66766002D01*
G37*
%TD.AperFunction*%
%TA.AperFunction,Conductor*%
G36*
X104483621Y-66766002D02*
G01*
X104530114Y-66819658D01*
X104541500Y-66872000D01*
X104541500Y-69198649D01*
X104548009Y-69259196D01*
X104548011Y-69259201D01*
X104599111Y-69396204D01*
X104616367Y-69419255D01*
X104641179Y-69485774D01*
X104641500Y-69494765D01*
X104641500Y-73810338D01*
X104621498Y-73878459D01*
X104567842Y-73924952D01*
X104497568Y-73935056D01*
X104432988Y-73905562D01*
X104426405Y-73899433D01*
X104415160Y-73888188D01*
X104415155Y-73888184D01*
X104334961Y-73839705D01*
X104267913Y-73799173D01*
X104267912Y-73799172D01*
X104267911Y-73799172D01*
X104267904Y-73799169D01*
X104247013Y-73792659D01*
X104187928Y-73753296D01*
X104159504Y-73688238D01*
X104158500Y-73672365D01*
X104158500Y-69494765D01*
X104178502Y-69426644D01*
X104183624Y-69419266D01*
X104200889Y-69396204D01*
X104251989Y-69259201D01*
X104258500Y-69198638D01*
X104258500Y-66872000D01*
X104278502Y-66803879D01*
X104332158Y-66757386D01*
X104384500Y-66746000D01*
X104415500Y-66746000D01*
X104483621Y-66766002D01*
G37*
%TD.AperFunction*%
%TA.AperFunction,Conductor*%
G36*
X106483621Y-66766002D02*
G01*
X106530114Y-66819658D01*
X106541500Y-66872000D01*
X106541500Y-69198649D01*
X106548009Y-69259196D01*
X106548011Y-69259201D01*
X106599111Y-69396204D01*
X106616367Y-69419255D01*
X106641179Y-69485774D01*
X106641500Y-69494765D01*
X106641500Y-73404707D01*
X106670649Y-73551247D01*
X106670652Y-73551257D01*
X106677795Y-73568501D01*
X106685384Y-73639091D01*
X106653604Y-73702578D01*
X106592545Y-73738804D01*
X106549991Y-73742202D01*
X106548619Y-73742077D01*
X106542265Y-73741500D01*
X106542260Y-73741500D01*
X106426371Y-73741500D01*
X106358250Y-73721498D01*
X106337276Y-73704595D01*
X106195405Y-73562724D01*
X106161379Y-73500412D01*
X106158500Y-73473629D01*
X106158500Y-69494765D01*
X106178502Y-69426644D01*
X106183624Y-69419266D01*
X106200889Y-69396204D01*
X106251989Y-69259201D01*
X106258500Y-69198638D01*
X106258500Y-66872000D01*
X106278502Y-66803879D01*
X106332158Y-66757386D01*
X106384500Y-66746000D01*
X106415500Y-66746000D01*
X106483621Y-66766002D01*
G37*
%TD.AperFunction*%
%TD*%
M02*
