M48
; DRILL file {KiCad 8.0.5-8.0.5-0~ubuntu22.04.1} date 2024-10-05T09:37:12-0700
; FORMAT={-:-/ absolute / inch / decimal}
; #@! TF.CreationDate,2024-10-05T09:37:12-07:00
; #@! TF.GenerationSoftware,Kicad,Pcbnew,8.0.5-8.0.5-0~ubuntu22.04.1
; #@! TF.FileFunction,Plated,1,4,PTH
FMAT,2
INCH
; #@! TA.AperFunction,Plated,PTH,ViaDrill
T1C0.0157
; #@! TA.AperFunction,Plated,PTH,ComponentDrill
T2C0.0354
%
G90
G05
T1
X4.0354Y-2.7756
X4.1142Y-2.7756
X4.1929Y-2.7756
X4.2717Y-4.6732
X4.2756Y-4.7756
X4.2756Y-4.8701
X4.2795Y-4.9646
X4.3504Y-2.7657
X4.3583Y-4.9331
X4.3614Y-4.6378
X4.3622Y-4.7441
X4.3622Y-4.8346
X4.4291Y-2.7657
X4.5079Y-2.7657
X4.5827Y-2.7618
X4.6654Y-2.7657
X4.7343Y-2.7657
T2
X4.0094Y-4.6638
X4.0094Y-4.7638
X4.0094Y-4.8638
X4.0094Y-4.9638
X4.0138Y-4.0067
X4.0138Y-4.1067
X4.0138Y-4.2067
X4.0138Y-4.3067
X4.1094Y-4.7138
X4.1094Y-4.8138
X4.1094Y-4.9138
X4.1094Y-5.0138
X4.1138Y-4.0567
X4.1138Y-4.1567
X4.1138Y-4.2567
X4.1138Y-4.3567
X4.5386Y-4.0094
X4.5386Y-4.1094
X4.5386Y-4.2094
X4.5386Y-4.3094
X4.5386Y-4.6668
X4.5386Y-4.7668
X4.5386Y-4.8668
X4.5386Y-4.9668
X4.6386Y-4.0594
X4.6386Y-4.1594
X4.6386Y-4.2594
X4.6386Y-4.3594
X4.6386Y-4.7168
X4.6386Y-4.8168
X4.6386Y-4.9168
X4.6386Y-5.0168
M30
