%TF.GenerationSoftware,KiCad,Pcbnew,8.0.5-8.0.5-0~ubuntu22.04.1*%
%TF.CreationDate,2024-10-05T09:37:12-07:00*%
%TF.ProjectId,siglent-la,7369676c-656e-4742-9d6c-612e6b696361,rev?*%
%TF.SameCoordinates,Original*%
%TF.FileFunction,Profile,NP*%
%FSLAX46Y46*%
G04 Gerber Fmt 4.6, Leading zero omitted, Abs format (unit mm)*
G04 Created by KiCad (PCBNEW 8.0.5-8.0.5-0~ubuntu22.04.1) date 2024-10-05 09:37:12*
%MOMM*%
%LPD*%
G01*
G04 APERTURE LIST*
%TA.AperFunction,Profile*%
%ADD10C,0.100000*%
%TD*%
G04 APERTURE END LIST*
D10*
X100000000Y-97600000D02*
X100000000Y-72500000D01*
X88200000Y-97600000D02*
X100000000Y-97600000D01*
X88200000Y-131500000D02*
X88200000Y-97600000D01*
X131700000Y-131600000D02*
X88200000Y-131500000D01*
X131700000Y-97600000D02*
X131700000Y-131600000D01*
X121500000Y-97600000D02*
X131700000Y-97600000D01*
X121500000Y-72500000D02*
X121500000Y-97600000D01*
X100750000Y-71950000D02*
X100000000Y-72500000D01*
X121500000Y-72500000D02*
X121050000Y-71950000D01*
%TO.C,J1*%
X109850000Y-71000000D02*
G75*
G02*
X107950000Y-71000000I-950000J0D01*
G01*
X121050000Y-71950000D02*
X121050000Y-64050000D01*
X121050000Y-64050000D02*
X120550000Y-63550000D01*
X120550000Y-63550000D02*
X110350000Y-63550000D01*
X109850000Y-71000000D02*
X109850000Y-64050000D01*
X109850000Y-64050000D02*
X110350000Y-63550000D01*
X107950000Y-71000000D02*
X107950000Y-64050000D01*
X107950000Y-64050000D02*
X107450000Y-63550000D01*
X107450000Y-63550000D02*
X101250000Y-63550000D01*
X100750000Y-71950000D02*
X100750000Y-64050000D01*
X100750000Y-64050000D02*
X101250000Y-63550000D01*
%TD*%
M02*
