%TF.GenerationSoftware,KiCad,Pcbnew,8.0.4-8.0.4-0~ubuntu22.04.1*%
%TF.CreationDate,2024-08-22T22:04:31-07:00*%
%TF.ProjectId,siglent-la,7369676c-656e-4742-9d6c-612e6b696361,rev?*%
%TF.SameCoordinates,Original*%
%TF.FileFunction,Copper,L3,Inr*%
%TF.FilePolarity,Positive*%
%FSLAX46Y46*%
G04 Gerber Fmt 4.6, Leading zero omitted, Abs format (unit mm)*
G04 Created by KiCad (PCBNEW 8.0.4-8.0.4-0~ubuntu22.04.1) date 2024-08-22 22:04:31*
%MOMM*%
%LPD*%
G01*
G04 APERTURE LIST*
%TA.AperFunction,ViaPad*%
%ADD10C,0.800000*%
%TD*%
G04 APERTURE END LIST*
D10*
%TO.N,GND*%
X102500000Y-70500000D03*
X110500000Y-70250000D03*
X106500000Y-70500000D03*
X116400000Y-70150000D03*
X112500000Y-70250000D03*
X118500000Y-70250000D03*
X104500000Y-70500000D03*
X114500000Y-70250000D03*
X120250000Y-70250000D03*
%TD*%
%TA.AperFunction,Conductor*%
%TO.N,GND*%
G36*
X121500000Y-104074000D02*
G01*
X121479998Y-104142121D01*
X121426342Y-104188614D01*
X121374000Y-104200000D01*
X100126000Y-104200000D01*
X100057879Y-104179998D01*
X100011386Y-104126342D01*
X100000000Y-104074000D01*
X100000000Y-90000000D01*
X121500000Y-90000000D01*
X121500000Y-104074000D01*
G37*
%TD.AperFunction*%
%TD*%
%TA.AperFunction,Conductor*%
%TO.N,GND*%
G36*
X107892121Y-64520002D02*
G01*
X107938614Y-64573658D01*
X107950000Y-64626000D01*
X107950000Y-71000000D01*
X107952601Y-71099574D01*
X107994008Y-71294375D01*
X108075012Y-71476312D01*
X108192069Y-71637427D01*
X108340061Y-71770679D01*
X108340063Y-71770680D01*
X108340066Y-71770683D01*
X108512536Y-71870258D01*
X108701940Y-71931800D01*
X108900000Y-71952617D01*
X109098060Y-71931800D01*
X109287464Y-71870258D01*
X109459934Y-71770683D01*
X109607932Y-71637425D01*
X109724990Y-71476308D01*
X109805992Y-71294375D01*
X109847398Y-71099576D01*
X109850000Y-71000000D01*
X109850000Y-64626000D01*
X109870002Y-64557879D01*
X109923658Y-64511386D01*
X109976000Y-64500000D01*
X120924000Y-64500000D01*
X120992121Y-64520002D01*
X121038614Y-64573658D01*
X121050000Y-64626000D01*
X121050000Y-71950000D01*
X121471519Y-72465190D01*
X121499175Y-72530578D01*
X121500000Y-72544977D01*
X121500000Y-90000000D01*
X100000000Y-90000000D01*
X100000000Y-72563849D01*
X100020002Y-72495728D01*
X100051488Y-72462242D01*
X100749999Y-71950001D01*
X100750000Y-71950000D01*
X100750000Y-64626000D01*
X100770002Y-64557879D01*
X100823658Y-64511386D01*
X100876000Y-64500000D01*
X107824000Y-64500000D01*
X107892121Y-64520002D01*
G37*
%TD.AperFunction*%
%TD*%
M02*
